<svg width="452" height="281" viewBox="0 0 452 281" fill="none" xmlns="http://www.w3.org/2000/svg">
<g clip-path="url(#clip0_3641_7424)">
<path d="M451.33 0H0V281H451.33V0Z" fill="#F4F4F6"/>
<path d="M33.8497 0V281" stroke="#E2E2E6" stroke-width="0.8"/>
<path d="M417.48 0V281" stroke="#E2E2E6" stroke-width="0.8"/>
<path d="M0 31.6125H451.33" stroke="#E2E2E6" stroke-width="0.8"/>
<path d="M0 249.388H451.33" stroke="#E2E2E6" stroke-width="0.8"/>
<rect x="33.5" y="29.5" width="384" height="222" rx="11.5" fill="white"/>
<rect x="33.5" y="29.5" width="384" height="222" rx="11.5" stroke="#E2E0E0"/>
<path d="M53.8849 77V66.8182H60.7457V68.593H56.0376V71.0192H60.3928V72.794H56.0376V75.2251H60.7656V77H53.8849ZM64.5353 66.8182V77H62.4174V66.8182H64.5353ZM69.712 77.1491C68.9265 77.1491 68.2504 76.9901 67.6836 76.6719C67.1201 76.3504 66.686 75.8963 66.381 75.3097C66.0761 74.7197 65.9237 74.022 65.9237 73.2166C65.9237 72.4311 66.0761 71.7417 66.381 71.1484C66.686 70.5552 67.1152 70.0928 67.6687 69.7614C68.2255 69.4299 68.8784 69.2642 69.6275 69.2642C70.1313 69.2642 70.6003 69.3454 71.0344 69.5078C71.4719 69.6669 71.8531 69.9072 72.1779 70.2287C72.506 70.5502 72.7612 70.9545 72.9435 71.4418C73.1258 71.9257 73.217 72.4924 73.217 73.142V73.7237H66.7688V72.4112H71.2234C71.2234 72.1063 71.1571 71.8362 71.0245 71.6009C70.8919 71.3655 70.708 71.1816 70.4727 71.049C70.2406 70.9131 69.9705 70.8452 69.6623 70.8452C69.3408 70.8452 69.0558 70.9197 68.8072 71.0689C68.5619 71.2147 68.3697 71.4119 68.2305 71.6605C68.0913 71.9058 68.02 72.1792 68.0167 72.4808V73.7287C68.0167 74.1065 68.0863 74.433 68.2255 74.7081C68.368 74.9832 68.5685 75.1953 68.8271 75.3445C69.0856 75.4936 69.3922 75.5682 69.7468 75.5682C69.9821 75.5682 70.1976 75.535 70.3931 75.4688C70.5887 75.4025 70.756 75.303 70.8952 75.1705C71.0344 75.0379 71.1405 74.8755 71.2134 74.6832L73.1722 74.8125C73.0728 75.2831 72.869 75.6941 72.5607 76.0455C72.2558 76.3935 71.8614 76.6652 71.3775 76.8608C70.8969 77.053 70.3417 77.1491 69.712 77.1491ZM81.5133 69.3636L78.8436 77H76.4572L73.7875 69.3636H76.0247L77.6106 74.8274H77.6902L79.2711 69.3636H81.5133ZM84.5696 77.1442C84.0824 77.1442 83.6482 77.0597 83.267 76.8906C82.8859 76.7183 82.5843 76.4647 82.3622 76.13C82.1435 75.7919 82.0341 75.371 82.0341 74.8672C82.0341 74.4429 82.112 74.0866 82.2678 73.7983C82.4235 73.5099 82.6357 73.2779 82.9041 73.1023C83.1726 72.9266 83.4775 72.794 83.8189 72.7045C84.1636 72.6151 84.5249 72.5521 84.9027 72.5156C85.3468 72.4692 85.7048 72.4261 85.9766 72.3864C86.2483 72.3433 86.4455 72.2803 86.5682 72.1974C86.6908 72.1146 86.7521 71.992 86.7521 71.8295V71.7997C86.7521 71.4848 86.6527 71.2412 86.4538 71.0689C86.2583 70.8965 85.9799 70.8104 85.6186 70.8104C85.2375 70.8104 84.9342 70.8949 84.7088 71.0639C84.4834 71.2296 84.3343 71.4384 84.2614 71.6903L82.3026 71.5312C82.402 71.0672 82.5975 70.6662 82.8892 70.3281C83.1809 69.9867 83.5571 69.7249 84.0178 69.5426C84.4818 69.357 85.0187 69.2642 85.6286 69.2642C86.0528 69.2642 86.4588 69.3139 86.8466 69.4134C87.2377 69.5128 87.584 69.6669 87.8857 69.8757C88.1906 70.0845 88.4309 70.353 88.6065 70.6811C88.7822 71.0059 88.87 71.3954 88.87 71.8494V77H86.8615V75.9411H86.8018C86.6792 76.1797 86.5152 76.3902 86.3097 76.5724C86.1042 76.7514 85.8572 76.8923 85.5689 76.995C85.2805 77.0945 84.9474 77.1442 84.5696 77.1442ZM85.1761 75.6825C85.4877 75.6825 85.7628 75.6212 86.0014 75.4986C86.2401 75.3726 86.4273 75.2036 86.5632 74.9915C86.6991 74.7794 86.767 74.5391 86.767 74.2706V73.4602C86.7008 73.5033 86.6096 73.5431 86.4936 73.5795C86.3809 73.6127 86.2533 73.6442 86.1108 73.674C85.9683 73.7005 85.8258 73.7254 85.6832 73.7486C85.5407 73.7685 85.4115 73.7867 85.2955 73.8033C85.0469 73.8397 84.8298 73.8977 84.6442 73.9773C84.4586 74.0568 84.3144 74.1645 84.2116 74.3004C84.1089 74.433 84.0575 74.5987 84.0575 74.7976C84.0575 75.0859 84.1619 75.3063 84.3707 75.4588C84.5829 75.608 84.8513 75.6825 85.1761 75.6825ZM94.5749 69.3636V70.9545H89.9762V69.3636H94.5749ZM91.0202 67.5341H93.1381V74.6534C93.1381 74.849 93.168 75.0014 93.2276 75.1108C93.2873 75.2169 93.3701 75.2914 93.4762 75.3345C93.5856 75.3776 93.7115 75.3991 93.854 75.3991C93.9535 75.3991 94.0529 75.3909 94.1523 75.3743C94.2518 75.3544 94.328 75.3395 94.381 75.3295L94.7141 76.9055C94.6081 76.9387 94.4589 76.9768 94.2667 77.0199C94.0745 77.0663 93.8408 77.0945 93.5657 77.1044C93.0553 77.1243 92.6078 77.0563 92.2234 76.9006C91.8422 76.7448 91.5456 76.5028 91.3335 76.1747C91.1213 75.8466 91.0169 75.4323 91.0202 74.9318V67.5341ZM99.3526 77.1491C98.5671 77.1491 97.891 76.9901 97.3242 76.6719C96.7608 76.3504 96.3266 75.8963 96.0217 75.3097C95.7167 74.7197 95.5643 74.022 95.5643 73.2166C95.5643 72.4311 95.7167 71.7417 96.0217 71.1484C96.3266 70.5552 96.7558 70.0928 97.3093 69.7614C97.8661 69.4299 98.5191 69.2642 99.2681 69.2642C99.7719 69.2642 100.241 69.3454 100.675 69.5078C101.113 69.6669 101.494 69.9072 101.819 70.2287C102.147 70.5502 102.402 70.9545 102.584 71.4418C102.766 71.9257 102.858 72.4924 102.858 73.142V73.7237H96.4094V72.4112H100.864C100.864 72.1063 100.798 71.8362 100.665 71.6009C100.533 71.3655 100.349 71.1816 100.113 71.049C99.8813 70.9131 99.6112 70.8452 99.3029 70.8452C98.9814 70.8452 98.6964 70.9197 98.4478 71.0689C98.2025 71.2147 98.0103 71.4119 97.8711 71.6605C97.7319 71.9058 97.6606 72.1792 97.6573 72.4808V73.7287C97.6573 74.1065 97.7269 74.433 97.8661 74.7081C98.0086 74.9832 98.2092 75.1953 98.4677 75.3445C98.7262 75.4936 99.0328 75.5682 99.3874 75.5682C99.6228 75.5682 99.8382 75.535 100.034 75.4688C100.229 75.4025 100.397 75.303 100.536 75.1705C100.675 75.0379 100.781 74.8755 100.854 74.6832L102.813 74.8125C102.713 75.2831 102.51 75.6941 102.201 76.0455C101.896 76.3935 101.502 76.6652 101.018 76.8608C100.538 77.053 99.9824 77.1491 99.3526 77.1491ZM108.787 79.8636C108.519 79.8636 108.267 79.8421 108.032 79.799C107.8 79.7592 107.608 79.7079 107.455 79.6449L107.932 78.0639C108.181 78.1402 108.405 78.1816 108.604 78.1882C108.806 78.1948 108.98 78.1484 109.126 78.049C109.275 77.9496 109.396 77.7805 109.488 77.5419L109.613 77.2188L106.873 69.3636H109.101L110.682 74.9716H110.761L112.357 69.3636H114.599L111.631 77.8253C111.489 78.2363 111.295 78.5942 111.05 78.8991C110.808 79.2074 110.501 79.4444 110.13 79.6101C109.759 79.7791 109.311 79.8636 108.787 79.8636ZM118.887 77.1491C118.115 77.1491 117.447 76.9851 116.884 76.657C116.324 76.3255 115.891 75.8648 115.586 75.2749C115.281 74.6816 115.129 73.9938 115.129 73.2116C115.129 72.4228 115.281 71.7334 115.586 71.1435C115.891 70.5502 116.324 70.0895 116.884 69.7614C117.447 69.4299 118.115 69.2642 118.887 69.2642C119.66 69.2642 120.326 69.4299 120.886 69.7614C121.449 70.0895 121.883 70.5502 122.188 71.1435C122.493 71.7334 122.646 72.4228 122.646 73.2116C122.646 73.9938 122.493 74.6816 122.188 75.2749C121.883 75.8648 121.449 76.3255 120.886 76.657C120.326 76.9851 119.66 77.1491 118.887 77.1491ZM118.897 75.5085C119.249 75.5085 119.542 75.4091 119.777 75.2102C120.012 75.008 120.19 74.733 120.309 74.3849C120.432 74.0369 120.493 73.6409 120.493 73.1967C120.493 72.7526 120.432 72.3565 120.309 72.0085C120.19 71.6605 120.012 71.3854 119.777 71.1832C119.542 70.9811 119.249 70.88 118.897 70.88C118.543 70.88 118.244 70.9811 118.002 71.1832C117.764 71.3854 117.583 71.6605 117.46 72.0085C117.341 72.3565 117.281 72.7526 117.281 73.1967C117.281 73.6409 117.341 74.0369 117.46 74.3849C117.583 74.733 117.764 75.008 118.002 75.2102C118.244 75.4091 118.543 75.5085 118.897 75.5085ZM128.92 73.7486V69.3636H131.038V77H129.004V75.6129H128.925C128.753 76.0604 128.466 76.42 128.065 76.6918C127.667 76.9635 127.182 77.0994 126.608 77.0994C126.098 77.0994 125.649 76.9834 125.261 76.7514C124.873 76.5194 124.57 76.1896 124.351 75.7621C124.136 75.3345 124.026 74.8224 124.023 74.2259V69.3636H126.141V73.848C126.144 74.2988 126.265 74.6551 126.504 74.9169C126.742 75.1787 127.062 75.3097 127.463 75.3097C127.718 75.3097 127.957 75.2517 128.179 75.1357C128.401 75.0163 128.58 74.8407 128.716 74.6087C128.855 74.3767 128.923 74.09 128.92 73.7486ZM132.732 77V69.3636H134.785V70.696H134.865C135.004 70.2221 135.238 69.8641 135.566 69.6222C135.894 69.3769 136.272 69.2543 136.699 69.2543C136.805 69.2543 136.92 69.2609 137.042 69.2741C137.165 69.2874 137.273 69.3056 137.365 69.3288V71.2081C137.266 71.1783 137.128 71.1518 136.953 71.1286C136.777 71.1054 136.616 71.0938 136.471 71.0938C136.159 71.0938 135.881 71.1617 135.635 71.2976C135.393 71.4302 135.201 71.6158 135.059 71.8544C134.919 72.093 134.85 72.3681 134.85 72.6797V77H132.732ZM141.74 77V66.8182H143.858V70.6463H143.923C144.016 70.4408 144.15 70.232 144.326 70.0199C144.505 69.8045 144.737 69.6255 145.022 69.483C145.31 69.3371 145.668 69.2642 146.096 69.2642C146.652 69.2642 147.166 69.41 147.637 69.7017C148.107 69.9901 148.484 70.4259 148.765 71.0092C149.047 71.5893 149.188 72.3168 149.188 73.1918C149.188 74.0436 149.05 74.7628 148.775 75.3494C148.503 75.9328 148.132 76.3752 147.662 76.6768C147.194 76.9751 146.671 77.1243 146.091 77.1243C145.68 77.1243 145.33 77.0563 145.042 76.9205C144.757 76.7846 144.523 76.6139 144.341 76.4084C144.158 76.1996 144.019 75.9891 143.923 75.777H143.828V77H141.74ZM143.814 73.1818C143.814 73.6359 143.877 74.032 144.002 74.37C144.128 74.7081 144.311 74.9716 144.549 75.1605C144.788 75.3461 145.078 75.4389 145.419 75.4389C145.764 75.4389 146.056 75.3445 146.294 75.1555C146.533 74.9633 146.714 74.6982 146.836 74.3601C146.962 74.0187 147.025 73.6259 147.025 73.1818C147.025 72.741 146.964 72.3532 146.841 72.0185C146.719 71.6837 146.538 71.4219 146.299 71.233C146.061 71.044 145.767 70.9496 145.419 70.9496C145.075 70.9496 144.783 71.0407 144.544 71.223C144.309 71.4053 144.128 71.6638 144.002 71.9986C143.877 72.3333 143.814 72.7277 143.814 73.1818ZM150.601 77V69.3636H152.654V70.696H152.734C152.873 70.2221 153.107 69.8641 153.435 69.6222C153.763 69.3769 154.141 69.2543 154.568 69.2543C154.674 69.2543 154.789 69.2609 154.911 69.2741C155.034 69.2874 155.142 69.3056 155.235 69.3288V71.2081C155.135 71.1783 154.998 71.1518 154.822 71.1286C154.646 71.1054 154.485 71.0938 154.34 71.0938C154.028 71.0938 153.75 71.1617 153.504 71.2976C153.262 71.4302 153.07 71.6158 152.928 71.8544C152.789 72.093 152.719 72.3681 152.719 72.6797V77H150.601ZM158.288 77.1442C157.801 77.1442 157.367 77.0597 156.986 76.8906C156.605 76.7183 156.303 76.4647 156.081 76.13C155.862 75.7919 155.753 75.371 155.753 74.8672C155.753 74.4429 155.831 74.0866 155.987 73.7983C156.142 73.5099 156.354 73.2779 156.623 73.1023C156.891 72.9266 157.196 72.794 157.538 72.7045C157.882 72.6151 158.244 72.5521 158.621 72.5156C159.066 72.4692 159.424 72.4261 159.695 72.3864C159.967 72.3433 160.164 72.2803 160.287 72.1974C160.41 72.1146 160.471 71.992 160.471 71.8295V71.7997C160.471 71.4848 160.371 71.2412 160.173 71.0689C159.977 70.8965 159.699 70.8104 159.337 70.8104C158.956 70.8104 158.653 70.8949 158.428 71.0639C158.202 71.2296 158.053 71.4384 157.98 71.6903L156.021 71.5312C156.121 71.0672 156.316 70.6662 156.608 70.3281C156.9 69.9867 157.276 69.7249 157.737 69.5426C158.201 69.357 158.737 69.2642 159.347 69.2642C159.772 69.2642 160.178 69.3139 160.565 69.4134C160.956 69.5128 161.303 69.6669 161.604 69.8757C161.909 70.0845 162.15 70.353 162.325 70.6811C162.501 71.0059 162.589 71.3954 162.589 71.8494V77H160.58V75.9411H160.521C160.398 76.1797 160.234 76.3902 160.028 76.5724C159.823 76.7514 159.576 76.8923 159.288 76.995C158.999 77.0945 158.666 77.1442 158.288 77.1442ZM158.895 75.6825C159.206 75.6825 159.482 75.6212 159.72 75.4986C159.959 75.3726 160.146 75.2036 160.282 74.9915C160.418 74.7794 160.486 74.5391 160.486 74.2706V73.4602C160.42 73.5033 160.328 73.5431 160.212 73.5795C160.1 73.6127 159.972 73.6442 159.83 73.674C159.687 73.7005 159.545 73.7254 159.402 73.7486C159.259 73.7685 159.13 73.7867 159.014 73.8033C158.766 73.8397 158.549 73.8977 158.363 73.9773C158.177 74.0568 158.033 74.1645 157.93 74.3004C157.828 74.433 157.776 74.5987 157.776 74.7976C157.776 75.0859 157.881 75.3063 158.089 75.4588C158.302 75.608 158.57 75.6825 158.895 75.6825ZM166.35 72.5852V77H164.232V69.3636H166.25V70.7109H166.34C166.509 70.2668 166.792 69.9155 167.19 69.657C167.588 69.3951 168.07 69.2642 168.637 69.2642C169.167 69.2642 169.629 69.3802 170.024 69.6122C170.418 69.8442 170.725 70.1757 170.944 70.6065C171.162 71.0341 171.272 71.5445 171.272 72.1378V77H169.154V72.5156C169.157 72.0483 169.038 71.6837 168.796 71.4219C168.554 71.1567 168.221 71.0241 167.797 71.0241C167.511 71.0241 167.26 71.0855 167.041 71.2081C166.825 71.3307 166.656 71.5097 166.534 71.745C166.414 71.977 166.353 72.2571 166.35 72.5852ZM175.755 77.1243C175.175 77.1243 174.649 76.9751 174.179 76.6768C173.711 76.3752 173.34 75.9328 173.065 75.3494C172.793 74.7628 172.657 74.0436 172.657 73.1918C172.657 72.3168 172.798 71.5893 173.08 71.0092C173.362 70.4259 173.736 69.9901 174.204 69.7017C174.674 69.41 175.19 69.2642 175.75 69.2642C176.177 69.2642 176.534 69.3371 176.819 69.483C177.107 69.6255 177.339 69.8045 177.515 70.0199C177.694 70.232 177.83 70.4408 177.922 70.6463H177.987V66.8182H180.1V77H178.012V75.777H177.922C177.823 75.9891 177.682 76.1996 177.5 76.4084C177.321 76.6139 177.087 76.7846 176.799 76.9205C176.514 77.0563 176.166 77.1243 175.755 77.1243ZM176.426 75.4389C176.767 75.4389 177.056 75.3461 177.291 75.1605C177.53 74.9716 177.712 74.7081 177.838 74.37C177.967 74.032 178.032 73.6359 178.032 73.1818C178.032 72.7277 177.969 72.3333 177.843 71.9986C177.717 71.6638 177.535 71.4053 177.296 71.223C177.057 71.0407 176.767 70.9496 176.426 70.9496C176.078 70.9496 175.785 71.044 175.546 71.233C175.307 71.4219 175.127 71.6837 175.004 72.0185C174.881 72.3532 174.82 72.741 174.82 73.1818C174.82 73.6259 174.881 74.0187 175.004 74.3601C175.13 74.6982 175.311 74.9633 175.546 75.1555C175.785 75.3445 176.078 75.4389 176.426 75.4389ZM188.562 77.1491C187.776 77.1491 187.1 76.9901 186.533 76.6719C185.97 76.3504 185.536 75.8963 185.231 75.3097C184.926 74.7197 184.773 74.022 184.773 73.2166C184.773 72.4311 184.926 71.7417 185.231 71.1484C185.536 70.5552 185.965 70.0928 186.518 69.7614C187.075 69.4299 187.728 69.2642 188.477 69.2642C188.981 69.2642 189.45 69.3454 189.884 69.5078C190.322 69.6669 190.703 69.9072 191.028 70.2287C191.356 70.5502 191.611 70.9545 191.793 71.4418C191.975 71.9257 192.067 72.4924 192.067 73.142V73.7237H185.618V72.4112H190.073C190.073 72.1063 190.007 71.8362 189.874 71.6009C189.742 71.3655 189.558 71.1816 189.322 71.049C189.09 70.9131 188.82 70.8452 188.512 70.8452C188.19 70.8452 187.905 70.9197 187.657 71.0689C187.412 71.2147 187.219 71.4119 187.08 71.6605C186.941 71.9058 186.87 72.1792 186.866 72.4808V73.7287C186.866 74.1065 186.936 74.433 187.075 74.7081C187.218 74.9832 187.418 75.1953 187.677 75.3445C187.935 75.4936 188.242 75.5682 188.596 75.5682C188.832 75.5682 189.047 75.535 189.243 75.4688C189.438 75.4025 189.606 75.303 189.745 75.1705C189.884 75.0379 189.99 74.8755 190.063 74.6832L192.022 74.8125C191.922 75.2831 191.719 75.6941 191.41 76.0455C191.105 76.3935 190.711 76.6652 190.227 76.8608C189.747 77.053 189.191 77.1491 188.562 77.1491ZM195.082 69.3636L196.484 72.0334L197.921 69.3636H200.093L197.881 73.1818L200.153 77H197.99L196.484 74.3601L195.002 77H192.815L195.082 73.1818L192.894 69.3636H195.082ZM201.351 79.8636V69.3636H203.439V70.6463H203.534C203.626 70.4408 203.761 70.232 203.936 70.0199C204.115 69.8045 204.347 69.6255 204.632 69.483C204.921 69.3371 205.279 69.2642 205.706 69.2642C206.263 69.2642 206.777 69.41 207.247 69.7017C207.718 69.9901 208.094 70.4259 208.376 71.0092C208.658 71.5893 208.798 72.3168 208.798 73.1918C208.798 74.0436 208.661 74.7628 208.386 75.3494C208.114 75.9328 207.743 76.3752 207.272 76.6768C206.805 76.9751 206.281 77.1243 205.701 77.1243C205.29 77.1243 204.941 77.0563 204.652 76.9205C204.367 76.7846 204.133 76.6139 203.951 76.4084C203.769 76.1996 203.63 75.9891 203.534 75.777H203.469V79.8636H201.351ZM203.424 73.1818C203.424 73.6359 203.487 74.032 203.613 74.37C203.739 74.7081 203.921 74.9716 204.16 75.1605C204.399 75.3461 204.689 75.4389 205.03 75.4389C205.375 75.4389 205.666 75.3445 205.905 75.1555C206.144 74.9633 206.324 74.6982 206.447 74.3601C206.573 74.0187 206.636 73.6259 206.636 73.1818C206.636 72.741 206.575 72.3532 206.452 72.0185C206.329 71.6837 206.149 71.4219 205.91 71.233C205.671 71.044 205.378 70.9496 205.03 70.9496C204.685 70.9496 204.394 71.0407 204.155 71.223C203.92 71.4053 203.739 71.6638 203.613 71.9986C203.487 72.3333 203.424 72.7277 203.424 73.1818ZM213.691 77.1491C212.905 77.1491 212.229 76.9901 211.662 76.6719C211.099 76.3504 210.664 75.8963 210.36 75.3097C210.055 74.7197 209.902 74.022 209.902 73.2166C209.902 72.4311 210.055 71.7417 210.36 71.1484C210.664 70.5552 211.094 70.0928 211.647 69.7614C212.204 69.4299 212.857 69.2642 213.606 69.2642C214.11 69.2642 214.579 69.3454 215.013 69.5078C215.45 69.6669 215.832 69.9072 216.156 70.2287C216.485 70.5502 216.74 70.9545 216.922 71.4418C217.104 71.9257 217.195 72.4924 217.195 73.142V73.7237H210.747V72.4112H215.202C215.202 72.1063 215.136 71.8362 215.003 71.6009C214.87 71.3655 214.686 71.1816 214.451 71.049C214.219 70.9131 213.949 70.8452 213.641 70.8452C213.319 70.8452 213.034 70.9197 212.786 71.0689C212.54 71.2147 212.348 71.4119 212.209 71.6605C212.07 71.9058 211.999 72.1792 211.995 72.4808V73.7287C211.995 74.1065 212.065 74.433 212.204 74.7081C212.347 74.9832 212.547 75.1953 212.806 75.3445C213.064 75.4936 213.371 75.5682 213.725 75.5682C213.961 75.5682 214.176 75.535 214.372 75.4688C214.567 75.4025 214.735 75.303 214.874 75.1705C215.013 75.0379 215.119 74.8755 215.192 74.6832L217.151 74.8125C217.051 75.2831 216.847 75.6941 216.539 76.0455C216.234 76.3935 215.84 76.6652 215.356 76.8608C214.875 77.053 214.32 77.1491 213.691 77.1491ZM218.578 77V69.3636H220.631V70.696H220.71C220.85 70.2221 221.083 69.8641 221.411 69.6222C221.74 69.3769 222.117 69.2543 222.545 69.2543C222.651 69.2543 222.765 69.2609 222.888 69.2741C223.011 69.2874 223.118 69.3056 223.211 69.3288V71.2081C223.112 71.1783 222.974 71.1518 222.798 71.1286C222.623 71.1054 222.462 71.0938 222.316 71.0938C222.005 71.0938 221.726 71.1617 221.481 71.2976C221.239 71.4302 221.047 71.6158 220.904 71.8544C220.765 72.093 220.695 72.3681 220.695 72.6797V77H218.578ZM224.306 77V69.3636H226.424V77H224.306ZM225.37 68.3793C225.055 68.3793 224.785 68.2749 224.56 68.0661C224.338 67.8539 224.227 67.6004 224.227 67.3054C224.227 67.0137 224.338 66.7635 224.56 66.5547C224.785 66.3426 225.055 66.2365 225.37 66.2365C225.685 66.2365 225.953 66.3426 226.175 66.5547C226.401 66.7635 226.513 67.0137 226.513 67.3054C226.513 67.6004 226.401 67.8539 226.175 68.0661C225.953 68.2749 225.685 68.3793 225.37 68.3793ZM231.601 77.1491C230.815 77.1491 230.139 76.9901 229.572 76.6719C229.009 76.3504 228.575 75.8963 228.27 75.3097C227.965 74.7197 227.812 74.022 227.812 73.2166C227.812 72.4311 227.965 71.7417 228.27 71.1484C228.575 70.5552 229.004 70.0928 229.557 69.7614C230.114 69.4299 230.767 69.2642 231.516 69.2642C232.02 69.2642 232.489 69.3454 232.923 69.5078C233.361 69.6669 233.742 69.9072 234.067 70.2287C234.395 70.5502 234.65 70.9545 234.832 71.4418C235.015 71.9257 235.106 72.4924 235.106 73.142V73.7237H228.657V72.4112H233.112C233.112 72.1063 233.046 71.8362 232.913 71.6009C232.781 71.3655 232.597 71.1816 232.361 71.049C232.129 70.9131 231.859 70.8452 231.551 70.8452C231.229 70.8452 230.944 70.9197 230.696 71.0689C230.451 71.2147 230.258 71.4119 230.119 71.6605C229.98 71.9058 229.909 72.1792 229.905 72.4808V73.7287C229.905 74.1065 229.975 74.433 230.114 74.7081C230.257 74.9832 230.457 75.1953 230.716 75.3445C230.974 75.4936 231.281 75.5682 231.635 75.5682C231.871 75.5682 232.086 75.535 232.282 75.4688C232.477 75.4025 232.645 75.303 232.784 75.1705C232.923 75.0379 233.029 74.8755 233.102 74.6832L235.061 74.8125C234.961 75.2831 234.758 75.6941 234.449 76.0455C234.144 76.3935 233.75 76.6652 233.266 76.8608C232.786 77.053 232.23 77.1491 231.601 77.1491ZM238.606 72.5852V77H236.488V69.3636H238.506V70.7109H238.596C238.765 70.2668 239.048 69.9155 239.446 69.657C239.844 69.3951 240.326 69.2642 240.893 69.2642C241.423 69.2642 241.885 69.3802 242.28 69.6122C242.674 69.8442 242.981 70.1757 243.199 70.6065C243.418 71.0341 243.528 71.5445 243.528 72.1378V77H241.41V72.5156C241.413 72.0483 241.294 71.6837 241.052 71.4219C240.81 71.1567 240.477 71.0241 240.052 71.0241C239.767 71.0241 239.515 71.0855 239.297 71.2081C239.081 71.3307 238.912 71.5097 238.79 71.745C238.67 71.977 238.609 72.2571 238.606 72.5852ZM248.647 77.1491C247.865 77.1491 247.192 76.9834 246.629 76.652C246.068 76.3172 245.638 75.8532 245.336 75.2599C245.038 74.6667 244.888 73.9839 244.888 73.2116C244.888 72.4295 245.039 71.7434 245.341 71.1534C245.646 70.5601 246.078 70.0978 246.638 69.7663C247.199 69.4316 247.865 69.2642 248.637 69.2642C249.303 69.2642 249.887 69.3852 250.387 69.6271C250.888 69.8691 251.284 70.2088 251.575 70.6463C251.867 71.0838 252.028 71.5975 252.058 72.1875H250.059C250.003 71.8063 249.853 71.4998 249.612 71.2678C249.373 71.0324 249.06 70.9148 248.672 70.9148C248.344 70.9148 248.057 71.0043 247.812 71.1832C247.57 71.3589 247.381 71.6158 247.245 71.9538C247.109 72.2919 247.041 72.7012 247.041 73.1818C247.041 73.669 247.107 74.0833 247.24 74.4247C247.376 74.7661 247.567 75.0263 247.812 75.2053C248.057 75.3842 248.344 75.4737 248.672 75.4737C248.914 75.4737 249.131 75.424 249.323 75.3246C249.519 75.2251 249.679 75.081 249.805 74.892C249.935 74.6998 250.019 74.4695 250.059 74.201H252.058C252.024 74.7843 251.865 75.2981 251.58 75.7422C251.299 76.183 250.909 76.5277 250.412 76.7763C249.915 77.0249 249.326 77.1491 248.647 77.1491ZM256.894 77.1491C256.108 77.1491 255.432 76.9901 254.865 76.6719C254.302 76.3504 253.868 75.8963 253.563 75.3097C253.258 74.7197 253.105 74.022 253.105 73.2166C253.105 72.4311 253.258 71.7417 253.563 71.1484C253.868 70.5552 254.297 70.0928 254.85 69.7614C255.407 69.4299 256.06 69.2642 256.809 69.2642C257.313 69.2642 257.782 69.3454 258.216 69.5078C258.654 69.6669 259.035 69.9072 259.36 70.2287C259.688 70.5502 259.943 70.9545 260.125 71.4418C260.307 71.9257 260.399 72.4924 260.399 73.142V73.7237H253.95V72.4112H258.405C258.405 72.1063 258.339 71.8362 258.206 71.6009C258.074 71.3655 257.89 71.1816 257.654 71.049C257.422 70.9131 257.152 70.8452 256.844 70.8452C256.522 70.8452 256.237 70.9197 255.989 71.0689C255.744 71.2147 255.551 71.4119 255.412 71.6605C255.273 71.9058 255.202 72.1792 255.198 72.4808V73.7287C255.198 74.1065 255.268 74.433 255.407 74.7081C255.55 74.9832 255.75 75.1953 256.009 75.3445C256.267 75.4936 256.574 75.5682 256.928 75.5682C257.164 75.5682 257.379 75.535 257.575 75.4688C257.77 75.4025 257.938 75.303 258.077 75.1705C258.216 75.0379 258.322 74.8755 258.395 74.6832L260.354 74.8125C260.254 75.2831 260.051 75.6941 259.742 76.0455C259.437 76.3935 259.043 76.6652 258.559 76.8608C258.079 77.053 257.523 77.1491 256.894 77.1491Z" fill="#525252"/>
<rect x="53" y="100" width="164" height="4" rx="2" fill="#E2E2E6"/>
<rect x="53" y="116" width="188" height="4" rx="2" fill="#E2E2E6"/>
<rect x="53" y="140" width="183" height="4" rx="2" fill="#E2E2E6"/>
<rect x="53" y="156" width="206" height="4" rx="2" fill="#E2E2E6"/>
<rect x="53" y="172" width="145" height="4" rx="2" fill="#E2E2E6"/>
<rect x="53" y="196" width="48" height="22" rx="6" fill="#303030"/>
<path d="M68 207H86" stroke="white" stroke-width="2" stroke-linecap="round"/>
<rect x="113.7" y="196.7" width="46.6" height="20.6" rx="5.3" stroke="#C5C5CC" stroke-width="1.4"/>
<path d="M128 207H146" stroke="#C5C5CC" stroke-width="2" stroke-linecap="round"/>
<g opacity="0.25">
<path d="M393.757 136.257L345.674 88.1741C343.331 85.831 339.532 85.831 337.189 88.1741L289.105 136.257C286.762 138.601 286.762 142.399 289.105 144.743L337.189 192.826C339.532 195.169 343.331 195.169 345.674 192.826L393.757 144.743C396.1 142.399 396.1 138.601 393.757 136.257Z" fill="#F3F4F6" stroke="#E2E0E0" stroke-width="0.8" stroke-dasharray="3 3"/>
</g>
<path d="M345.32 105.498L376.433 136.611C378.581 138.759 378.581 142.241 376.433 144.389L345.32 175.502C343.173 177.65 339.69 177.65 337.542 175.502L306.43 144.389C304.282 142.241 304.282 138.759 306.43 136.611L337.542 105.498C339.69 103.35 343.173 103.35 345.32 105.498Z" fill="#F3F4F6" stroke="#E2E0E0"/>
<path opacity="0.4" d="M356.238 144.533L352.217 135.368C351.485 133.691 350.393 132.739 349.147 132.676C347.914 132.614 346.719 133.453 345.807 135.055L343.366 139.324C342.852 140.226 342.12 140.764 341.324 140.827C340.514 140.902 339.705 140.489 339.05 139.675L338.767 139.324C337.855 138.21 336.725 137.672 335.569 137.785C334.412 137.897 333.423 138.673 332.768 139.938L330.546 144.257C329.749 145.822 329.826 147.638 330.764 149.115C331.702 150.592 333.333 151.481 335.119 151.481H351.51C353.232 151.481 354.838 150.642 355.788 149.24C356.764 147.838 356.919 146.073 356.238 144.533Z" fill="#D5D5DA"/>
<path d="M336.904 133.963C339.302 133.963 341.246 132.069 341.246 129.732C341.246 127.395 339.302 125.5 336.904 125.5C334.506 125.5 332.562 127.395 332.562 129.732C332.562 132.069 334.506 133.963 336.904 133.963Z" fill="#636262" fill-opacity="0.1"/>
</g>
<defs>
<clipPath id="clip0_3641_7424">
<rect width="451.33" height="281" fill="white"/>
</clipPath>
</defs>
</svg>
