<svg width="452" height="281" viewBox="0 0 452 281" fill="none" xmlns="http://www.w3.org/2000/svg">
<g clip-path="url(#clip0_393_1851)">
<path d="M451.33 0H0V281H451.33V0Z" fill="#F4F4F6"/>
<path d="M33.8499 0V281" stroke="#E2E2E6" stroke-width="0.8"/>
<path d="M417.48 0V281" stroke="#E2E2E6" stroke-width="0.8"/>
<path d="M0 31.6123H451.33" stroke="#E2E2E6" stroke-width="0.8"/>
<path d="M0 249.388H451.33" stroke="#E2E2E6" stroke-width="0.8"/>
<rect x="33.5" y="29.5" width="384" height="222" rx="11.5" fill="white"/>
<rect x="33.5" y="29.5" width="384" height="222" rx="11.5" stroke="#E2E0E0"/>
<path d="M53.8849 84.5V74.3182H57.9616C58.7107 74.3182 59.3355 74.4292 59.8359 74.6513C60.3364 74.8733 60.7126 75.1816 60.9645 75.576C61.2164 75.9671 61.3423 76.4179 61.3423 76.9283C61.3423 77.326 61.2628 77.6757 61.1037 77.9773C60.9446 78.2756 60.7259 78.5208 60.4474 78.7131C60.1723 78.902 59.8575 79.0362 59.5028 79.1158V79.2152C59.8906 79.2318 60.2536 79.3411 60.5916 79.5433C60.933 79.7455 61.2098 80.0289 61.4219 80.3935C61.634 80.7547 61.7401 81.1856 61.7401 81.6861C61.7401 82.2263 61.6058 82.7086 61.3374 83.1328C61.0722 83.5537 60.6795 83.8868 60.1591 84.1321C59.6387 84.3774 58.9974 84.5 58.2351 84.5H53.8849ZM56.0376 82.7401H57.7926C58.3925 82.7401 58.83 82.6257 59.1051 82.397C59.3802 82.165 59.5178 81.8568 59.5178 81.4723C59.5178 81.1906 59.4498 80.942 59.3139 80.7266C59.178 80.5111 58.9841 80.3421 58.7322 80.2195C58.4837 80.0968 58.187 80.0355 57.8423 80.0355H56.0376V82.7401ZM56.0376 78.5788H57.6335C57.9285 78.5788 58.1903 78.5275 58.419 78.4247C58.651 78.3187 58.8333 78.1695 58.9659 77.9773C59.1018 77.785 59.1697 77.5547 59.1697 77.2862C59.1697 76.9183 59.0388 76.6217 58.777 76.3963C58.5185 76.1709 58.1506 76.0582 57.6733 76.0582H56.0376V78.5788ZM67.998 81.2486V76.8636H70.1159V84.5H68.0826V83.1129H68.003C67.8307 83.5604 67.544 83.92 67.1429 84.1918C66.7452 84.4635 66.2596 84.5994 65.6863 84.5994C65.1758 84.5994 64.7267 84.4834 64.339 84.2514C63.9512 84.0194 63.6479 83.6896 63.4292 83.2621C63.2137 82.8345 63.1043 82.3224 63.101 81.7259V76.8636H65.2189V81.348C65.2222 81.7988 65.3432 82.1551 65.5819 82.4169C65.8205 82.6787 66.1403 82.8097 66.5414 82.8097C66.7966 82.8097 67.0352 82.7517 67.2573 82.6357C67.4793 82.5163 67.6583 82.3407 67.7942 82.1087C67.9334 81.8767 68.0014 81.59 67.998 81.2486ZM71.81 84.5V76.8636H73.9279V84.5H71.81ZM72.8739 75.8793C72.5591 75.8793 72.2889 75.7749 72.0636 75.5661C71.8415 75.3539 71.7305 75.1004 71.7305 74.8054C71.7305 74.5137 71.8415 74.2635 72.0636 74.0547C72.2889 73.8426 72.5591 73.7365 72.8739 73.7365C73.1888 73.7365 73.4573 73.8426 73.6793 74.0547C73.9047 74.2635 74.0174 74.5137 74.0174 74.8054C74.0174 75.1004 73.9047 75.3539 73.6793 75.5661C73.4573 75.7749 73.1888 75.8793 72.8739 75.8793ZM77.7424 74.3182V84.5H75.6245V74.3182H77.7424ZM83.5007 76.8636V78.4545H78.902V76.8636H83.5007ZM79.946 75.0341H82.0639V82.1534C82.0639 82.349 82.0938 82.5014 82.1534 82.6108C82.2131 82.7169 82.2959 82.7914 82.402 82.8345C82.5114 82.8776 82.6373 82.8991 82.7798 82.8991C82.8793 82.8991 82.9787 82.8909 83.0781 82.8743C83.1776 82.8544 83.2538 82.8395 83.3068 82.8295L83.6399 84.4055C83.5339 84.4387 83.3847 84.4768 83.1925 84.5199C83.0002 84.5663 82.7666 84.5945 82.4915 84.6044C81.9811 84.6243 81.5336 84.5563 81.1491 84.4006C80.768 84.2448 80.4714 84.0028 80.2592 83.6747C80.0471 83.3466 79.9427 82.9323 79.946 82.4318V75.0341ZM92.2271 76.8636V78.4545H87.514V76.8636H92.2271ZM88.5929 84.5V76.3118C88.5929 75.7583 88.7006 75.2992 88.916 74.9347C89.1348 74.5701 89.4331 74.2966 89.8109 74.1143C90.1887 73.9321 90.618 73.8409 91.0985 73.8409C91.4234 73.8409 91.72 73.8658 91.9885 73.9155C92.2602 73.9652 92.4624 74.0099 92.595 74.0497L92.2172 75.6406C92.1343 75.6141 92.0315 75.5893 91.9089 75.5661C91.7896 75.5429 91.667 75.5312 91.541 75.5312C91.2295 75.5312 91.0124 75.6042 90.8897 75.75C90.7671 75.8925 90.7058 76.093 90.7058 76.3516V84.5H88.5929ZM96.6978 84.6491C95.9255 84.6491 95.2577 84.4851 94.6942 84.157C94.1341 83.8255 93.7016 83.3648 93.3967 82.7749C93.0917 82.1816 92.9393 81.4938 92.9393 80.7116C92.9393 79.9228 93.0917 79.2334 93.3967 78.6435C93.7016 78.0502 94.1341 77.5895 94.6942 77.2614C95.2577 76.9299 95.9255 76.7642 96.6978 76.7642C97.4701 76.7642 98.1362 76.9299 98.6964 77.2614C99.2598 77.5895 99.694 78.0502 99.9989 78.6435C100.304 79.2334 100.456 79.9228 100.456 80.7116C100.456 81.4938 100.304 82.1816 99.9989 82.7749C99.694 83.3648 99.2598 83.8255 98.6964 84.157C98.1362 84.4851 97.4701 84.6491 96.6978 84.6491ZM96.7077 83.0085C97.0591 83.0085 97.3524 82.9091 97.5877 82.7102C97.823 82.508 98.0004 82.233 98.1197 81.8849C98.2423 81.5369 98.3036 81.1409 98.3036 80.6967C98.3036 80.2526 98.2423 79.8565 98.1197 79.5085C98.0004 79.1605 97.823 78.8854 97.5877 78.6832C97.3524 78.4811 97.0591 78.38 96.7077 78.38C96.3531 78.38 96.0548 78.4811 95.8129 78.6832C95.5742 78.8854 95.3936 79.1605 95.271 79.5085C95.1516 79.8565 95.092 80.2526 95.092 80.6967C95.092 81.1409 95.1516 81.5369 95.271 81.8849C95.3936 82.233 95.5742 82.508 95.8129 82.7102C96.0548 82.9091 96.3531 83.0085 96.7077 83.0085ZM101.833 84.5V76.8636H103.887V78.196H103.966C104.105 77.7221 104.339 77.3641 104.667 77.1222C104.995 76.8769 105.373 76.7543 105.801 76.7543C105.907 76.7543 106.021 76.7609 106.144 76.7741C106.266 76.7874 106.374 76.8056 106.467 76.8288V78.7081C106.368 78.6783 106.23 78.6518 106.054 78.6286C105.879 78.6054 105.718 78.5938 105.572 78.5938C105.261 78.5938 104.982 78.6617 104.737 78.7976C104.495 78.9302 104.303 79.1158 104.16 79.3544C104.021 79.593 103.951 79.8681 103.951 80.1797V84.5H101.833ZM117.156 79.0412L115.217 79.1605C115.184 78.9948 115.113 78.8456 115.003 78.7131C114.894 78.5772 114.75 78.4695 114.571 78.3899C114.395 78.3071 114.185 78.2656 113.939 78.2656C113.611 78.2656 113.334 78.3352 113.109 78.4744C112.884 78.6103 112.771 78.7926 112.771 79.0213C112.771 79.2036 112.844 79.3577 112.99 79.4837C113.136 79.6096 113.386 79.7107 113.74 79.7869L115.123 80.0653C115.865 80.2178 116.418 80.4631 116.783 80.8011C117.148 81.1392 117.33 81.5833 117.33 82.1335C117.33 82.634 117.182 83.0732 116.887 83.451C116.596 83.8288 116.195 84.1238 115.684 84.3359C115.177 84.5447 114.592 84.6491 113.929 84.6491C112.918 84.6491 112.113 84.4387 111.513 84.0178C110.917 83.5935 110.567 83.0168 110.464 82.2876L112.547 82.1783C112.61 82.4865 112.763 82.7218 113.005 82.8842C113.247 83.0433 113.556 83.1229 113.934 83.1229C114.306 83.1229 114.604 83.0516 114.829 82.9091C115.058 82.7633 115.174 82.576 115.177 82.3473C115.174 82.1551 115.093 81.9976 114.934 81.875C114.775 81.7491 114.529 81.6529 114.198 81.5866L112.875 81.3232C112.13 81.174 111.574 80.9155 111.21 80.5476C110.849 80.1797 110.668 79.7107 110.668 79.1406C110.668 78.6501 110.801 78.2275 111.066 77.8729C111.334 77.5182 111.71 77.2448 112.194 77.0526C112.681 76.8603 113.252 76.7642 113.904 76.7642C114.869 76.7642 115.628 76.968 116.181 77.3757C116.738 77.7834 117.063 78.3385 117.156 79.0412ZM122.114 84.6491C121.332 84.6491 120.659 84.4834 120.095 84.152C119.535 83.8172 119.104 83.3532 118.803 82.7599C118.504 82.1667 118.355 81.4839 118.355 80.7116C118.355 79.9295 118.506 79.2434 118.808 78.6534C119.113 78.0601 119.545 77.5978 120.105 77.2663C120.665 76.9316 121.332 76.7642 122.104 76.7642C122.77 76.7642 123.353 76.8852 123.854 77.1271C124.354 77.3691 124.75 77.7088 125.042 78.1463C125.334 78.5838 125.494 79.0975 125.524 79.6875H123.526C123.469 79.3063 123.32 78.9998 123.078 78.7678C122.84 78.5324 122.526 78.4148 122.139 78.4148C121.811 78.4148 121.524 78.5043 121.279 78.6832C121.037 78.8589 120.848 79.1158 120.712 79.4538C120.576 79.7919 120.508 80.2012 120.508 80.6818C120.508 81.169 120.574 81.5833 120.707 81.9247C120.843 82.2661 121.033 82.5263 121.279 82.7053C121.524 82.8842 121.811 82.9737 122.139 82.9737C122.381 82.9737 122.598 82.924 122.79 82.8246C122.985 82.7251 123.146 82.581 123.272 82.392C123.401 82.1998 123.486 81.9695 123.526 81.701H125.524C125.491 82.2843 125.332 82.7981 125.047 83.2422C124.765 83.683 124.376 84.0277 123.879 84.2763C123.382 84.5249 122.793 84.6491 122.114 84.6491ZM129.058 84.6442C128.571 84.6442 128.136 84.5597 127.755 84.3906C127.374 84.2183 127.073 83.9647 126.85 83.63C126.632 83.2919 126.522 82.871 126.522 82.3672C126.522 81.9429 126.6 81.5866 126.756 81.2983C126.912 81.0099 127.124 80.7779 127.392 80.6023C127.661 80.4266 127.966 80.294 128.307 80.2045C128.652 80.1151 129.013 80.0521 129.391 80.0156C129.835 79.9692 130.193 79.9261 130.465 79.8864C130.737 79.8433 130.934 79.7803 131.056 79.6974C131.179 79.6146 131.24 79.492 131.24 79.3295V79.2997C131.24 78.9848 131.141 78.7412 130.942 78.5689C130.747 78.3965 130.468 78.3104 130.107 78.3104C129.726 78.3104 129.422 78.3949 129.197 78.5639C128.972 78.7296 128.823 78.9384 128.75 79.1903L126.791 79.0312C126.89 78.5672 127.086 78.1662 127.377 77.8281C127.669 77.4867 128.045 77.2249 128.506 77.0426C128.97 76.857 129.507 76.7642 130.117 76.7642C130.541 76.7642 130.947 76.8139 131.335 76.9134C131.726 77.0128 132.072 77.1669 132.374 77.3757C132.679 77.5845 132.919 77.853 133.095 78.1811C133.27 78.5059 133.358 78.8954 133.358 79.3494V84.5H131.35V83.4411H131.29C131.167 83.6797 131.003 83.8902 130.798 84.0724C130.592 84.2514 130.346 84.3923 130.057 84.495C129.769 84.5945 129.436 84.6442 129.058 84.6442ZM129.664 83.1825C129.976 83.1825 130.251 83.1212 130.49 82.9986C130.728 82.8726 130.916 82.7036 131.051 82.4915C131.187 82.2794 131.255 82.0391 131.255 81.7706V80.9602C131.189 81.0033 131.098 81.0431 130.982 81.0795C130.869 81.1127 130.742 81.1442 130.599 81.174C130.457 81.2005 130.314 81.2254 130.172 81.2486C130.029 81.2685 129.9 81.2867 129.784 81.3033C129.535 81.3397 129.318 81.3977 129.132 81.4773C128.947 81.5568 128.803 81.6645 128.7 81.8004C128.597 81.933 128.546 82.0987 128.546 82.2976C128.546 82.5859 128.65 82.8063 128.859 82.9588C129.071 83.108 129.34 83.1825 129.664 83.1825ZM137.119 74.3182V84.5H135.001V74.3182H137.119ZM142.296 84.6491C141.51 84.6491 140.834 84.4901 140.268 84.1719C139.704 83.8504 139.27 83.3963 138.965 82.8097C138.66 82.2197 138.508 81.522 138.508 80.7166C138.508 79.9311 138.66 79.2417 138.965 78.6484C139.27 78.0552 139.699 77.5928 140.253 77.2614C140.809 76.9299 141.462 76.7642 142.211 76.7642C142.715 76.7642 143.184 76.8454 143.618 77.0078C144.056 77.1669 144.437 77.4072 144.762 77.7287C145.09 78.0502 145.345 78.4545 145.528 78.9418C145.71 79.4257 145.801 79.9924 145.801 80.642V81.2237H139.353V79.9112H143.807C143.807 79.6063 143.741 79.3362 143.608 79.1009C143.476 78.8655 143.292 78.6816 143.057 78.549C142.825 78.4131 142.555 78.3452 142.246 78.3452C141.925 78.3452 141.64 78.4197 141.391 78.5689C141.146 78.7147 140.954 78.9119 140.814 79.1605C140.675 79.4058 140.604 79.6792 140.601 79.9808V81.2287C140.601 81.6065 140.67 81.933 140.809 82.2081C140.952 82.4832 141.153 82.6953 141.411 82.8445C141.67 82.9936 141.976 83.0682 142.331 83.0682C142.566 83.0682 142.782 83.035 142.977 82.9688C143.173 82.9025 143.34 82.803 143.479 82.6705C143.618 82.5379 143.724 82.3755 143.797 82.1832L145.756 82.3125C145.657 82.7831 145.453 83.1941 145.145 83.5455C144.84 83.8935 144.445 84.1652 143.961 84.3608C143.481 84.553 142.926 84.6491 142.296 84.6491Z" fill="#525252"/>
<rect x="53" y="101.5" width="142" height="4" rx="2" fill="#E2E2E6"/>
<rect x="53" y="113.5" width="78" height="4" rx="2" fill="#E2E2E6"/>
<rect x="241.5" y="70.5" width="123" height="4" rx="2" fill="#E2E2E6"/>
<rect x="241.5" y="82.5" width="152" height="4" rx="2" fill="#E2E2E6"/>
<rect x="241.5" y="106.5" width="149" height="4" rx="2" fill="#E2E2E6"/>
<rect x="241.5" y="118.5" width="154" height="4" rx="2" fill="#E2E2E6"/>
<rect x="241.5" y="130.5" width="112" height="4" rx="2" fill="#E2E2E6"/>
<rect x="241.5" y="142.5" width="138" height="4" rx="2" fill="#E2E2E6"/>
<mask id="path-16-inside-1_393_1851" fill="white">
<path d="M53 170.5H398V210.5H53V170.5Z"/>
</mask>
<path d="M53 170.5V171.5H398V170.5V169.5H53V170.5ZM398 210.5V209.5H53V210.5V211.5H398V210.5Z" fill="#EBEBEF" mask="url(#path-16-inside-1_393_1851)"/>
<g clip-path="url(#clip1_393_1851)">
<path d="M75.5771 184.5C66.7878 184.5 59.7422 187.162 59.7422 190.499C59.7422 193.817 66.8458 196.499 75.5771 196.499C84.3086 196.499 91.4123 193.808 91.4123 190.499C91.4123 187.191 84.3086 184.5 75.5771 184.5Z" fill="#C5C5CC"/>
<path d="M81.8144 191.77C81.8187 191.798 81.8543 191.824 81.8889 191.837C81.9017 191.841 81.9079 191.85 81.8946 191.879C81.796 192.092 81.7053 192.215 81.5817 192.401C81.468 192.572 81.3399 192.706 81.1849 192.835C80.951 193.03 80.6262 193.243 80.3577 193.1C80.2384 193.038 80.1868 192.869 80.1891 192.732C80.1947 192.348 80.3638 191.954 80.676 191.567C81.0566 191.093 81.4773 190.848 81.7534 190.982C82.0391 191.12 81.9479 191.454 81.82 191.716C81.81 191.736 81.8102 191.754 81.8144 191.77ZM84.8799 188.778C84.9004 188.742 84.8788 188.715 84.833 188.715C84.5944 188.715 84.2813 188.716 84.0327 188.716C83.9735 188.716 83.9429 188.723 83.915 188.779C83.8232 188.956 82.7049 190.65 82.4967 190.979C82.4616 191.029 82.4188 191.022 82.4139 190.964C82.3928 190.769 82.2258 190.544 81.9628 190.437C81.7624 190.355 81.5664 190.34 81.3626 190.367C80.9948 190.417 80.6671 190.613 80.379 190.834C79.9448 191.168 79.5702 191.6 79.0866 191.92C78.8226 192.093 78.461 192.245 78.2191 192.019C78.0002 191.814 78.0249 191.358 78.3599 191.006C78.3952 190.969 78.4375 191 78.4308 191.033C78.3993 191.192 78.4379 191.351 78.5578 191.462C78.7039 191.594 78.913 191.609 79.0921 191.521C79.3033 191.415 79.4274 191.211 79.4636 190.979C79.5195 190.619 79.2457 190.302 78.9029 190.277C78.6245 190.257 78.3575 190.355 78.0973 190.572C77.9669 190.681 77.8928 190.762 77.78 190.924C77.7525 190.964 77.7103 190.968 77.7116 190.909C77.7243 190.449 77.5361 190.19 77.1595 190.181C76.8671 190.174 76.5548 190.335 76.3113 190.531C76.0445 190.747 75.8111 191.034 75.561 191.304C75.5298 191.337 75.5028 191.336 75.494 191.271C75.4869 190.966 75.4106 190.671 75.2709 190.461C75.2214 190.388 75.1174 190.352 75.03 190.401C74.9896 190.423 74.8492 190.489 74.7469 190.572C74.6962 190.614 74.6764 190.675 74.6989 190.754C74.8337 191.209 74.8041 191.727 74.6211 192.165C74.4531 192.566 74.1267 192.927 73.7429 193.049C73.4901 193.13 73.2273 193.091 73.0647 192.864C72.8413 192.552 72.9315 192.008 73.2645 191.557C73.5583 191.159 73.9833 190.907 74.4072 190.744C74.457 190.725 74.4674 190.693 74.4532 190.65C74.4303 190.579 74.3934 190.483 74.3786 190.44C74.3396 190.335 74.2308 190.318 74.0978 190.333C73.7898 190.369 73.512 190.476 73.2375 190.624C72.5188 191.013 72.1585 191.766 72.0006 192.168C71.9245 192.362 71.8595 192.482 71.7755 192.589C71.6622 192.733 71.5199 192.864 71.2599 193.095C71.2363 193.116 71.2188 193.16 71.2386 193.201C71.2651 193.257 71.4004 193.45 71.4385 193.467C71.4809 193.488 71.53 193.459 71.5497 193.444C71.7317 193.32 71.9494 193.122 72.056 192.988C72.0933 192.942 72.1317 192.962 72.1516 193.031C72.251 193.39 72.5114 193.682 72.8714 193.805C73.5304 194.029 74.2139 193.704 74.7298 193.139C75.0577 192.779 75.176 192.548 75.3017 192.39C75.5147 192.124 75.9349 191.527 76.4353 191.144C76.6188 191.003 76.836 190.895 76.9452 190.967C77.0329 191.024 77.0612 191.158 76.9205 191.416C76.4103 192.357 75.6596 193.463 75.522 193.732C75.4967 193.778 75.5191 193.815 75.567 193.815C75.834 193.813 76.0986 193.814 76.341 193.814C76.3814 193.813 76.3994 193.794 76.4196 193.765C76.8112 193.145 77.1797 192.556 77.5746 191.947C77.5967 191.911 77.6171 191.938 77.618 191.954C77.6265 192.095 77.6605 192.289 77.7436 192.416C77.8929 192.65 78.1045 192.751 78.3391 192.753C78.5259 192.756 78.6203 192.726 78.8217 192.65C78.9855 192.589 79.117 192.508 79.2179 192.435C79.2769 192.394 79.2872 192.463 79.2858 192.474C79.1951 192.966 79.3071 193.548 79.7906 193.79C80.3694 194.078 81.0051 193.673 81.371 193.307C81.4068 193.272 81.4452 193.275 81.4489 193.351C81.4574 193.491 81.5191 193.657 81.6335 193.773C81.9401 194.084 82.5587 193.96 83.1795 193.475C83.5781 193.164 83.9952 192.725 84.3719 192.26C84.3861 192.242 84.3963 192.213 84.3691 192.183C84.3117 192.123 84.2288 192.053 84.1719 192C84.1459 191.978 84.1078 191.984 84.086 192.001C83.6999 192.372 83.3522 192.795 82.8498 193.145C82.6804 193.264 82.4103 193.361 82.289 193.195C82.2417 193.131 82.2471 193.041 82.2933 192.925C82.4398 192.555 84.7589 188.988 84.8793 188.777" fill="white"/>
<path d="M73.9685 189.209C73.9784 189.262 73.9988 189.272 74.0226 189.268C74.1408 189.244 74.27 189.146 74.3466 189.032C74.4163 188.929 74.449 188.78 74.3797 188.72C74.318 188.666 74.2174 188.682 74.1429 188.748C73.9944 188.881 73.9494 189.069 73.9685 189.209ZM68.0575 193.801C67.1928 193.807 66.431 193.268 66.3436 192.333C66.295 191.815 66.4399 191.353 66.73 190.973C66.9874 190.634 67.423 190.353 67.7917 190.284C67.9116 190.262 68.0728 190.275 68.1395 190.356C68.244 190.479 68.214 190.614 68.1094 190.668C67.8281 190.813 67.4897 191.061 67.3222 191.4C67.1864 191.677 67.1589 192.011 67.3664 192.329C67.7137 192.859 68.6816 192.873 69.5817 192.028C69.8046 191.822 70.004 191.623 70.2068 191.388C70.6032 190.93 70.735 190.763 71.262 190.024C71.2676 190.016 71.2705 190.004 71.2676 189.999C71.2634 189.989 71.2563 189.988 71.2406 189.986C70.8888 189.996 70.5821 190.102 70.2841 190.327C70.1982 190.39 70.0747 190.381 70.0206 190.298C69.9604 190.204 70.0036 190.081 70.1026 190.012C70.5821 189.675 71.106 189.614 71.6409 189.523C71.6405 189.523 71.678 189.524 71.7086 189.484C71.9282 189.199 72.0941 188.942 72.3282 188.654C72.564 188.362 72.8687 188.093 73.1015 187.892C73.4264 187.61 73.6348 187.515 73.8466 187.398C73.9024 187.369 73.8395 187.333 73.8225 187.333C72.6401 187.109 71.4111 186.818 70.2368 187.258C69.4236 187.564 69.0672 188.216 69.2386 188.651C69.3605 188.96 69.7626 189.01 70.139 188.824C70.4516 188.67 70.7409 188.42 70.946 188.099C71.0607 187.921 71.3025 188.049 71.1718 188.359C70.8282 189.175 70.1717 189.822 69.3721 189.85C68.6916 189.872 68.2525 189.366 68.2539 188.742C68.2567 187.511 69.6129 186.7 71.0382 186.579C72.7547 186.436 74.3805 186.898 76.0847 187.107C77.3905 187.266 78.6424 187.27 79.9549 186.965C80.1101 186.931 80.2189 187.031 80.2088 187.189C80.1961 187.418 80.0206 187.639 79.5883 187.877C79.0967 188.149 78.5824 188.232 78.0452 188.236C76.7464 188.248 75.5365 187.736 74.2845 187.461C74.2859 187.516 74.3003 187.582 74.2544 187.617C73.5609 188.134 72.9341 188.659 72.5142 189.396C72.5001 189.413 72.5071 189.429 72.5322 189.428C72.8967 189.408 73.2245 189.399 73.5649 189.371C73.6243 189.365 73.6266 189.351 73.6213 189.307C73.5912 189.053 73.6647 188.763 73.8859 188.564C74.1123 188.359 74.3958 188.336 74.5837 188.483C74.7974 188.652 74.7785 188.954 74.6616 189.181C74.5426 189.411 74.3462 189.534 74.1576 189.594C74.1576 189.594 74.1179 189.603 74.1239 189.639C74.1309 189.697 74.3882 189.841 74.4102 189.879C74.4314 189.916 74.4201 189.972 74.3815 190.016C74.3543 190.047 74.3116 190.077 74.2571 190.076C74.2131 190.075 74.1863 190.059 74.1299 190.029C74.0146 189.966 73.8705 189.862 73.7744 189.739C73.7417 189.698 73.725 189.697 73.6432 189.702C73.275 189.723 72.7008 189.779 72.3117 189.828C72.2174 189.84 72.2035 189.858 72.1841 189.891C71.5638 190.925 70.9015 192.039 70.1744 192.785C69.3944 193.585 68.7461 193.796 68.0579 193.802" fill="white"/>
<path d="M75.5768 185.481C67.4908 185.481 60.9366 187.739 60.9366 190.501C60.9366 193.264 67.4908 195.522 75.5768 195.522C83.6626 195.522 90.2165 193.264 90.2165 190.501C90.2165 187.739 83.6626 185.481 75.5768 185.481ZM75.5768 195.977C67.1965 195.977 60.403 193.526 60.403 190.501C60.403 187.477 67.1965 185.026 75.5768 185.026C83.9563 185.026 90.7493 187.477 90.7493 190.501C90.7493 193.526 83.9563 195.977 75.5768 195.977Z" fill="white"/>
</g>
<g clip-path="url(#clip2_393_1851)">
<path d="M153.92 189.514C153.329 189.652 151.769 189.728 151.769 189.728L151.577 190.35C151.577 190.35 152.35 190.284 152.915 190.34C152.915 190.34 153.097 190.325 153.117 190.544C153.127 190.768 153.102 191.003 153.102 191.003C153.102 191.003 153.087 191.14 152.9 191.176C152.683 191.212 151.219 191.278 151.219 191.278L150.981 192.083C150.981 192.083 150.896 192.267 151.093 192.216C151.274 192.165 152.809 191.869 153.011 191.91C153.223 191.961 153.466 192.257 153.395 192.522C153.314 192.843 151.779 193.832 150.85 193.765C150.85 193.765 150.36 193.796 149.951 193.128C149.558 192.491 150.088 191.293 150.088 191.293C150.088 191.293 149.851 190.733 150.027 190.529C150.027 190.529 150.128 190.442 150.431 190.417L150.81 189.632C150.81 189.632 150.381 189.657 150.128 189.341C149.896 189.035 149.876 188.903 150.058 188.821C150.249 188.719 152.027 188.398 153.248 188.439C153.248 188.439 153.678 188.388 154.056 189.137C154.056 189.137 154.228 189.443 153.925 189.514M149.315 192.532C149.164 192.904 148.745 193.296 148.24 193.057C147.725 192.812 146.912 191.14 146.912 191.14C146.912 191.14 146.609 190.519 146.548 190.539C146.548 190.539 146.483 190.417 146.447 191.1C146.397 191.777 146.458 193.098 146.18 193.307C145.927 193.511 145.624 193.424 145.453 193.184C145.311 192.945 145.251 192.369 145.332 191.365C145.423 190.361 145.65 189.29 145.938 188.959C146.24 188.622 146.483 188.867 146.574 188.959C146.574 188.959 146.962 189.316 147.619 190.371L147.73 190.564C147.73 190.564 148.326 191.569 148.386 191.563C148.386 191.563 148.437 191.614 148.477 191.574C148.538 191.558 148.518 191.232 148.518 191.232C148.518 191.232 148.406 190.146 147.851 188.311C147.851 188.311 147.77 188.077 147.826 187.853C147.876 187.649 148.093 187.751 148.093 187.751C148.093 187.751 148.932 188.159 149.341 189.535C149.744 190.911 149.472 192.16 149.32 192.532M145.205 189C145.125 189.142 145.089 189.341 144.741 189.397C144.741 189.397 141.358 189.637 141.191 189.876C141.191 189.876 141.08 190.019 141.262 190.055C141.454 190.095 142.221 190.197 142.585 190.218C142.979 190.218 144.302 190.228 144.786 190.829C144.786 190.829 145.064 191.115 145.054 191.762C145.044 192.425 144.928 192.659 144.67 192.899C144.403 193.123 142.11 194.163 140.631 192.573C140.631 192.573 139.954 191.808 140.868 191.227C140.868 191.227 141.525 190.819 143.206 191.293C143.206 191.293 143.711 191.477 143.691 191.665C143.66 191.869 143.272 192.073 142.706 192.063C142.161 192.048 141.757 191.783 141.838 191.828C141.913 191.854 141.247 191.502 141.04 191.742C140.838 191.966 140.889 192.099 141.09 192.236C141.595 192.532 143.58 192.425 144.17 191.757C144.17 191.757 144.408 191.487 144.049 191.268C143.696 191.064 142.666 190.936 142.267 190.921C141.888 190.901 140.469 190.921 140.257 190.549C140.257 190.549 140.055 190.284 140.278 189.56C140.51 188.796 142.161 188.5 142.878 188.439C142.878 188.439 144.847 188.357 145.216 188.765C145.216 188.765 145.266 188.857 145.205 188.994M139.621 193.48C139.384 193.658 138.879 193.582 138.733 193.378C138.591 193.2 138.541 192.496 138.566 191.39C138.601 190.259 138.616 188.872 138.869 188.648C139.121 188.429 139.273 188.622 139.374 188.77C139.475 188.923 139.606 189.091 139.626 189.443C139.657 189.8 139.742 191.635 139.742 191.635C139.742 191.635 139.853 193.307 139.626 193.48M140.126 187.516C139.429 187.756 138.955 187.679 138.551 187.501C138.374 187.822 138.268 187.919 138.137 187.939C137.935 187.96 137.758 187.634 137.733 187.532C137.693 187.455 137.597 187.318 137.713 187.007C137.319 186.65 137.289 186.171 137.359 185.85C137.45 185.472 138.117 184.055 140.136 183.887C140.136 183.887 141.126 183.816 141.297 184.346H141.328C141.328 184.346 142.287 184.346 142.267 185.212C142.267 186.079 141.207 187.16 140.126 187.532M141.025 185.049C140.389 185.151 139.409 186.008 138.94 186.716C139.662 186.849 140.924 186.798 141.489 185.646C141.489 185.646 141.757 184.922 141.025 185.049ZM138.233 185.61C138.031 185.941 138.021 186.14 138.117 186.273C138.354 185.916 138.773 185.355 139.404 184.917C138.919 184.968 138.51 185.172 138.233 185.61ZM155.435 193.444C154.97 194.596 154.576 195.763 154.349 197.512C154.349 197.512 154.299 197.853 154.021 197.741C153.743 197.639 153.289 197.18 153.188 196.533C153.087 195.687 153.461 194.26 154.223 192.619C154.001 192.262 153.844 191.732 153.97 190.987C153.97 190.987 154.172 189.611 155.536 188.368C155.536 188.368 155.697 188.23 155.788 188.276C155.899 188.327 155.854 188.765 155.763 188.989C155.682 189.203 155.076 190.264 155.076 190.264C155.076 190.264 154.698 190.987 154.804 191.553C155.521 190.442 157.151 188.189 158.161 188.903C158.802 189.361 158.802 190.84 158.323 191.696C157.944 192.374 156.874 193.776 155.445 193.449M157.545 189.983C157.172 190.391 156.505 191.166 155.98 192.216C156.535 192.155 157.076 191.844 157.242 191.686C157.51 191.446 158.126 190.799 158.03 189.943C158.03 189.943 157.969 189.494 157.545 189.983ZM134.926 194.046C133.138 194.596 131.452 194.341 130.533 194.097C130.508 194.474 130.467 194.632 130.407 194.693C130.336 194.775 129.75 195.111 129.427 194.632C129.286 194.402 129.215 193.99 129.175 193.612C127.105 192.664 126.145 191.268 126.115 191.217C126.065 191.166 125.595 190.671 126.065 190.06C126.504 189.509 127.958 188.954 129.261 188.735C129.311 187.613 129.432 186.747 129.589 186.364C129.776 185.906 130.013 186.313 130.225 186.619C130.397 186.849 130.503 187.832 130.513 188.617C131.361 188.577 131.876 188.638 132.82 188.821C134.062 189.035 134.89 189.677 134.825 190.401C134.764 191.115 134.118 191.411 133.865 191.431C133.613 191.451 133.209 191.263 133.209 191.263C132.926 191.13 133.184 191.008 133.512 190.865C133.875 190.687 133.795 190.508 133.795 190.508C133.663 190.101 132.053 189.83 130.452 189.83C130.452 190.722 130.488 192.201 130.513 193.062C131.634 193.276 132.472 193.23 132.472 193.23C132.472 193.23 136.562 193.113 136.678 190.478C136.804 187.837 132.588 185.309 129.483 184.514C126.383 183.694 124.626 184.275 124.474 184.351C124.308 184.433 124.459 184.463 124.459 184.463C124.459 184.463 124.626 184.489 124.929 184.591C125.232 184.693 124.989 184.845 124.989 184.845C124.459 185.029 123.868 184.922 123.752 184.677C123.636 184.438 123.828 184.219 124.055 183.897C124.267 183.566 124.51 183.576 124.51 183.576C128.347 182.226 133.032 184.647 133.032 184.647C137.415 186.879 138.162 189.504 138.081 190.524C138.011 191.528 137.627 193.225 134.926 194.051M126.494 190.401C126.06 190.605 126.363 190.931 126.363 190.931C127.18 191.813 128.18 192.369 129.14 192.715C129.251 191.186 129.24 190.641 129.24 189.871C127.756 189.973 126.898 190.218 126.494 190.401Z" fill="#C5C5CC"/>
</g>
<g clip-path="url(#clip3_393_1851)">
<path d="M205.479 194.091V189.24H205.565L209.097 194.091H210.208V186.967H208.973V191.806H208.887L205.355 186.967H204.244V194.091H205.479ZM213.702 194.201C215.332 194.201 216.333 193.15 216.333 191.391C216.333 189.643 215.332 188.58 213.702 188.58C212.085 188.58 211.072 189.643 211.072 191.391C211.085 193.15 212.072 194.201 213.702 194.201ZM213.702 193.175C212.838 193.175 212.344 192.527 212.344 191.391C212.344 190.266 212.838 189.606 213.702 189.606C214.567 189.606 215.061 190.266 215.061 191.391C215.061 192.527 214.567 193.175 213.702 193.175ZM217.456 187.37V188.727H216.592V189.704H217.456V192.649C217.456 193.7 217.95 194.116 219.21 194.116C219.444 194.116 219.679 194.091 219.864 194.055V193.102C219.716 193.114 219.617 193.126 219.444 193.126C218.926 193.126 218.691 192.894 218.691 192.356V189.704H219.864V188.727H218.691V187.37H217.456ZM220.605 194.091H221.84V188.69H220.605V194.091ZM221.222 187.798C221.63 187.798 221.963 187.468 221.963 187.064C221.963 186.649 221.63 186.319 221.222 186.319C220.815 186.319 220.481 186.649 220.481 187.064C220.481 187.468 220.815 187.798 221.222 187.798ZM225.223 194.201C226.853 194.201 227.853 193.15 227.853 191.391C227.853 189.643 226.853 188.58 225.223 188.58C223.606 188.58 222.593 189.643 222.593 191.391C222.593 193.15 223.581 194.201 225.223 194.201ZM225.223 193.175C224.359 193.175 223.865 192.527 223.865 191.391C223.865 190.266 224.359 189.606 225.223 189.606C226.075 189.606 226.581 190.266 226.581 191.391C226.569 192.527 226.075 193.175 225.223 193.175ZM228.582 194.091H229.817V190.951C229.817 190.156 230.286 189.655 231.014 189.655C231.768 189.655 232.113 190.071 232.113 190.89V194.091H233.348V190.596C233.348 189.301 232.681 188.58 231.471 188.58C230.656 188.58 230.113 188.946 229.854 189.558H229.767V188.69H228.569C228.582 188.69 228.582 194.091 228.582 194.091Z" fill="#C5C5CC"/>
<path fill-rule="evenodd" clip-rule="evenodd" d="M192.404 186.511C192.763 186.801 192.893 186.778 193.566 186.732L199.905 186.35C200.043 186.35 199.928 186.213 199.882 186.198L198.827 185.443C198.628 185.29 198.353 185.107 197.841 185.153L191.708 185.603C191.486 185.626 191.441 185.74 191.532 185.824L192.404 186.511ZM192.786 187.983V194.636C192.786 194.995 192.962 195.125 193.367 195.102L200.334 194.697C200.739 194.675 200.785 194.43 200.785 194.141V187.533C200.785 187.243 200.67 187.083 200.425 187.106L193.146 187.533C192.878 187.556 192.786 187.693 192.786 187.983ZM199.661 188.342C199.707 188.54 199.661 188.746 199.462 188.769L199.125 188.838V193.751C198.835 193.904 198.567 193.996 198.338 193.996C197.978 193.996 197.887 193.881 197.619 193.545L195.424 190.104V193.431L196.12 193.584C196.12 193.584 196.12 193.988 195.562 193.988L194.017 194.079C193.972 193.988 194.017 193.767 194.17 193.721L194.576 193.606V189.212L194.017 189.166C193.972 188.967 194.086 188.678 194.4 188.655L196.059 188.54L198.345 192.019V188.945L197.764 188.876C197.718 188.632 197.902 188.449 198.124 188.426L199.661 188.342ZM191.196 184.992L197.581 184.527C198.361 184.458 198.567 184.504 199.057 184.863L201.091 186.289C201.427 186.534 201.542 186.602 201.542 186.869V194.705C201.542 195.193 201.366 195.483 200.739 195.529L193.329 195.979C192.855 196.002 192.633 195.934 192.389 195.621L190.882 193.675C190.615 193.316 190.5 193.049 190.5 192.737V185.771C190.5 185.366 190.684 185.038 191.196 184.992Z" fill="#C5C5CC"/>
</g>
<g clip-path="url(#clip4_393_1851)">
<path d="M269.603 186.869V189.898H266.821V186.869H265.5V194.1H266.821V191.169H269.603V194.1H270.924V186.869H269.603Z" fill="#C5C5CC"/>
<path d="M275.151 191.762C275.151 192.052 275.036 192.33 274.831 192.535C274.626 192.74 274.348 192.855 274.058 192.855C273.768 192.855 273.49 192.74 273.285 192.535C273.08 192.33 272.965 192.052 272.965 191.762V188.665H271.713V191.762C271.713 192.384 271.959 192.98 272.399 193.419C272.838 193.858 273.434 194.105 274.056 194.105C274.677 194.105 275.273 193.858 275.713 193.419C276.152 192.98 276.399 192.384 276.399 191.762V188.665H275.151V191.762Z" fill="#C5C5CC"/>
<path d="M284.434 188.984C284.434 188.349 284.854 188.148 285.314 188.148C285.684 188.148 286.174 188.43 286.495 188.772L287.315 187.806C286.906 187.252 286.075 186.869 285.395 186.869C284.036 186.869 283.053 187.665 283.053 188.984C283.053 191.432 286.045 190.656 286.045 192.026C286.045 192.448 285.635 192.822 285.165 192.822C284.424 192.822 284.184 192.459 283.843 192.076L282.933 193.023C283.515 193.738 284.234 194.101 285.094 194.101C286.385 194.101 287.424 193.295 287.424 192.036C287.424 189.318 284.432 190.163 284.432 188.984" fill="#C5C5CC"/>
<path d="M302.946 192.944C302.205 192.944 301.995 192.624 301.995 192.134V189.962H303.146V188.862H301.995V187.411L300.725 187.981V192.403C300.725 193.535 301.505 194.105 302.575 194.105C302.743 194.108 302.911 194.094 303.076 194.065L303.386 192.924C303.246 192.933 303.086 192.943 302.946 192.943" fill="#C5C5CC"/>
<path d="M279.92 188.701C279.299 188.701 278.866 188.881 278.448 189.292V186.912H277.193V191.324C277.193 192.975 278.387 194.106 279.728 194.106C281.217 194.106 282.526 192.955 282.526 191.404C282.526 189.873 281.321 188.702 279.92 188.702V188.701ZM279.912 192.844C279.63 192.844 279.355 192.76 279.121 192.604C278.887 192.447 278.704 192.225 278.597 191.965C278.489 191.705 278.461 191.418 278.516 191.142C278.571 190.866 278.706 190.612 278.905 190.413C279.104 190.214 279.358 190.079 279.634 190.024C279.91 189.969 280.197 189.997 280.457 190.105C280.717 190.212 280.939 190.395 281.096 190.629C281.252 190.863 281.336 191.138 281.336 191.42C281.336 191.798 281.186 192.16 280.919 192.427C280.652 192.694 280.29 192.844 279.912 192.844Z" fill="#C5C5CC"/>
<path d="M293.545 191.338C293.545 189.785 292.238 188.636 290.747 188.636C289.405 188.636 288.211 189.768 288.211 191.419V195.833H289.466V193.45C289.884 193.86 290.318 194.041 290.938 194.041C292.339 194.041 293.544 192.87 293.544 191.338H293.545ZM292.356 191.323C292.356 191.604 292.273 191.879 292.116 192.114C291.96 192.348 291.738 192.53 291.478 192.638C291.217 192.746 290.931 192.774 290.655 192.719C290.379 192.664 290.125 192.528 289.926 192.329C289.727 192.13 289.591 191.877 289.536 191.6C289.481 191.324 289.51 191.038 289.617 190.778C289.725 190.518 289.908 190.295 290.142 190.139C290.376 189.982 290.651 189.899 290.933 189.899C291.31 189.899 291.672 190.049 291.939 190.316C292.206 190.583 292.356 190.945 292.356 191.323Z" fill="#C5C5CC"/>
<path d="M297.586 188.616V187.369C297.75 187.292 297.89 187.169 297.988 187.016C298.086 186.863 298.139 186.685 298.14 186.503V186.474C298.139 186.219 298.038 185.976 297.858 185.796C297.678 185.616 297.434 185.515 297.18 185.514H297.151C296.896 185.515 296.653 185.616 296.473 185.796C296.293 185.976 296.192 186.219 296.191 186.474V186.503C296.192 186.685 296.244 186.863 296.342 187.016C296.44 187.169 296.58 187.292 296.745 187.369V188.616C296.271 188.689 295.824 188.885 295.451 189.186L292.025 186.52C292.049 186.432 292.062 186.342 292.064 186.25C292.064 186.036 292.001 185.827 291.882 185.649C291.763 185.471 291.594 185.332 291.396 185.249C291.199 185.167 290.981 185.146 290.771 185.187C290.561 185.229 290.368 185.331 290.216 185.483C290.065 185.634 289.961 185.827 289.919 186.037C289.877 186.247 289.898 186.464 289.98 186.662C290.062 186.86 290.2 187.029 290.378 187.149C290.556 187.268 290.766 187.332 290.98 187.332C291.168 187.331 291.352 187.281 291.515 187.186L294.883 189.808C294.58 190.266 294.421 190.805 294.429 191.354C294.436 191.903 294.609 192.437 294.925 192.886L293.9 193.911C293.818 193.885 293.732 193.871 293.646 193.87C293.47 193.87 293.298 193.922 293.151 194.02C293.005 194.118 292.891 194.257 292.824 194.419C292.756 194.582 292.739 194.761 292.773 194.933C292.807 195.106 292.892 195.264 293.017 195.389C293.141 195.513 293.3 195.598 293.472 195.632C293.645 195.667 293.824 195.649 293.986 195.582C294.149 195.514 294.288 195.4 294.386 195.254C294.483 195.108 294.536 194.936 294.536 194.76C294.534 194.673 294.521 194.588 294.494 194.505L295.508 193.491C295.839 193.744 296.224 193.918 296.632 194C297.041 194.081 297.462 194.068 297.865 193.962C298.268 193.856 298.641 193.659 298.956 193.387C299.271 193.114 299.52 192.773 299.683 192.39C299.847 192.007 299.92 191.592 299.898 191.176C299.877 190.76 299.76 190.354 299.558 189.99C299.355 189.626 299.072 189.313 298.731 189.075C298.389 188.837 297.997 188.68 297.586 188.616ZM297.166 192.721C296.888 192.721 296.617 192.638 296.386 192.484C296.155 192.33 295.976 192.111 295.869 191.854C295.763 191.598 295.735 191.316 295.79 191.044C295.844 190.772 295.977 190.522 296.174 190.325C296.37 190.129 296.62 189.996 296.892 189.941C297.164 189.887 297.446 189.915 297.703 190.021C297.959 190.128 298.178 190.307 298.332 190.538C298.486 190.769 298.569 191.04 298.569 191.318C298.569 191.69 298.421 192.046 298.158 192.31C297.895 192.573 297.538 192.721 297.166 192.721Z" fill="#C5C5CC"/>
</g>
<g clip-path="url(#clip5_393_1851)">
<path d="M349.758 190.379C349.758 194.179 346.697 197.259 342.92 197.259C339.143 197.259 336.082 194.179 336.082 190.379C336.082 186.58 339.143 183.5 342.92 183.5C346.697 183.5 349.758 186.58 349.758 190.379Z" fill="#C5C5CC"/>
<path d="M342.974 194.215C341.096 194.222 339.141 192.609 339.132 190.018C339.126 188.305 340.046 186.656 341.219 185.678C342.365 184.725 343.934 184.112 345.356 184.107C345.54 184.107 345.732 184.122 345.849 184.162C344.605 184.421 343.615 185.587 343.619 186.907C343.619 186.952 343.623 186.998 343.628 187.02C345.709 187.531 346.654 188.794 346.661 190.542C346.666 192.292 345.294 194.208 342.974 194.215Z" fill="white"/>
<path d="M390.237 190.115C390.223 189.942 390.187 189.79 390.128 189.663C390.069 189.534 389.996 189.43 389.909 189.351C389.823 189.27 389.73 189.212 389.629 189.172C389.527 189.135 389.426 189.116 389.321 189.116C389.099 189.116 388.888 189.199 388.687 189.366C388.486 189.533 388.368 189.782 388.333 190.115H390.237ZM388.302 191.042C388.33 191.465 388.461 191.771 388.697 191.958C388.932 192.145 389.237 192.24 389.61 192.24C389.784 192.24 389.947 192.223 390.099 192.193C390.251 192.162 390.387 192.122 390.505 192.073C390.623 192.025 390.723 191.976 390.806 191.928C390.889 191.878 390.951 191.833 390.994 191.791L391.335 192.844C391.286 192.878 391.208 192.925 391.102 192.984C390.995 193.044 390.862 193.098 390.703 193.151C390.545 193.203 390.358 193.247 390.144 193.286C389.931 193.324 389.696 193.343 389.441 193.343C389.115 193.343 388.807 193.291 388.513 193.188C388.221 193.083 387.963 192.921 387.743 192.702C387.522 192.484 387.346 192.212 387.216 191.886C387.084 191.56 387.018 191.171 387.018 190.719C387.018 190.296 387.079 189.921 387.199 189.595C387.32 189.268 387.486 188.994 387.696 188.772C387.907 188.551 388.152 188.38 388.431 188.261C388.711 188.144 389.008 188.084 389.326 188.084C389.644 188.084 389.937 188.137 390.207 188.241C390.476 188.345 390.708 188.506 390.906 188.725C391.102 188.944 391.257 189.227 391.371 189.574C391.485 189.921 391.541 190.334 391.541 190.813V191.042L388.302 191.042Z" fill="#C5C5CC"/>
<path d="M354.174 193.228L352.083 188.209H353.449L354.753 191.542L356.017 188.209H357.321L355.292 193.228H354.174Z" fill="#C5C5CC"/>
<path d="M360.96 190.693C360.96 190.484 360.936 190.286 360.887 190.098C360.839 189.909 360.767 189.748 360.67 189.612C360.573 189.476 360.456 189.368 360.318 189.289C360.18 189.208 360.018 189.167 359.832 189.167C359.646 189.167 359.482 189.208 359.346 189.289C359.207 189.368 359.089 189.476 358.994 189.612C358.897 189.748 358.824 189.909 358.776 190.098C358.727 190.286 358.703 190.484 358.703 190.693C358.703 190.909 358.727 191.11 358.776 191.295C358.824 191.479 358.894 191.641 358.987 191.78C359.08 191.919 359.199 192.029 359.34 192.11C359.481 192.189 359.646 192.23 359.832 192.23C360.018 192.23 360.18 192.189 360.318 192.11C360.456 192.029 360.573 191.919 360.67 191.78C360.767 191.641 360.839 191.479 360.887 191.295C360.936 191.11 360.96 190.909 360.96 190.693ZM362.223 190.698C362.223 191.026 362.172 191.347 362.073 191.663C361.973 191.979 361.824 192.261 361.627 192.511C361.431 192.761 361.182 192.962 360.882 193.115C360.582 193.268 360.231 193.344 359.832 193.344C359.431 193.344 359.08 193.268 358.781 193.115C358.481 192.962 358.232 192.761 358.035 192.511C357.839 192.261 357.691 191.979 357.59 191.663C357.491 191.347 357.441 191.026 357.441 190.698C357.441 190.372 357.491 190.054 357.59 189.74C357.691 189.428 357.839 189.149 358.035 188.902C358.232 188.656 358.481 188.459 358.781 188.31C359.08 188.16 359.431 188.085 359.832 188.085C360.231 188.085 360.581 188.16 360.877 188.31C361.174 188.459 361.422 188.656 361.622 188.902C361.823 189.149 361.973 189.428 362.073 189.74C362.172 190.054 362.223 190.372 362.223 190.698Z" fill="#C5C5CC"/>
<path d="M366.079 189.314C365.831 189.217 365.601 189.167 365.388 189.167C365.169 189.167 364.979 189.21 364.822 189.294C364.664 189.377 364.533 189.49 364.43 189.632C364.327 189.775 364.251 189.936 364.199 190.114C364.148 190.291 364.121 190.474 364.121 190.663C364.121 190.871 364.144 191.071 364.189 191.263C364.233 191.454 364.302 191.622 364.395 191.765C364.487 191.907 364.604 192.022 364.744 192.11C364.885 192.196 365.052 192.24 365.244 192.24C365.403 192.24 365.564 192.196 365.728 192.11C365.893 192.022 366.01 191.919 366.079 191.801L366.079 189.314ZM366.182 193.228L366.13 192.844C366.013 192.975 365.859 193.092 365.665 193.192C365.473 193.293 365.246 193.343 364.984 193.343C364.641 193.343 364.337 193.27 364.077 193.125C363.815 192.979 363.595 192.785 363.416 192.542C363.238 192.299 363.101 192.017 363.008 191.698C362.916 191.379 362.87 191.045 362.87 190.698C362.87 190.372 362.918 190.052 363.013 189.74C363.11 189.428 363.256 189.148 363.452 188.902C363.649 188.655 363.894 188.458 364.19 188.309C364.486 188.16 364.834 188.084 365.232 188.084C365.493 188.084 365.776 188.133 366.079 188.23V186.283H367.362V193.228H366.182Z" fill="#C5C5CC"/>
<path d="M370.975 190.875C370.837 190.882 370.694 190.895 370.548 190.912C370.402 190.929 370.264 190.952 370.132 190.98C369.853 191.035 369.661 191.13 369.553 191.265C369.446 191.402 369.392 191.549 369.392 191.709C369.392 191.875 369.452 192.009 369.574 192.11C369.696 192.21 369.867 192.26 370.089 192.26C370.256 192.26 370.418 192.226 370.574 192.157C370.73 192.087 370.864 192 370.975 191.896V190.875ZM371.078 193.225L371.028 192.849C370.888 193.003 370.712 193.125 370.498 193.212C370.283 193.299 370.048 193.343 369.791 193.343C369.577 193.343 369.369 193.307 369.173 193.233C368.975 193.161 368.8 193.056 368.648 192.921C368.496 192.786 368.373 192.62 368.28 192.422C368.186 192.223 368.139 192 368.139 191.75C368.139 191.501 368.187 191.279 368.285 191.089C368.382 190.898 368.512 190.737 368.679 190.604C368.845 190.473 369.036 190.366 369.251 190.282C369.465 190.199 369.691 190.136 369.926 190.094C370.092 190.06 370.274 190.034 370.471 190.017C370.668 189.999 370.833 189.984 370.965 189.97V189.897C370.965 189.619 370.895 189.421 370.751 189.303C370.609 189.185 370.413 189.126 370.165 189.126C370.019 189.126 369.879 189.143 369.747 189.179C369.616 189.213 369.499 189.256 369.394 189.308C369.29 189.361 369.198 189.413 369.118 189.464C369.039 189.516 368.975 189.563 368.926 189.605L368.501 188.7C368.556 188.65 368.641 188.592 368.755 188.523C368.869 188.453 369.006 188.385 369.17 188.319C369.332 188.254 369.514 188.198 369.717 188.152C369.921 188.107 370.141 188.084 370.374 188.084C370.651 188.084 370.903 188.121 371.131 188.194C371.358 188.267 371.555 188.381 371.721 188.538C371.886 188.693 372.015 188.891 372.11 189.131C372.203 189.37 372.249 189.659 372.249 189.999V193.225H371.078Z" fill="#C5C5CC"/>
<path d="M376.214 187.428C376.173 187.408 376.092 187.378 375.972 187.34C375.85 187.302 375.69 187.283 375.489 187.283C375.311 187.283 375.16 187.337 375.04 187.445C374.919 187.552 374.859 187.728 374.859 187.97V188.209H375.935V189.251H374.869V193.228H373.585V189.251H372.922V188.209H373.585V187.939C373.585 187.613 373.626 187.337 373.709 187.111C373.792 186.886 373.907 186.701 374.056 186.56C374.204 186.417 374.379 186.312 374.578 186.246C374.779 186.181 374.997 186.148 375.232 186.148C375.542 186.148 375.798 186.177 376.002 186.236C376.205 186.296 376.325 186.335 376.359 186.356L376.214 187.428Z" fill="#C5C5CC"/>
<path d="M379.713 190.693C379.713 190.484 379.688 190.286 379.641 190.098C379.593 189.909 379.52 189.748 379.423 189.612C379.326 189.476 379.21 189.368 379.071 189.289C378.933 189.208 378.771 189.167 378.585 189.167C378.399 189.167 378.236 189.208 378.099 189.289C377.961 189.368 377.843 189.476 377.746 189.612C377.65 189.748 377.577 189.909 377.528 190.098C377.481 190.286 377.457 190.484 377.457 190.693C377.457 190.909 377.481 191.11 377.528 191.295C377.578 191.479 377.648 191.641 377.741 191.78C377.834 191.919 377.952 192.029 378.093 192.11C378.235 192.189 378.399 192.23 378.585 192.23C378.771 192.23 378.933 192.189 379.071 192.11C379.21 192.029 379.326 191.919 379.423 191.78C379.52 191.641 379.593 191.479 379.641 191.295C379.688 191.11 379.713 190.909 379.713 190.693ZM380.976 190.698C380.976 191.026 380.926 191.347 380.825 191.663C380.726 191.979 380.578 192.261 380.381 192.511C380.185 192.761 379.936 192.962 379.636 193.115C379.335 193.268 378.985 193.344 378.585 193.344C378.184 193.344 377.834 193.268 377.535 193.115C377.235 192.962 376.986 192.761 376.788 192.511C376.592 192.261 376.444 191.979 376.344 191.663C376.243 191.347 376.194 191.026 376.194 190.698C376.194 190.372 376.243 190.054 376.344 189.74C376.444 189.428 376.592 189.149 376.788 188.902C376.986 188.656 377.235 188.459 377.535 188.31C377.834 188.16 378.184 188.085 378.585 188.085C378.985 188.085 379.334 188.16 379.631 188.31C379.927 188.459 380.176 188.656 380.376 188.902C380.577 189.149 380.726 189.428 380.825 189.74C380.926 190.054 380.976 190.372 380.976 190.698Z" fill="#C5C5CC"/>
<path d="M384.96 193.228V190.366C384.96 189.984 384.881 189.688 384.723 189.48C384.563 189.272 384.343 189.167 384.059 189.167C383.86 189.167 383.675 189.219 383.507 189.324C383.337 189.428 383.19 189.543 383.066 189.668V193.228H381.783V188.209H382.953L383.014 188.605C383.215 188.439 383.44 188.31 383.693 188.221C383.944 188.13 384.198 188.085 384.453 188.085C384.715 188.085 384.956 188.125 385.178 188.204C385.399 188.285 385.588 188.412 385.747 188.585C385.906 188.758 386.028 188.984 386.115 189.261C386.2 189.539 386.244 189.873 386.244 190.261V193.228H384.96Z" fill="#C5C5CC"/>
</g>
</g>
<defs>
<clipPath id="clip0_393_1851">
<rect width="451.33" height="281" fill="white"/>
</clipPath>
<clipPath id="clip1_393_1851">
<rect width="32" height="16" fill="white" transform="translate(59.5 182.5)"/>
</clipPath>
<clipPath id="clip2_393_1851">
<rect width="35" height="16" fill="white" transform="translate(123.5 182.5)"/>
</clipPath>
<clipPath id="clip3_393_1851">
<rect width="43" height="16" fill="white" transform="translate(190.5 182.5)"/>
</clipPath>
<clipPath id="clip4_393_1851">
<rect width="38" height="16" fill="white" transform="translate(265.5 182.5)"/>
</clipPath>
<clipPath id="clip5_393_1851">
<rect width="56" height="16" fill="white" transform="translate(335.5 182.5)"/>
</clipPath>
</defs>
</svg>
