<svg width="452" height="281" viewBox="0 0 452 281" fill="none" xmlns="http://www.w3.org/2000/svg">
<g clip-path="url(#clip0_586_6296)">
<path d="M451.33 0H0V281H451.33V0Z" fill="#F4F4F6"/>
<path d="M33.8499 0V281" stroke="#E2E2E6" stroke-width="0.8"/>
<path d="M417.48 0V281" stroke="#E2E2E6" stroke-width="0.8"/>
<path d="M0 31.6133H451.33" stroke="#E2E2E6" stroke-width="0.8"/>
<path d="M0 249.387H451.33" stroke="#E2E2E6" stroke-width="0.8"/>
<rect x="33.5" y="29.5" width="384" height="222" rx="11.5" fill="white"/>
<rect x="33.5" y="29.5" width="384" height="222" rx="11.5" stroke="#E2E0E0"/>
<g clip-path="url(#clip1_586_6296)">
<g clip-path="url(#clip2_586_6296)">
<rect x="43" y="39" width="365" height="203" rx="12" fill="#FBFBFB"/>
<g clip-path="url(#clip3_586_6296)">
<path d="M555.248 39.4902L43.1017 814.488M549.246 39.4902L37.0992 814.488M562.241 39.4902L50.0947 814.488M569.233 39.4902L57.0865 814.488M576.224 39.4902L64.0775 814.488M583.215 39.4883L71.0687 814.486M590.21 39.4902L78.0637 814.488M597.204 39.4902L85.0568 814.488M604.197 39.4902L92.0499 814.488M611.19 39.4902L99.0429 814.488M618.179 39.4902L106.032 814.488M625.172 39.4902L113.025 814.488M632.165 39.4902L120.018 814.488M639.158 39.4902L127.012 814.488M646.151 39.4902L134.005 814.488M653.145 39.4902L140.998 814.488M660.136 39.4902L147.989 814.488M62.2417 39.4902L-449.905 814.488M56.2397 39.4902L-455.907 814.488M50.2376 39.4902L-461.909 814.488M69.2358 39.4902L-442.911 814.488M76.228 39.4902L-435.919 814.488M83.2202 39.4902L-428.927 814.488M90.2104 39.4883L-421.936 814.486M97.2065 39.4902L-414.94 814.488M104.199 39.4902L-407.948 814.488M111.193 39.4902L-400.954 814.488M118.185 39.4902L-393.962 814.488M125.175 39.4902L-386.971 814.488M132.167 39.4902L-379.979 814.488M139.162 39.4902L-372.985 814.488M146.154 39.4902L-365.993 814.488M153.148 39.4902L-358.999 814.488M160.14 39.4902L-352.007 814.488M167.132 39.4902L-345.014 814.488M180.236 39.4902L-331.91 814.488M174.234 39.4902L-337.912 814.488M187.231 39.4902L-324.916 814.488M194.223 39.4902L-317.924 814.488M201.215 39.4902L-310.932 814.488M208.205 39.4883L-303.942 814.486M215.201 39.4902L-296.946 814.488M222.193 39.4902L-289.953 814.488M229.188 39.4902L-282.959 814.488M236.18 39.4902L-275.967 814.488M243.17 39.4902L-268.977 814.488M250.162 39.4902L-261.985 814.488M257.156 39.4902L-254.99 814.488M264.148 39.4902L-247.998 814.488M271.143 39.4902L-241.004 814.488M278.135 39.4902L-234.012 814.488M285.127 39.4902L-227.02 814.488M667.128 39.4902L154.982 814.488M674.121 39.4902L161.974 814.488M681.112 39.4902L168.965 814.488M688.104 39.4902L175.958 814.488M695.098 39.4902L182.951 814.488M702.091 39.4902L189.944 814.488M709.084 39.4902L196.937 814.488M716.077 39.4902L203.93 814.488M723.066 39.4902L210.919 814.488M730.059 39.4902L217.913 814.488M737.052 39.4902L224.906 814.488M744.046 39.4902L231.899 814.488M751.039 39.4902L238.892 814.488M758.032 39.4902L245.885 814.488M765.023 39.4902L252.876 814.488M772.016 39.4902L259.869 814.488M779.009 39.4902L266.862 814.488M786.002 39.4902L273.855 814.488M792.995 39.4902L280.848 814.488M799.988 39.4902L287.842 814.488M298.239 39.4902L-213.908 814.488M292.237 39.4902L-219.91 814.488M305.233 39.4902L-206.914 814.488M312.225 39.4902L-199.922 814.488M319.217 39.4902L-192.929 814.488M326.208 39.4883L-185.939 814.486M333.204 39.4902L-178.943 814.488M340.196 39.4902L-171.951 814.488M347.19 39.4902L-164.957 814.488M354.182 39.4902L-157.965 814.488M361.172 39.4902L-150.974 814.488M368.165 39.4902L-143.982 814.488M375.159 39.4902L-136.988 814.488M382.151 39.4902L-129.996 814.488M389.145 39.4902L-123.002 814.488M396.137 39.4902L-116.01 814.488M403.129 39.4902L-109.017 814.488M410.122 39.4902L-102.025 814.488M417.116 39.4902L-95.031 814.488M424.106 39.4902L-88.0408 814.488M431.1 39.4902L-81.0466 814.488M438.092 39.4902L-74.0544 814.488M445.086 39.4902L-67.0603 814.488M452.079 39.4902L-60.0681 814.488M459.073 39.4902L-53.074 814.488M466.061 39.4902L-46.0857 814.488M473.055 39.4902L-39.0916 814.488M480.047 39.4902L-32.0994 814.488M487.042 39.4902L-25.1052 814.488M494.034 39.4902L-18.113 814.488M501.028 39.4902L-11.1189 814.488M508.018 39.4902L-4.12866 814.488M515.012 39.4902L2.86548 814.488M522.004 39.4902L9.85767 814.488M528.999 39.4902L16.8518 814.488M535.991 39.4902L23.844 814.488M542.985 39.4902L30.8381 814.488M806.979 39.4902L294.833 814.488M813.972 39.4902L301.826 814.488M820.966 39.4902L308.819 814.488M827.957 39.4902L315.81 814.488M834.95 39.4902L322.803 814.488M841.941 39.4902L329.794 814.488M848.934 39.4902L336.787 814.488M855.927 39.4902L343.78 814.488M862.918 39.4902L350.772 814.488M869.912 39.4902L357.765 814.488M876.905 39.4902L364.758 814.488M883.898 39.4902L371.751 814.488M890.891 39.4902L378.744 814.488M897.884 39.4902L385.737 814.488M904.875 39.4902L392.728 814.488M911.868 39.4902L399.721 814.488M918.859 39.4902L406.713 814.488M925.853 39.4902L413.706 814.488M932.846 39.4902L420.699 814.488M939.839 39.4902L427.692 814.488M946.83 39.4902L434.683 814.488M953.823 39.4902L441.676 814.488M960.816 39.4902L448.669 814.488M967.809 39.4902L455.662 814.488M974.802 39.4902L462.656 814.488M981.793 39.4902L469.647 814.488M988.787 39.4902L476.64 814.488M995.78 39.4902L483.633 814.488M1002.77 39.4902L490.624 814.488M1009.76 39.4902L497.617 814.488M1016.76 39.4902L504.61 814.488M1023.75 39.4902L511.603 814.488M1030.74 39.4902L518.597 814.488M1037.74 39.4902L525.59 814.488M1044.73 39.4902L532.583 814.488M1051.72 39.4902L539.574 814.488M1058.71 39.4902L546.565 814.488M1065.71 39.4902L553.56 814.488M1072.7 39.4902L560.55 814.488M1079.69 39.4902L567.545 814.488M1086.68 39.4902L574.537 814.488M1093.67 39.4902L581.528 814.488M1100.67 39.4902L588.523 814.488M1107.66 39.4902L595.514 814.488M1114.65 39.4902L602.505 814.488M1121.65 39.4902L609.5 814.488M1128.64 39.4902L616.492 814.488M1135.63 39.4902L623.483 814.488M1142.62 39.4902L630.478 814.488M1149.62 39.4902L637.469 814.488M1156.61 39.4902L644.464 814.488M1163.6 39.4902L651.456 814.488M1170.59 39.4902L658.447 814.488M1177.58 39.4902L665.438 814.488M1184.58 39.4902L672.433 814.488M1191.57 39.4902L679.424 814.488M1198.57 39.4902L686.419 814.488M1205.56 39.4902L693.411 814.488M1212.55 39.4902L700.406 814.488M1219.54 39.4902L707.397 814.488M1226.54 39.4902L714.392 814.488M1233.53 39.4902L721.383 814.488M1240.52 39.4902L728.374 814.488M1247.52 39.4902L735.369 814.488M1254.51 39.4902L742.361 814.488M1261.5 39.4902L749.352 814.488M1268.49 39.4902L756.347 814.488M1275.48 39.4902L763.338 814.488M1282.48 39.4902L770.329 814.488M1289.47 39.4902L777.324 814.488M1296.46 39.4902L784.316 814.488M1303.45 39.4902L791.307 814.488M1310.45 39.4902L798.302 814.488M1317.44 39.4902L805.293 814.488M1324.43 39.4902L812.284 814.488M1331.43 39.4902L819.28 814.488M1338.42 39.4902L826.271 814.488M1345.41 39.4902L833.266 814.488M1352.4 39.4902L840.257 814.488M1359.4 39.4902L847.252 814.488M1366.39 39.4902L854.243 814.488M1373.39 39.4902L861.238 814.488M1380.38 39.4902L868.23 814.488M1387.37 39.4902L875.221 814.488M1394.36 39.4902L882.212 814.488M1401.35 39.4902L889.207 814.488M1408.35 39.4902L896.198 814.488M1415.34 39.4902L903.19 814.488M1422.33 39.4902L910.185 814.488M1429.32 39.4902L917.176 814.488M1436.31 39.4883L924.167 814.486M1443.31 39.4902L931.162 814.488M1450.3 39.4902L938.153 814.488M1457.3 39.4902L945.148 814.488M1464.29 39.4902L952.14 814.488M1471.28 39.4902L959.131 814.488M1478.27 39.4902L966.126 814.488M1485.26 39.4902L973.117 814.488M1492.26 39.4902L980.112 814.488M1499.25 39.4902L987.104 814.488M1506.25 39.4902L994.099 814.488M1513.23 39.4902L1001.09 814.488M1520.23 39.4902L1008.08 814.488M1527.22 39.4902L1015.07 814.488M1534.21 39.4902L1022.07 814.488M1541.21 39.4902L1029.06 814.488M1548.2 39.4902L1036.05 814.488M1555.19 39.4902L1043.04 814.488M1561.62 39.4902L1049.47 814.488M1568.61 39.4902L1056.46 814.488M1575.6 39.4902L1063.45 814.488M1582.59 39.4902L1070.45 814.488M1589.58 39.4902L1077.44 814.488M1596.58 39.4902L1084.43 814.488M1603.57 39.4902L1091.42 814.488M1610.57 39.4902L1098.42 814.488M1617.56 39.4902L1105.41 814.488M1624.55 39.4902L1112.41 814.488M1631.54 39.4902L1119.4 814.488M1638.54 39.4902L1126.39 814.488M1645.53 39.4902L1133.38 814.488M1652.52 39.4902L1140.37 814.488M1659.52 39.4902L1147.37 814.488M1666.51 39.4902L1154.36 814.488M1673.5 39.4902L1161.35 814.488M1680.49 39.4902L1168.35 814.488M1687.48 39.4902L1175.34 814.488M1694.48 39.4902L1182.33 814.488M1701.47 39.4902L1189.32 814.488M1708.46 39.4902L1196.32 814.488M1715.45 39.4902L1203.31 814.488M1722.45 39.4902L1210.3 814.488M1729.44 39.4902L1217.29 814.488M1736.43 39.4902L1224.28 814.488M1743.43 39.4902L1231.28 814.488M1750.42 39.4902L1238.27 814.488M1757.41 39.4902L1245.27 814.488M1764.4 39.4902L1252.26 814.488M1771.4 39.4902L1259.25 814.488M1778.39 39.4902L1266.24 814.488M1785.38 39.4902L1273.24 814.488M1792.38 39.4902L1280.23 814.488M1799.37 39.4902L1287.22 814.488M1806.36 39.4902L1294.21 814.488M1813.35 39.4902L1301.21 814.488M1820.35 39.4902L1308.2 814.488M1827.34 39.4902L1315.19 814.488M1834.33 39.4902L1322.19 814.488M1841.32 39.4902L1329.18 814.488M1848.31 39.4883L1336.17 814.486M1855.31 39.4902L1343.16 814.488M1862.3 39.4902L1350.15 814.488M1869.29 39.4902L1357.15 814.488M1876.29 39.4902L1364.14 814.488M1883.28 39.4902L1371.13 814.488M1890.27 39.4902L1378.13 814.488M1897.26 39.4902L1385.12 814.488M1904.26 39.4902L1392.11 814.488M1911.25 39.4902L1399.1 814.488M1918.25 39.4902L1406.1 814.488M1925.23 39.4902L1413.09 814.488M1932.23 39.4902L1420.08 814.488M1939.22 39.4902L1427.07 814.488M1946.21 39.4902L1434.07 814.488M1953.21 39.4902L1441.06 814.488M1960.2 39.4902L1448.05 814.488M1967.19 39.4902L1455.04 814.488M1974.3 39.4902L1462.15 814.488M1981.29 39.4902L1469.15 814.488M1988.29 39.4902L1476.14 814.488M1995.28 39.4902L1483.13 814.488M2002.27 39.4902L1490.13 814.488M2009.26 39.4902L1497.12 814.488M2015.3 39.4902L1503.15 814.488M2022.3 39.4902L1510.15 814.488M2029.29 39.4902L1517.14 814.488M2036.28 39.4902L1524.13 814.488M2043.27 39.4902L1531.13 814.488M2050.26 39.4902L1538.12 814.488M1554.38 802.251L1546.42 814.296M2065.21 39.4902L1553.06 814.488M2072.2 39.4902L1560.05 814.488M2079.19 39.4902L1567.04 814.488" stroke="#F3F4F6"/>
</g>
</g>
<rect x="43.5" y="39.5" width="364" height="202" rx="11.5" stroke="#EDEDED" stroke-dasharray="2 2"/>
<rect x="193" y="52" width="66" height="18" rx="4" fill="#969696"/>
<path d="M203 61L236 61" stroke="#CCCCCC" stroke-width="2" stroke-linecap="round"/>
<path fill-rule="evenodd" clip-rule="evenodd" d="M247.705 59.04C247.868 58.8773 248.132 58.8773 248.295 59.04L251.211 61.9567C251.374 62.1194 251.374 62.3832 251.211 62.5459C251.049 62.7086 250.785 62.7086 250.622 62.5459L248 59.9239L245.378 62.5459C245.215 62.7086 244.952 62.7086 244.789 62.5459C244.626 62.3832 244.626 62.1194 244.789 61.9567L247.705 59.04Z" fill="#CCCCCC"/>
<g filter="url(#filter0_dd_586_6296)">
<rect x="177" y="83" width="98" height="146" rx="8" fill="#FBFBFB"/>
<rect x="176.5" y="82.5" width="99" height="147" rx="8.5" stroke="#EDEDED"/>
<rect x="185.5" y="91.5" width="5" height="5" rx="0.5" stroke="#E2E0E0"/>
<rect x="197" y="92" width="41" height="4" rx="2" fill="#E7E7E7"/>
<rect x="185.5" y="105.5" width="5" height="5" rx="0.5" stroke="#E2E0E0"/>
<rect x="197" y="106" width="33" height="4" rx="2" fill="#E7E7E7"/>
<rect x="185.5" y="119.5" width="5" height="5" rx="0.5" stroke="#E2E0E0"/>
<rect x="197" y="120" width="53" height="4" rx="2" fill="#E7E7E7"/>
<rect x="185.5" y="133.5" width="5" height="5" rx="0.5" stroke="#E2E0E0"/>
<rect x="197" y="134" width="42" height="4" rx="2" fill="#E7E7E7"/>
<mask id="path-23-inside-1_586_6296" fill="white">
<path d="M185 149H267V197H185V149Z"/>
</mask>
<path d="M185 149V150H267V149V148H185V149ZM267 197V196H185V197V198H267V197Z" fill="#EDEDED" mask="url(#path-23-inside-1_586_6296)"/>
<path d="M190.554 159.145H189.491C189.461 158.971 189.405 158.816 189.324 158.682C189.242 158.545 189.141 158.43 189.02 158.335C188.899 158.241 188.76 158.17 188.605 158.122C188.452 158.073 188.286 158.048 188.108 158.048C187.792 158.048 187.511 158.128 187.267 158.287C187.023 158.444 186.831 158.675 186.693 158.98C186.555 159.283 186.486 159.653 186.486 160.091C186.486 160.536 186.555 160.911 186.693 161.216C186.833 161.519 187.025 161.748 187.267 161.903C187.511 162.057 187.791 162.134 188.105 162.134C188.279 162.134 188.442 162.111 188.594 162.065C188.747 162.018 188.884 161.949 189.006 161.858C189.129 161.767 189.232 161.655 189.315 161.523C189.401 161.39 189.459 161.239 189.491 161.068L190.554 161.074C190.514 161.35 190.428 161.61 190.295 161.852C190.165 162.095 189.993 162.309 189.781 162.494C189.569 162.678 189.321 162.822 189.037 162.926C188.753 163.028 188.438 163.08 188.091 163.08C187.58 163.08 187.123 162.961 186.722 162.724C186.32 162.488 186.004 162.146 185.773 161.699C185.542 161.252 185.426 160.716 185.426 160.091C185.426 159.464 185.543 158.928 185.776 158.483C186.009 158.036 186.326 157.694 186.727 157.457C187.129 157.221 187.583 157.102 188.091 157.102C188.415 157.102 188.716 157.148 188.994 157.239C189.273 157.33 189.521 157.463 189.739 157.639C189.956 157.813 190.135 158.027 190.276 158.281C190.418 158.533 190.51 158.821 190.554 159.145ZM194.255 161.165V158.636H195.283V163H194.286V162.224H194.241C194.142 162.469 193.98 162.669 193.755 162.824C193.531 162.979 193.256 163.057 192.928 163.057C192.642 163.057 192.389 162.993 192.17 162.866C191.952 162.738 191.781 162.551 191.658 162.307C191.535 162.061 191.474 161.763 191.474 161.415V158.636H192.502V161.256C192.502 161.532 192.578 161.752 192.729 161.915C192.881 162.078 193.08 162.159 193.326 162.159C193.478 162.159 193.624 162.122 193.766 162.048C193.908 161.974 194.025 161.865 194.116 161.719C194.209 161.571 194.255 161.386 194.255 161.165ZM199.79 159.79L198.852 159.892C198.826 159.797 198.779 159.708 198.713 159.625C198.649 159.542 198.562 159.474 198.452 159.423C198.342 159.372 198.207 159.347 198.048 159.347C197.834 159.347 197.654 159.393 197.509 159.486C197.365 159.579 197.294 159.699 197.295 159.847C197.294 159.973 197.34 160.077 197.435 160.156C197.531 160.236 197.69 160.301 197.912 160.352L198.656 160.511C199.069 160.6 199.376 160.741 199.577 160.935C199.779 161.128 199.882 161.381 199.884 161.693C199.882 161.968 199.801 162.21 199.642 162.42C199.485 162.629 199.266 162.792 198.986 162.909C198.705 163.027 198.384 163.085 198.02 163.085C197.486 163.085 197.056 162.973 196.73 162.75C196.404 162.525 196.21 162.211 196.148 161.81L197.151 161.713C197.196 161.91 197.293 162.059 197.44 162.159C197.588 162.259 197.78 162.31 198.017 162.31C198.261 162.31 198.457 162.259 198.605 162.159C198.755 162.059 198.83 161.935 198.83 161.787C198.83 161.662 198.781 161.559 198.685 161.477C198.59 161.396 198.442 161.333 198.241 161.29L197.497 161.134C197.079 161.046 196.769 160.9 196.568 160.693C196.367 160.485 196.268 160.222 196.27 159.903C196.268 159.634 196.341 159.402 196.489 159.205C196.638 159.006 196.846 158.852 197.111 158.744C197.378 158.634 197.686 158.58 198.034 158.58C198.545 158.58 198.948 158.688 199.241 158.906C199.537 159.124 199.72 159.419 199.79 159.79ZM202.911 158.636V159.432H200.402V158.636H202.911ZM201.021 157.591H202.05V161.688C202.05 161.826 202.071 161.932 202.112 162.006C202.156 162.078 202.213 162.127 202.283 162.153C202.353 162.18 202.43 162.193 202.516 162.193C202.58 162.193 202.639 162.188 202.692 162.179C202.747 162.17 202.788 162.161 202.817 162.153L202.99 162.957C202.935 162.976 202.857 162.997 202.754 163.02C202.654 163.043 202.531 163.056 202.385 163.06C202.127 163.067 201.895 163.028 201.689 162.943C201.482 162.856 201.319 162.722 201.197 162.54C201.078 162.358 201.019 162.131 201.021 161.858V157.591ZM205.627 163.085C205.201 163.085 204.832 162.991 204.519 162.804C204.207 162.616 203.964 162.354 203.792 162.017C203.621 161.68 203.536 161.286 203.536 160.835C203.536 160.384 203.621 159.99 203.792 159.651C203.964 159.312 204.207 159.048 204.519 158.861C204.832 158.673 205.201 158.58 205.627 158.58C206.053 158.58 206.423 158.673 206.735 158.861C207.048 159.048 207.289 159.312 207.46 159.651C207.632 159.99 207.718 160.384 207.718 160.835C207.718 161.286 207.632 161.68 207.46 162.017C207.289 162.354 207.048 162.616 206.735 162.804C206.423 162.991 206.053 163.085 205.627 163.085ZM205.633 162.261C205.864 162.261 206.057 162.198 206.212 162.071C206.368 161.942 206.483 161.77 206.559 161.554C206.637 161.338 206.675 161.098 206.675 160.832C206.675 160.565 206.637 160.324 206.559 160.108C206.483 159.89 206.368 159.717 206.212 159.588C206.057 159.459 205.864 159.395 205.633 159.395C205.396 159.395 205.199 159.459 205.042 159.588C204.887 159.717 204.77 159.89 204.692 160.108C204.617 160.324 204.579 160.565 204.579 160.832C204.579 161.098 204.617 161.338 204.692 161.554C204.77 161.77 204.887 161.942 205.042 162.071C205.199 162.198 205.396 162.261 205.633 162.261ZM208.591 163V158.636H209.574V159.378H209.625C209.716 159.128 209.866 158.933 210.077 158.793C210.287 158.651 210.538 158.58 210.83 158.58C211.125 158.58 211.374 158.652 211.577 158.795C211.781 158.937 211.925 159.132 212.009 159.378H212.054C212.151 159.135 212.313 158.942 212.543 158.798C212.774 158.652 213.047 158.58 213.364 158.58C213.765 158.58 214.093 158.706 214.347 158.96C214.6 159.214 214.727 159.584 214.727 160.071V163H213.696V160.23C213.696 159.959 213.624 159.761 213.48 159.636C213.336 159.509 213.16 159.446 212.952 159.446C212.704 159.446 212.509 159.524 212.369 159.679C212.231 159.832 212.162 160.032 212.162 160.278V163H211.153V160.188C211.153 159.962 211.085 159.782 210.949 159.648C210.814 159.513 210.638 159.446 210.42 159.446C210.273 159.446 210.138 159.484 210.017 159.56C209.896 159.634 209.799 159.739 209.727 159.875C209.655 160.009 209.619 160.167 209.619 160.347V163H208.591ZM217.755 163V158.636H218.752V159.364H218.798C218.877 159.112 219.013 158.918 219.207 158.781C219.402 158.643 219.624 158.574 219.874 158.574C219.931 158.574 219.995 158.577 220.065 158.582C220.137 158.586 220.196 158.593 220.244 158.602V159.548C220.2 159.533 220.131 159.52 220.036 159.509C219.943 159.495 219.853 159.489 219.766 159.489C219.579 159.489 219.41 159.529 219.261 159.611C219.113 159.69 218.996 159.801 218.911 159.943C218.826 160.085 218.783 160.249 218.783 160.435V163H217.755ZM222.104 163.088C221.828 163.088 221.579 163.039 221.357 162.94C221.138 162.84 220.963 162.692 220.835 162.497C220.708 162.302 220.644 162.062 220.644 161.776C220.644 161.529 220.69 161.326 220.781 161.165C220.871 161.004 220.996 160.875 221.153 160.778C221.31 160.682 221.487 160.609 221.684 160.56C221.883 160.509 222.088 160.472 222.3 160.449C222.556 160.422 222.763 160.399 222.923 160.378C223.082 160.355 223.197 160.321 223.269 160.276C223.343 160.228 223.38 160.155 223.38 160.057V160.04C223.38 159.826 223.317 159.66 223.19 159.543C223.063 159.425 222.88 159.366 222.641 159.366C222.389 159.366 222.19 159.421 222.042 159.531C221.896 159.641 221.798 159.771 221.746 159.92L220.786 159.784C220.862 159.519 220.987 159.297 221.161 159.119C221.335 158.939 221.549 158.805 221.8 158.716C222.052 158.625 222.331 158.58 222.636 158.58C222.846 158.58 223.055 158.604 223.263 158.653C223.472 158.703 223.662 158.784 223.835 158.898C224.007 159.009 224.145 159.162 224.249 159.355C224.355 159.548 224.408 159.79 224.408 160.08V163H223.42V162.401H223.386C223.323 162.522 223.235 162.635 223.121 162.741C223.01 162.846 222.869 162.93 222.698 162.994C222.53 163.057 222.332 163.088 222.104 163.088ZM222.371 162.332C222.578 162.332 222.757 162.292 222.908 162.21C223.06 162.127 223.176 162.017 223.258 161.881C223.341 161.744 223.383 161.596 223.383 161.435V160.92C223.351 160.947 223.296 160.972 223.218 160.994C223.142 161.017 223.057 161.037 222.962 161.054C222.868 161.071 222.774 161.086 222.681 161.099C222.588 161.113 222.508 161.124 222.44 161.134C222.286 161.154 222.149 161.188 222.028 161.236C221.906 161.283 221.811 161.349 221.741 161.435C221.671 161.518 221.636 161.626 221.636 161.759C221.636 161.948 221.705 162.091 221.843 162.188C221.981 162.284 222.157 162.332 222.371 162.332ZM226.471 160.443V163H225.442V158.636H226.425V159.378H226.477C226.577 159.134 226.737 158.939 226.957 158.795C227.178 158.652 227.452 158.58 227.778 158.58C228.079 158.58 228.341 158.644 228.565 158.773C228.79 158.902 228.964 159.088 229.087 159.332C229.212 159.577 229.274 159.873 229.272 160.222V163H228.244V160.381C228.244 160.089 228.168 159.861 228.016 159.696C227.867 159.531 227.659 159.449 227.394 159.449C227.214 159.449 227.054 159.489 226.914 159.568C226.776 159.646 226.667 159.759 226.587 159.906C226.51 160.054 226.471 160.233 226.471 160.443ZM232.215 164.727C231.846 164.727 231.529 164.677 231.263 164.577C230.998 164.478 230.785 164.346 230.624 164.179C230.463 164.012 230.352 163.828 230.289 163.625L231.215 163.401C231.257 163.486 231.317 163.57 231.397 163.653C231.477 163.739 231.584 163.809 231.718 163.864C231.854 163.92 232.026 163.949 232.232 163.949C232.524 163.949 232.765 163.878 232.957 163.736C233.148 163.596 233.244 163.365 233.244 163.043V162.216H233.192C233.139 162.322 233.062 162.431 232.96 162.543C232.859 162.654 232.726 162.748 232.559 162.824C232.394 162.9 232.187 162.938 231.937 162.938C231.602 162.938 231.298 162.859 231.025 162.702C230.754 162.543 230.538 162.306 230.377 161.991C230.218 161.675 230.138 161.279 230.138 160.804C230.138 160.325 230.218 159.92 230.377 159.591C230.538 159.259 230.755 159.009 231.028 158.838C231.3 158.666 231.604 158.58 231.94 158.58C232.195 158.58 232.406 158.623 232.57 158.71C232.737 158.795 232.87 158.899 232.968 159.02C233.067 159.139 233.141 159.252 233.192 159.358H233.249V158.636H234.263V163.071C234.263 163.444 234.174 163.753 233.996 163.997C233.818 164.241 233.575 164.424 233.266 164.545C232.958 164.667 232.607 164.727 232.215 164.727ZM232.224 162.131C232.442 162.131 232.627 162.078 232.781 161.972C232.934 161.866 233.05 161.713 233.13 161.514C233.21 161.315 233.249 161.077 233.249 160.798C233.249 160.524 233.21 160.283 233.13 160.077C233.052 159.87 232.937 159.71 232.783 159.597C232.632 159.481 232.445 159.423 232.224 159.423C231.995 159.423 231.803 159.483 231.65 159.602C231.496 159.722 231.381 159.885 231.303 160.094C231.226 160.3 231.187 160.535 231.187 160.798C231.187 161.065 231.226 161.299 231.303 161.5C231.383 161.699 231.499 161.854 231.653 161.966C231.808 162.076 231.998 162.131 232.224 162.131ZM237.249 163.085C236.812 163.085 236.434 162.994 236.116 162.812C235.799 162.629 235.556 162.369 235.386 162.034C235.215 161.697 235.13 161.3 235.13 160.844C235.13 160.395 235.215 160.001 235.386 159.662C235.558 159.321 235.799 159.056 236.107 158.866C236.416 158.675 236.779 158.58 237.195 158.58C237.464 158.58 237.718 158.623 237.957 158.71C238.197 158.795 238.409 158.928 238.593 159.108C238.779 159.288 238.924 159.517 239.031 159.795C239.137 160.072 239.19 160.402 239.19 160.784V161.099H235.613V160.406H238.204C238.202 160.209 238.159 160.034 238.076 159.881C237.993 159.725 237.876 159.603 237.727 159.514C237.579 159.425 237.406 159.381 237.21 159.381C236.999 159.381 236.815 159.432 236.656 159.534C236.496 159.634 236.372 159.767 236.283 159.932C236.196 160.095 236.152 160.274 236.15 160.469V161.074C236.15 161.328 236.196 161.545 236.289 161.727C236.382 161.907 236.512 162.045 236.678 162.142C236.845 162.237 237.04 162.284 237.263 162.284C237.413 162.284 237.549 162.263 237.67 162.222C237.791 162.178 237.896 162.115 237.985 162.031C238.074 161.948 238.141 161.845 238.187 161.722L239.147 161.83C239.086 162.083 238.971 162.305 238.8 162.494C238.632 162.682 238.416 162.828 238.153 162.932C237.889 163.034 237.588 163.085 237.249 163.085Z" fill="#525252"/>
<rect x="184.5" y="174.5" width="38" height="15" rx="4.5" fill="#FDFDFD"/>
<rect x="184.5" y="174.5" width="38" height="15" rx="4.5" stroke="#E7E7E7"/>
<rect x="193" y="181" width="14" height="2" rx="1" fill="#E7E7E7"/>
<rect x="229.5" y="174.5" width="38" height="15" rx="4.5" fill="#FDFDFD"/>
<rect x="229.5" y="174.5" width="38" height="15" rx="4.5" stroke="#E7E7E7"/>
<rect x="238" y="181" width="14" height="2" rx="1" fill="#E7E7E7"/>
<rect x="185" y="207" width="37" height="14" rx="4" fill="#303030"/>
<path d="M195.5 214H211.5" stroke="white" stroke-width="2" stroke-linecap="round"/>
<rect x="230.5" y="207.5" width="36" height="13" rx="3.5" stroke="#CCCCCC"/>
<path d="M240.5 214H256.5" stroke="#CCCCCC" stroke-width="2" stroke-linecap="round"/>
</g>
</g>
</g>
<defs>
<filter id="filter0_dd_586_6296" x="171" y="81" width="110" height="158" filterUnits="userSpaceOnUse" color-interpolation-filters="sRGB">
<feFlood flood-opacity="0" result="BackgroundImageFix"/>
<feColorMatrix in="SourceAlpha" type="matrix" values="0 0 0 0 0 0 0 0 0 0 0 0 0 0 0 0 0 0 127 0" result="hardAlpha"/>
<feMorphology radius="2" operator="erode" in="SourceAlpha" result="effect1_dropShadow_586_6296"/>
<feOffset dy="2"/>
<feGaussianBlur stdDeviation="2"/>
<feColorMatrix type="matrix" values="0 0 0 0 0 0 0 0 0 0 0 0 0 0 0 0 0 0 0.05 0"/>
<feBlend mode="normal" in2="BackgroundImageFix" result="effect1_dropShadow_586_6296"/>
<feColorMatrix in="SourceAlpha" type="matrix" values="0 0 0 0 0 0 0 0 0 0 0 0 0 0 0 0 0 0 127 0" result="hardAlpha"/>
<feMorphology radius="1" operator="erode" in="SourceAlpha" result="effect2_dropShadow_586_6296"/>
<feOffset dy="4"/>
<feGaussianBlur stdDeviation="3"/>
<feColorMatrix type="matrix" values="0 0 0 0 0 0 0 0 0 0 0 0 0 0 0 0 0 0 0.1 0"/>
<feBlend mode="normal" in2="effect1_dropShadow_586_6296" result="effect2_dropShadow_586_6296"/>
<feBlend mode="normal" in="SourceGraphic" in2="effect2_dropShadow_586_6296" result="shape"/>
</filter>
<clipPath id="clip0_586_6296">
<rect width="451.33" height="281" fill="white"/>
</clipPath>
<clipPath id="clip1_586_6296">
<rect width="365" height="203" fill="white" transform="translate(43 39)"/>
</clipPath>
<clipPath id="clip2_586_6296">
<rect x="43" y="39" width="365" height="203" rx="12" fill="white"/>
</clipPath>
<clipPath id="clip3_586_6296">
<rect width="1512" height="775.077" fill="white" transform="translate(43 39)"/>
</clipPath>
</defs>
</svg>
