<svg width="452" height="281" viewBox="0 0 452 281" fill="none" xmlns="http://www.w3.org/2000/svg">
<g clip-path="url(#clip0_672_2967)">
<path d="M451.33 0H0V281H451.33V0Z" fill="#F4F4F6"/>
<path d="M33.8496 0V281" stroke="#E2E2E6" stroke-width="0.8"/>
<path d="M417.48 0V281" stroke="#E2E2E6" stroke-width="0.8"/>
<path d="M0 31.6125H451.33" stroke="#E2E2E6" stroke-width="0.8"/>
<path d="M0 249.387H451.33" stroke="#E2E2E6" stroke-width="0.8"/>
<rect x="33.5" y="29.5" width="384" height="222" rx="11.5" fill="white"/>
<rect x="33.5" y="29.5" width="384" height="222" rx="11.5" stroke="#E2E0E0"/>
<path d="M62.4286 49H55.5714C54.1513 49 53 50.1513 53 51.5714V58.4286C53 59.8487 54.1513 61 55.5714 61H62.4286C63.8487 61 65 59.8487 65 58.4286V51.5714C65 50.1513 63.8487 49 62.4286 49Z" fill="#303030"/>
<path d="M56.0996 53.6006L58.671 55.0292L56.0996 56.4577" stroke="white" stroke-linecap="round" stroke-linejoin="round"/>
<path d="M59.3848 56.4562H61.8133" stroke="white" stroke-linecap="round"/>
<path d="M70.2841 53.196V52.1818H75.0625V53.196H73.2812V58H72.0653V53.196H70.2841ZM76.0739 59.6364C75.9205 59.6364 75.7765 59.6241 75.642 59.5994C75.5095 59.5767 75.3996 59.5473 75.3125 59.5114L75.5852 58.608C75.7273 58.6515 75.8551 58.6752 75.9688 58.679C76.0843 58.6828 76.1837 58.6563 76.267 58.5994C76.3523 58.5426 76.4214 58.446 76.4744 58.3097L76.5455 58.125L74.9801 53.6364H76.2528L77.1562 56.8409H77.2017L78.1136 53.6364H79.3949L77.6989 58.4716C77.6174 58.7064 77.5066 58.911 77.3665 59.0852C77.2282 59.2614 77.053 59.3968 76.8409 59.4915C76.6288 59.5881 76.3731 59.6364 76.0739 59.6364ZM80.0142 59.6364V53.6364H81.2074V54.3693H81.2614C81.3144 54.2519 81.3911 54.1326 81.4915 54.0114C81.5938 53.8883 81.7263 53.786 81.8892 53.7045C82.054 53.6212 82.2585 53.5795 82.5028 53.5795C82.821 53.5795 83.1146 53.6629 83.3835 53.8295C83.6525 53.9943 83.8674 54.2434 84.0284 54.5767C84.1894 54.9081 84.2699 55.3239 84.2699 55.8239C84.2699 56.3106 84.1913 56.7216 84.0341 57.0568C83.8788 57.3902 83.6667 57.643 83.3977 57.8153C83.1307 57.9858 82.8314 58.071 82.5 58.071C82.2652 58.071 82.0653 58.0322 81.9006 57.9545C81.7377 57.8769 81.6042 57.7794 81.5 57.6619C81.3958 57.5426 81.3163 57.4223 81.2614 57.3011H81.2244V59.6364H80.0142ZM81.1989 55.8182C81.1989 56.0777 81.2348 56.304 81.3068 56.4972C81.3788 56.6903 81.483 56.8409 81.6193 56.9489C81.7557 57.0549 81.9214 57.108 82.1165 57.108C82.3134 57.108 82.4801 57.054 82.6165 56.946C82.7528 56.8362 82.8561 56.6847 82.9261 56.4915C82.9981 56.2964 83.0341 56.072 83.0341 55.8182C83.0341 55.5663 82.9991 55.3447 82.929 55.1534C82.8589 54.9621 82.7557 54.8125 82.6193 54.7045C82.483 54.5966 82.3153 54.5426 82.1165 54.5426C81.9195 54.5426 81.7528 54.5947 81.6165 54.6989C81.482 54.803 81.3788 54.9508 81.3068 55.142C81.2348 55.3333 81.1989 55.5587 81.1989 55.8182ZM87.0653 58.0852C86.6165 58.0852 86.2301 57.9943 85.9062 57.8125C85.5843 57.6288 85.3362 57.3693 85.1619 57.0341C84.9877 56.697 84.9006 56.2983 84.9006 55.8381C84.9006 55.3892 84.9877 54.9953 85.1619 54.6562C85.3362 54.3172 85.5814 54.053 85.8977 53.8636C86.2159 53.6742 86.589 53.5795 87.017 53.5795C87.3049 53.5795 87.5729 53.6259 87.821 53.7188C88.071 53.8097 88.2888 53.947 88.4744 54.1307C88.6619 54.3144 88.8078 54.5455 88.9119 54.8239C89.0161 55.1004 89.0682 55.4242 89.0682 55.7955V56.1278H85.3835V55.3778H87.929C87.929 55.2036 87.8911 55.0492 87.8153 54.9148C87.7396 54.7803 87.6345 54.6752 87.5 54.5994C87.3674 54.5218 87.2131 54.483 87.0369 54.483C86.8532 54.483 86.6903 54.5256 86.5483 54.6108C86.4081 54.6941 86.2983 54.8068 86.2188 54.9489C86.1392 55.089 86.0985 55.2453 86.0966 55.4176V56.1307C86.0966 56.3466 86.1364 56.5331 86.2159 56.6903C86.2973 56.8475 86.4119 56.9688 86.5597 57.054C86.7074 57.1392 86.8826 57.1818 87.0852 57.1818C87.2197 57.1818 87.3428 57.1629 87.4545 57.125C87.5663 57.0871 87.6619 57.0303 87.7415 56.9545C87.821 56.8788 87.8816 56.786 87.9233 56.6761L89.0426 56.75C88.9858 57.0189 88.8693 57.2538 88.6932 57.4545C88.5189 57.6534 88.2936 57.8087 88.017 57.9205C87.7424 58.0303 87.4252 58.0852 87.0653 58.0852ZM93.4744 52.1818H94.7045V55.9602C94.7045 56.3845 94.6032 56.7557 94.4006 57.0739C94.1998 57.392 93.9186 57.6402 93.5568 57.8182C93.1951 57.9943 92.7737 58.0824 92.2926 58.0824C91.8097 58.0824 91.3873 57.9943 91.0256 57.8182C90.6638 57.6402 90.3826 57.392 90.1818 57.0739C89.9811 56.7557 89.8807 56.3845 89.8807 55.9602V52.1818H91.1108V55.8551C91.1108 56.0767 91.1591 56.2737 91.2557 56.446C91.3542 56.6184 91.4924 56.7538 91.6705 56.8523C91.8485 56.9508 92.0559 57 92.2926 57C92.5313 57 92.7386 56.9508 92.9148 56.8523C93.0928 56.7538 93.2301 56.6184 93.3267 56.446C93.4252 56.2737 93.4744 56.0767 93.4744 55.8551V52.1818ZM96.9467 52.1818V58H95.7166V52.1818H96.9467Z" fill="#525252"/>
<path d="M109.286 53.1364H109.946V56.0064C109.946 56.3118 109.874 56.5824 109.731 56.8182C109.587 57.0526 109.386 57.2372 109.126 57.3722C108.866 57.5057 108.561 57.5724 108.212 57.5724C107.864 57.5724 107.56 57.5057 107.3 57.3722C107.04 57.2372 106.838 57.0526 106.695 56.8182C106.551 56.5824 106.479 56.3118 106.479 56.0064V53.1364H107.138V55.9531C107.138 56.1506 107.181 56.326 107.268 56.4794C107.356 56.6328 107.48 56.7536 107.641 56.8416C107.801 56.9283 107.991 56.9716 108.212 56.9716C108.433 56.9716 108.624 56.9283 108.785 56.8416C108.947 56.7536 109.07 56.6328 109.156 56.4794C109.242 56.326 109.286 56.1506 109.286 55.9531V53.1364ZM111.489 55.5568V57.5H110.852V54.2273H111.464V54.7599H111.504C111.579 54.5866 111.697 54.4474 111.858 54.3423C112.02 54.2372 112.224 54.1847 112.469 54.1847C112.692 54.1847 112.888 54.2315 113.055 54.3253C113.223 54.4176 113.353 54.5554 113.445 54.7386C113.537 54.9219 113.584 55.1484 113.584 55.4183V57.5H112.947V55.495C112.947 55.2578 112.885 55.0724 112.761 54.9389C112.638 54.804 112.468 54.7365 112.252 54.7365C112.104 54.7365 111.973 54.7685 111.858 54.8324C111.744 54.8963 111.654 54.9901 111.587 55.1136C111.522 55.2358 111.489 55.3835 111.489 55.5568ZM114.438 57.5V54.2273H115.075V57.5H114.438ZM114.76 53.7223C114.649 53.7223 114.554 53.6854 114.474 53.6115C114.396 53.5362 114.357 53.4467 114.357 53.343C114.357 53.2379 114.396 53.1484 114.474 53.0746C114.554 52.9993 114.649 52.9616 114.76 52.9616C114.871 52.9616 114.965 52.9993 115.043 53.0746C115.123 53.1484 115.162 53.2379 115.162 53.343C115.162 53.4467 115.123 53.5362 115.043 53.6115C114.965 53.6854 114.871 53.7223 114.76 53.7223ZM117.46 54.2273V54.7386H115.672V54.2273H117.46ZM116.152 53.4432H116.789V56.5391C116.789 56.6626 116.807 56.7557 116.844 56.8182C116.881 56.8793 116.929 56.9212 116.987 56.9439C117.047 56.9652 117.111 56.9759 117.181 56.9759C117.232 56.9759 117.277 56.9723 117.315 56.9652C117.353 56.9581 117.383 56.9524 117.404 56.9482L117.52 57.4744C117.483 57.4886 117.43 57.5028 117.362 57.517C117.294 57.5327 117.208 57.5412 117.106 57.5426C116.939 57.5455 116.782 57.5156 116.637 57.4531C116.493 57.3906 116.375 57.294 116.286 57.1634C116.196 57.0327 116.152 56.8686 116.152 56.6712V53.4432ZM119.54 57.5661C119.218 57.5661 118.94 57.4972 118.707 57.3594C118.475 57.2202 118.296 57.0249 118.17 56.7734C118.045 56.5206 117.982 56.2244 117.982 55.8849C117.982 55.5497 118.045 55.2543 118.17 54.9986C118.296 54.7429 118.472 54.5433 118.698 54.3999C118.926 54.2564 119.191 54.1847 119.495 54.1847C119.68 54.1847 119.859 54.2152 120.032 54.2763C120.205 54.3374 120.361 54.4332 120.499 54.5639C120.637 54.6946 120.745 54.8643 120.825 55.0732C120.904 55.2805 120.944 55.5327 120.944 55.8295V56.0554H118.343V55.5781H120.32C120.32 55.4105 120.286 55.2621 120.218 55.1328C120.149 55.0021 120.053 54.8991 119.93 54.8239C119.808 54.7486 119.664 54.7109 119.499 54.7109C119.32 54.7109 119.164 54.755 119.031 54.843C118.899 54.9297 118.796 55.0433 118.724 55.1839C118.653 55.3232 118.617 55.4744 118.617 55.6378V56.0107C118.617 56.2294 118.656 56.4155 118.732 56.5689C118.811 56.7223 118.919 56.8395 119.058 56.9205C119.198 57 119.36 57.0398 119.546 57.0398C119.667 57.0398 119.777 57.0227 119.877 56.9886C119.976 56.9531 120.062 56.9006 120.134 56.831C120.207 56.7614 120.262 56.6754 120.301 56.5732L120.904 56.6818C120.855 56.8594 120.769 57.0149 120.644 57.1484C120.52 57.2805 120.365 57.3835 120.177 57.4574C119.991 57.5298 119.779 57.5661 119.54 57.5661ZM122.876 57.5639C122.612 57.5639 122.376 57.4964 122.169 57.3615C121.963 57.2251 121.801 57.0312 121.683 56.7798C121.566 56.527 121.508 56.2237 121.508 55.87C121.508 55.5163 121.567 55.2138 121.685 54.9624C121.804 54.7109 121.968 54.5185 122.175 54.3849C122.382 54.2514 122.618 54.1847 122.88 54.1847C123.083 54.1847 123.247 54.2188 123.37 54.2869C123.495 54.3537 123.592 54.4318 123.66 54.5213C123.73 54.6108 123.784 54.6896 123.822 54.7578H123.86V53.1364H124.498V57.5H123.875V56.9908H123.822C123.784 57.0604 123.728 57.1399 123.656 57.2294C123.585 57.3189 123.487 57.397 123.362 57.4638C123.237 57.5305 123.075 57.5639 122.876 57.5639ZM123.017 57.0206C123.2 57.0206 123.355 56.9723 123.481 56.8757C123.609 56.7777 123.706 56.642 123.771 56.4688C123.838 56.2955 123.871 56.0937 123.871 55.8636C123.871 55.6364 123.838 55.4375 123.773 55.267C123.708 55.0966 123.612 54.9638 123.485 54.8686C123.359 54.7734 123.203 54.7259 123.017 54.7259C122.825 54.7259 122.665 54.7756 122.537 54.875C122.409 54.9744 122.313 55.1101 122.248 55.282C122.184 55.4538 122.152 55.6477 122.152 55.8636C122.152 56.0824 122.184 56.2791 122.25 56.4538C122.315 56.6286 122.412 56.767 122.539 56.8693C122.669 56.9702 122.828 57.0206 123.017 57.0206ZM129.426 54.2827C129.403 54.081 129.309 53.9247 129.145 53.8139C128.98 53.7017 128.772 53.6456 128.522 53.6456C128.343 53.6456 128.189 53.674 128.058 53.7308C127.927 53.7862 127.826 53.8629 127.753 53.9609C127.682 54.0575 127.647 54.1676 127.647 54.2912C127.647 54.3949 127.671 54.4844 127.719 54.5597C127.769 54.6349 127.833 54.6982 127.913 54.7493C127.994 54.799 128.081 54.8409 128.173 54.875C128.265 54.9077 128.354 54.9347 128.439 54.956L128.865 55.0668C129.005 55.1009 129.147 55.147 129.294 55.2053C129.44 55.2635 129.576 55.3402 129.701 55.4354C129.826 55.5305 129.926 55.6484 130.003 55.7891C130.081 55.9297 130.12 56.098 130.12 56.294C130.12 56.5412 130.056 56.7607 129.929 56.9524C129.802 57.1442 129.618 57.2955 129.377 57.4062C129.137 57.517 128.846 57.5724 128.505 57.5724C128.179 57.5724 127.896 57.5206 127.657 57.4169C127.419 57.3132 127.232 57.1662 127.097 56.9759C126.962 56.7841 126.887 56.5568 126.873 56.294H127.534C127.547 56.4517 127.598 56.5831 127.687 56.6882C127.778 56.7919 127.894 56.8693 128.034 56.9205C128.176 56.9702 128.332 56.995 128.501 56.995C128.687 56.995 128.853 56.9659 128.998 56.9077C129.144 56.848 129.259 56.7656 129.343 56.6605C129.426 56.554 129.468 56.4297 129.468 56.2876C129.468 56.1584 129.431 56.0526 129.358 55.9702C129.285 55.8878 129.186 55.8196 129.061 55.7656C128.938 55.7116 128.798 55.6641 128.642 55.6229L128.126 55.4822C127.777 55.3871 127.5 55.2472 127.295 55.0625C127.092 54.8778 126.99 54.6335 126.99 54.3295C126.99 54.0781 127.059 53.8587 127.195 53.6712C127.331 53.4837 127.516 53.3381 127.749 53.2344C127.982 53.1293 128.245 53.0767 128.537 53.0767C128.833 53.0767 129.093 53.1286 129.319 53.2322C129.547 53.3359 129.725 53.4787 129.856 53.6605C129.987 53.8409 130.055 54.0483 130.061 54.2827H129.426ZM132.384 54.2273V54.7386H130.596V54.2273H132.384ZM131.075 53.4432H131.713V56.5391C131.713 56.6626 131.731 56.7557 131.768 56.8182C131.805 56.8793 131.852 56.9212 131.911 56.9439C131.97 56.9652 132.035 56.9759 132.105 56.9759C132.156 56.9759 132.2 56.9723 132.239 56.9652C132.277 56.9581 132.307 56.9524 132.328 56.9482L132.443 57.4744C132.406 57.4886 132.354 57.5028 132.286 57.517C132.218 57.5327 132.132 57.5412 132.03 57.5426C131.862 57.5455 131.706 57.5156 131.561 57.4531C131.416 57.3906 131.299 57.294 131.21 57.1634C131.12 57.0327 131.075 56.8686 131.075 56.6712V53.4432ZM134.041 57.5724C133.833 57.5724 133.646 57.5341 133.478 57.4574C133.311 57.3793 133.178 57.2663 133.08 57.1186C132.983 56.9709 132.935 56.7898 132.935 56.5753C132.935 56.3906 132.971 56.2386 133.042 56.1193C133.113 56 133.208 55.9055 133.329 55.8359C133.45 55.7663 133.585 55.7138 133.734 55.6783C133.883 55.6428 134.035 55.6158 134.19 55.5973C134.386 55.5746 134.545 55.5561 134.667 55.5419C134.789 55.5263 134.878 55.5014 134.934 55.4673C134.989 55.4332 135.017 55.3778 135.017 55.3011V55.2862C135.017 55.1001 134.964 54.956 134.859 54.8537C134.755 54.7514 134.6 54.7003 134.395 54.7003C134.18 54.7003 134.011 54.7479 133.887 54.843C133.765 54.9368 133.681 55.0412 133.634 55.1562L133.035 55.0199C133.106 54.821 133.21 54.6605 133.346 54.5384C133.484 54.4148 133.642 54.3253 133.821 54.2699C134 54.2131 134.189 54.1847 134.386 54.1847C134.517 54.1847 134.655 54.2003 134.801 54.2315C134.949 54.2614 135.087 54.3168 135.215 54.3977C135.344 54.4787 135.45 54.5945 135.532 54.745C135.615 54.8942 135.656 55.0881 135.656 55.3267V57.5H135.034V57.0526H135.008C134.967 57.1349 134.905 57.2159 134.823 57.2955C134.74 57.375 134.635 57.4411 134.505 57.4936C134.376 57.5462 134.221 57.5724 134.041 57.5724ZM134.179 57.0611C134.355 57.0611 134.506 57.0263 134.631 56.9567C134.757 56.8871 134.853 56.7962 134.919 56.6839C134.985 56.5703 135.019 56.4489 135.019 56.3196V55.8977C134.996 55.9205 134.952 55.9418 134.887 55.9616C134.823 55.9801 134.75 55.9964 134.667 56.0107C134.585 56.0234 134.505 56.0355 134.426 56.0469C134.348 56.0568 134.283 56.0653 134.23 56.0724C134.107 56.0881 133.994 56.1143 133.892 56.1513C133.791 56.1882 133.71 56.2415 133.649 56.3111C133.589 56.3793 133.559 56.4702 133.559 56.5838C133.559 56.7415 133.618 56.8608 133.734 56.9418C133.85 57.0213 133.999 57.0611 134.179 57.0611ZM138.032 54.2273V54.7386H136.244V54.2273H138.032ZM136.724 53.4432H137.361V56.5391C137.361 56.6626 137.379 56.7557 137.416 56.8182C137.453 56.8793 137.501 56.9212 137.559 56.9439C137.619 56.9652 137.683 56.9759 137.753 56.9759C137.804 56.9759 137.849 56.9723 137.887 56.9652C137.926 56.9581 137.955 56.9524 137.977 56.9482L138.092 57.4744C138.055 57.4886 138.002 57.5028 137.934 57.517C137.866 57.5327 137.781 57.5412 137.678 57.5426C137.511 57.5455 137.355 57.5156 137.21 57.4531C137.065 57.3906 136.948 57.294 136.858 57.1634C136.769 57.0327 136.724 56.8686 136.724 56.6712V53.4432ZM140.112 57.5661C139.79 57.5661 139.512 57.4972 139.279 57.3594C139.048 57.2202 138.869 57.0249 138.742 56.7734C138.617 56.5206 138.555 56.2244 138.555 55.8849C138.555 55.5497 138.617 55.2543 138.742 54.9986C138.869 54.7429 139.045 54.5433 139.271 54.3999C139.498 54.2564 139.763 54.1847 140.067 54.1847C140.252 54.1847 140.431 54.2152 140.604 54.2763C140.778 54.3374 140.933 54.4332 141.071 54.5639C141.209 54.6946 141.317 54.8643 141.397 55.0732C141.477 55.2805 141.516 55.5327 141.516 55.8295V56.0554H138.915V55.5781H140.892C140.892 55.4105 140.858 55.2621 140.79 55.1328C140.722 55.0021 140.626 54.8991 140.502 54.8239C140.38 54.7486 140.237 54.7109 140.072 54.7109C139.893 54.7109 139.737 54.755 139.603 54.843C139.471 54.9297 139.369 55.0433 139.296 55.1839C139.225 55.3232 139.19 55.4744 139.19 55.6378V56.0107C139.19 56.2294 139.228 56.4155 139.305 56.5689C139.383 56.7223 139.491 56.8395 139.631 56.9205C139.77 57 139.933 57.0398 140.119 57.0398C140.239 57.0398 140.349 57.0227 140.449 56.9886C140.548 56.9531 140.634 56.9006 140.707 56.831C140.779 56.7614 140.835 56.6754 140.873 56.5732L141.476 56.6818C141.428 56.8594 141.341 57.0149 141.216 57.1484C141.092 57.2805 140.937 57.3835 140.749 57.4574C140.563 57.5298 140.351 57.5661 140.112 57.5661ZM144.676 55.0263L144.098 55.1286C144.074 55.0547 144.036 54.9844 143.983 54.9176C143.932 54.8509 143.862 54.7962 143.774 54.7536C143.686 54.7109 143.576 54.6896 143.444 54.6896C143.264 54.6896 143.113 54.7301 142.992 54.8111C142.872 54.8906 142.811 54.9936 142.811 55.12C142.811 55.2294 142.852 55.3175 142.933 55.3842C143.014 55.451 143.144 55.5057 143.325 55.5483L143.845 55.6676C144.146 55.7372 144.37 55.8445 144.518 55.9893C144.666 56.1342 144.74 56.3224 144.74 56.554C144.74 56.75 144.683 56.9247 144.569 57.0781C144.457 57.2301 144.3 57.3494 144.098 57.4361C143.898 57.5227 143.666 57.5661 143.401 57.5661C143.035 57.5661 142.736 57.4879 142.504 57.3317C142.273 57.174 142.131 56.9503 142.078 56.6605L142.694 56.5668C142.732 56.7273 142.811 56.8487 142.931 56.9311C143.05 57.0121 143.205 57.0526 143.397 57.0526C143.606 57.0526 143.773 57.0092 143.898 56.9226C144.023 56.8345 144.085 56.7273 144.085 56.6009C144.085 56.4986 144.047 56.4126 143.97 56.343C143.895 56.2734 143.779 56.2209 143.623 56.1854L143.069 56.0639C142.764 55.9943 142.538 55.8835 142.392 55.7315C142.247 55.5795 142.174 55.3871 142.174 55.1541C142.174 54.9609 142.228 54.7919 142.336 54.647C142.444 54.5021 142.593 54.3892 142.784 54.3082C142.974 54.2259 143.192 54.1847 143.438 54.1847C143.791 54.1847 144.07 54.2614 144.273 54.4148C144.476 54.5668 144.61 54.7706 144.676 55.0263ZM149.777 56.2557C149.605 56.2557 149.448 56.2138 149.306 56.13C149.164 56.0447 149.05 55.9311 148.965 55.7891C148.881 55.647 148.839 55.4901 148.839 55.3182C148.839 55.1449 148.881 54.9879 148.965 54.8473C149.05 54.7053 149.164 54.5923 149.306 54.5085C149.448 54.4233 149.605 54.3807 149.777 54.3807C149.95 54.3807 150.107 54.4233 150.248 54.5085C150.39 54.5923 150.503 54.7053 150.587 54.8473C150.672 54.9879 150.714 55.1449 150.714 55.3182C150.714 55.4901 150.672 55.647 150.587 55.7891C150.503 55.9311 150.39 56.0447 150.248 56.13C150.107 56.2138 149.95 56.2557 149.777 56.2557ZM158.643 54.5554H157.978C157.952 54.4134 157.905 54.2884 157.835 54.1804C157.766 54.0724 157.68 53.9808 157.58 53.9055C157.479 53.8303 157.366 53.7734 157.241 53.7351C157.117 53.6967 156.986 53.6776 156.847 53.6776C156.595 53.6776 156.37 53.7408 156.171 53.8672C155.974 53.9936 155.817 54.179 155.702 54.4233C155.589 54.6676 155.532 54.9659 155.532 55.3182C155.532 55.6733 155.589 55.973 155.702 56.2173C155.817 56.4616 155.974 56.6463 156.173 56.7713C156.372 56.8963 156.596 56.9588 156.844 56.9588C156.982 56.9588 157.113 56.9403 157.237 56.9034C157.362 56.8651 157.474 56.8089 157.575 56.7351C157.676 56.6612 157.761 56.571 157.831 56.4645C157.902 56.3565 157.951 56.233 157.978 56.0938L158.643 56.0959C158.607 56.3104 158.538 56.5078 158.436 56.6882C158.335 56.8672 158.205 57.022 158.046 57.1527C157.888 57.282 157.708 57.3821 157.505 57.4531C157.302 57.5241 157.08 57.5597 156.84 57.5597C156.462 57.5597 156.126 57.4702 155.83 57.2912C155.535 57.1108 155.302 56.853 155.131 56.5178C154.962 56.1825 154.878 55.7827 154.878 55.3182C154.878 54.8523 154.963 54.4524 155.134 54.1186C155.304 53.7834 155.537 53.5263 155.832 53.3473C156.128 53.1669 156.464 53.0767 156.84 53.0767C157.072 53.0767 157.288 53.1101 157.488 53.1768C157.69 53.2422 157.871 53.3388 158.031 53.4666C158.192 53.593 158.325 53.7479 158.43 53.9311C158.535 54.1129 158.606 54.321 158.643 54.5554ZM160.332 57.5724C160.124 57.5724 159.937 57.5341 159.769 57.4574C159.602 57.3793 159.469 57.2663 159.371 57.1186C159.274 56.9709 159.226 56.7898 159.226 56.5753C159.226 56.3906 159.262 56.2386 159.333 56.1193C159.404 56 159.499 55.9055 159.62 55.8359C159.741 55.7663 159.876 55.7138 160.025 55.6783C160.174 55.6428 160.326 55.6158 160.481 55.5973C160.677 55.5746 160.836 55.5561 160.958 55.5419C161.08 55.5263 161.169 55.5014 161.225 55.4673C161.28 55.4332 161.308 55.3778 161.308 55.3011V55.2862C161.308 55.1001 161.255 54.956 161.15 54.8537C161.046 54.7514 160.892 54.7003 160.686 54.7003C160.471 54.7003 160.302 54.7479 160.178 54.843C160.056 54.9368 159.972 55.0412 159.925 55.1562L159.326 55.0199C159.397 54.821 159.501 54.6605 159.637 54.5384C159.775 54.4148 159.933 54.3253 160.112 54.2699C160.291 54.2131 160.48 54.1847 160.677 54.1847C160.808 54.1847 160.946 54.2003 161.093 54.2315C161.24 54.2614 161.378 54.3168 161.506 54.3977C161.635 54.4787 161.741 54.5945 161.823 54.745C161.906 54.8942 161.947 55.0881 161.947 55.3267V57.5H161.325V57.0526H161.299C161.258 57.1349 161.196 57.2159 161.114 57.2955C161.031 57.375 160.926 57.4411 160.796 57.4936C160.667 57.5462 160.512 57.5724 160.332 57.5724ZM160.47 57.0611C160.646 57.0611 160.797 57.0263 160.922 56.9567C161.048 56.8871 161.144 56.7962 161.21 56.6839C161.276 56.5703 161.31 56.4489 161.31 56.3196V55.8977C161.287 55.9205 161.243 55.9418 161.178 55.9616C161.114 55.9801 161.041 55.9964 160.958 56.0107C160.876 56.0234 160.796 56.0355 160.718 56.0469C160.639 56.0568 160.574 56.0653 160.521 56.0724C160.398 56.0881 160.285 56.1143 160.183 56.1513C160.082 56.1882 160.001 56.2415 159.94 56.3111C159.88 56.3793 159.85 56.4702 159.85 56.5838C159.85 56.7415 159.909 56.8608 160.025 56.9418C160.142 57.0213 160.29 57.0611 160.47 57.0611ZM163.433 55.5568V57.5H162.795V54.2273H163.407V54.7599H163.447C163.523 54.5866 163.641 54.4474 163.801 54.3423C163.963 54.2372 164.167 54.1847 164.413 54.1847C164.636 54.1847 164.831 54.2315 164.999 54.3253C165.166 54.4176 165.296 54.5554 165.388 54.7386C165.481 54.9219 165.527 55.1484 165.527 55.4183V57.5H164.89V55.495C164.89 55.2578 164.828 55.0724 164.705 54.9389C164.581 54.804 164.411 54.7365 164.195 54.7365C164.048 54.7365 163.916 54.7685 163.801 54.8324C163.688 54.8963 163.597 54.9901 163.531 55.1136C163.465 55.2358 163.433 55.3835 163.433 55.5568ZM167.334 57.5724C167.126 57.5724 166.939 57.5341 166.771 57.4574C166.604 57.3793 166.471 57.2663 166.373 57.1186C166.276 56.9709 166.228 56.7898 166.228 56.5753C166.228 56.3906 166.263 56.2386 166.335 56.1193C166.406 56 166.501 55.9055 166.622 55.8359C166.743 55.7663 166.878 55.7138 167.027 55.6783C167.176 55.6428 167.328 55.6158 167.483 55.5973C167.679 55.5746 167.838 55.5561 167.96 55.5419C168.082 55.5263 168.171 55.5014 168.227 55.4673C168.282 55.4332 168.31 55.3778 168.31 55.3011V55.2862C168.31 55.1001 168.257 54.956 168.152 54.8537C168.048 54.7514 167.893 54.7003 167.688 54.7003C167.473 54.7003 167.304 54.7479 167.18 54.843C167.058 54.9368 166.974 55.0412 166.927 55.1562L166.328 55.0199C166.399 54.821 166.503 54.6605 166.639 54.5384C166.777 54.4148 166.935 54.3253 167.114 54.2699C167.293 54.2131 167.482 54.1847 167.679 54.1847C167.81 54.1847 167.948 54.2003 168.094 54.2315C168.242 54.2614 168.38 54.3168 168.508 54.3977C168.637 54.4787 168.743 54.5945 168.825 54.745C168.908 54.8942 168.949 55.0881 168.949 55.3267V57.5H168.327V57.0526H168.301C168.26 57.1349 168.198 57.2159 168.116 57.2955C168.033 57.375 167.928 57.4411 167.798 57.4936C167.669 57.5462 167.514 57.5724 167.334 57.5724ZM167.472 57.0611C167.648 57.0611 167.799 57.0263 167.924 56.9567C168.05 56.8871 168.146 56.7962 168.212 56.6839C168.278 56.5703 168.312 56.4489 168.312 56.3196V55.8977C168.289 55.9205 168.245 55.9418 168.18 55.9616C168.116 55.9801 168.043 55.9964 167.96 56.0107C167.878 56.0234 167.798 56.0355 167.719 56.0469C167.641 56.0568 167.576 56.0653 167.523 56.0724C167.4 56.0881 167.287 56.1143 167.185 56.1513C167.084 56.1882 167.003 56.2415 166.942 56.3111C166.882 56.3793 166.852 56.4702 166.852 56.5838C166.852 56.7415 166.911 56.8608 167.027 56.9418C167.143 57.0213 167.292 57.0611 167.472 57.0611ZM171.023 57.5639C170.758 57.5639 170.523 57.4964 170.315 57.3615C170.109 57.2251 169.947 57.0312 169.829 56.7798C169.713 56.527 169.655 56.2237 169.655 55.87C169.655 55.5163 169.714 55.2138 169.831 54.9624C169.951 54.7109 170.114 54.5185 170.322 54.3849C170.529 54.2514 170.764 54.1847 171.027 54.1847C171.23 54.1847 171.393 54.2188 171.517 54.2869C171.642 54.3537 171.738 54.4318 171.807 54.5213C171.876 54.6108 171.93 54.6896 171.969 54.7578H172.007V53.1364H172.644V57.5H172.022V56.9908H171.969C171.93 57.0604 171.875 57.1399 171.802 57.2294C171.731 57.3189 171.633 57.397 171.508 57.4638C171.383 57.5305 171.221 57.5639 171.023 57.5639ZM171.163 57.0206C171.346 57.0206 171.501 56.9723 171.628 56.8757C171.756 56.7777 171.852 56.642 171.917 56.4688C171.984 56.2955 172.018 56.0937 172.018 55.8636C172.018 55.6364 171.985 55.4375 171.92 55.267C171.854 55.0966 171.758 54.9638 171.632 54.8686C171.506 54.7734 171.349 54.7259 171.163 54.7259C170.971 54.7259 170.812 54.7756 170.684 54.875C170.556 54.9744 170.459 55.1101 170.394 55.282C170.33 55.4538 170.298 55.6477 170.298 55.8636C170.298 56.0824 170.331 56.2791 170.396 56.4538C170.461 56.6286 170.558 56.767 170.686 56.8693C170.815 56.9702 170.974 57.0206 171.163 57.0206ZM174.506 57.5724C174.298 57.5724 174.111 57.5341 173.943 57.4574C173.776 57.3793 173.643 57.2663 173.545 57.1186C173.448 56.9709 173.4 56.7898 173.4 56.5753C173.4 56.3906 173.435 56.2386 173.506 56.1193C173.577 56 173.673 55.9055 173.794 55.8359C173.915 55.7663 174.05 55.7138 174.199 55.6783C174.348 55.6428 174.5 55.6158 174.655 55.5973C174.851 55.5746 175.01 55.5561 175.132 55.5419C175.254 55.5263 175.343 55.5014 175.398 55.4673C175.454 55.4332 175.482 55.3778 175.482 55.3011V55.2862C175.482 55.1001 175.429 54.956 175.324 54.8537C175.22 54.7514 175.065 54.7003 174.859 54.7003C174.645 54.7003 174.476 54.7479 174.352 54.843C174.23 54.9368 174.146 55.0412 174.099 55.1562L173.5 55.0199C173.571 54.821 173.675 54.6605 173.811 54.5384C173.949 54.4148 174.107 54.3253 174.286 54.2699C174.465 54.2131 174.653 54.1847 174.851 54.1847C174.982 54.1847 175.12 54.2003 175.266 54.2315C175.414 54.2614 175.552 54.3168 175.68 54.3977C175.809 54.4787 175.915 54.5945 175.997 54.745C176.08 54.8942 176.121 55.0881 176.121 55.3267V57.5H175.499V57.0526H175.473C175.432 57.1349 175.37 57.2159 175.288 57.2955C175.205 57.375 175.099 57.4411 174.97 57.4936C174.841 57.5462 174.686 57.5724 174.506 57.5724ZM174.644 57.0611C174.82 57.0611 174.971 57.0263 175.096 56.9567C175.222 56.8871 175.318 56.7962 175.384 56.6839C175.45 56.5703 175.484 56.4489 175.484 56.3196V55.8977C175.461 55.9205 175.417 55.9418 175.352 55.9616C175.288 55.9801 175.214 55.9964 175.132 56.0107C175.05 56.0234 174.969 56.0355 174.891 56.0469C174.813 56.0568 174.748 56.0653 174.695 56.0724C174.572 56.0881 174.459 56.1143 174.357 56.1513C174.256 56.1882 174.175 56.2415 174.114 56.3111C174.054 56.3793 174.024 56.4702 174.024 56.5838C174.024 56.7415 174.082 56.8608 174.199 56.9418C174.315 57.0213 174.464 57.0611 174.644 57.0611ZM181.306 56.2557C181.134 56.2557 180.977 56.2138 180.835 56.13C180.693 56.0447 180.58 55.9311 180.494 55.7891C180.411 55.647 180.369 55.4901 180.369 55.3182C180.369 55.1449 180.411 54.9879 180.494 54.8473C180.58 54.7053 180.693 54.5923 180.835 54.5085C180.977 54.4233 181.134 54.3807 181.306 54.3807C181.48 54.3807 181.637 54.4233 181.777 54.5085C181.919 54.5923 182.032 54.7053 182.116 54.8473C182.201 54.9879 182.244 55.1449 182.244 55.3182C182.244 55.4901 182.201 55.647 182.116 55.7891C182.032 55.9311 181.919 56.0447 181.777 56.13C181.637 56.2138 181.48 56.2557 181.306 56.2557ZM186.916 57.5H186.218L187.788 53.1364H188.548L190.119 57.5H189.42L188.186 53.929H188.152L186.916 57.5ZM187.034 55.7912H189.301V56.3452H187.034V55.7912ZM192.771 56.1428V54.2273H193.41V57.5H192.784V56.9332H192.75C192.674 57.108 192.554 57.2536 192.387 57.37C192.223 57.4851 192.017 57.5426 191.772 57.5426C191.561 57.5426 191.375 57.4964 191.213 57.4041C191.053 57.3104 190.926 57.1719 190.834 56.9886C190.743 56.8054 190.698 56.5788 190.698 56.3089V54.2273H191.335V56.2322C191.335 56.4553 191.397 56.6328 191.52 56.7649C191.644 56.897 191.804 56.9631 192.002 56.9631C192.121 56.9631 192.24 56.9332 192.358 56.8736C192.477 56.8139 192.576 56.7237 192.654 56.603C192.733 56.4822 192.772 56.3288 192.771 56.1428ZM196.719 55.0263L196.141 55.1286C196.117 55.0547 196.079 54.9844 196.026 54.9176C195.975 54.8509 195.905 54.7962 195.817 54.7536C195.729 54.7109 195.619 54.6896 195.487 54.6896C195.307 54.6896 195.156 54.7301 195.035 54.8111C194.915 54.8906 194.854 54.9936 194.854 55.12C194.854 55.2294 194.895 55.3175 194.976 55.3842C195.057 55.451 195.187 55.5057 195.368 55.5483L195.888 55.6676C196.189 55.7372 196.413 55.8445 196.561 55.9893C196.709 56.1342 196.782 56.3224 196.782 56.554C196.782 56.75 196.726 56.9247 196.612 57.0781C196.5 57.2301 196.343 57.3494 196.141 57.4361C195.941 57.5227 195.709 57.5661 195.444 57.5661C195.078 57.5661 194.779 57.4879 194.547 57.3317C194.316 57.174 194.174 56.9503 194.121 56.6605L194.737 56.5668C194.775 56.7273 194.854 56.8487 194.974 56.9311C195.093 57.0121 195.248 57.0526 195.44 57.0526C195.649 57.0526 195.816 57.0092 195.941 56.9226C196.066 56.8345 196.128 56.7273 196.128 56.6009C196.128 56.4986 196.09 56.4126 196.013 56.343C195.938 56.2734 195.822 56.2209 195.666 56.1854L195.112 56.0639C194.807 55.9943 194.581 55.8835 194.434 55.7315C194.29 55.5795 194.217 55.3871 194.217 55.1541C194.217 54.9609 194.271 54.7919 194.379 54.647C194.487 54.5021 194.636 54.3892 194.827 54.3082C195.017 54.2259 195.235 54.1847 195.481 54.1847C195.834 54.1847 196.113 54.2614 196.316 54.4148C196.519 54.5668 196.653 54.7706 196.719 55.0263ZM199.011 54.2273V54.7386H197.223V54.2273H199.011ZM197.702 53.4432H198.339V56.5391C198.339 56.6626 198.358 56.7557 198.395 56.8182C198.432 56.8793 198.479 56.9212 198.538 56.9439C198.597 56.9652 198.662 56.9759 198.732 56.9759C198.783 56.9759 198.827 56.9723 198.866 56.9652C198.904 56.9581 198.934 56.9524 198.955 56.9482L199.07 57.4744C199.033 57.4886 198.981 57.5028 198.913 57.517C198.844 57.5327 198.759 57.5412 198.657 57.5426C198.489 57.5455 198.333 57.5156 198.188 57.4531C198.043 57.3906 197.926 57.294 197.837 57.1634C197.747 57.0327 197.702 56.8686 197.702 56.6712V53.4432ZM199.715 57.5V54.2273H200.331V54.7472H200.365C200.425 54.571 200.53 54.4325 200.681 54.3317C200.833 54.2294 201.004 54.1783 201.196 54.1783C201.236 54.1783 201.283 54.1797 201.337 54.1825C201.392 54.1854 201.436 54.1889 201.467 54.1932V54.8026C201.441 54.7955 201.396 54.7876 201.33 54.7791C201.265 54.7692 201.2 54.7642 201.134 54.7642C200.984 54.7642 200.85 54.7962 200.732 54.8601C200.615 54.9226 200.523 55.0099 200.455 55.1222C200.387 55.233 200.352 55.3594 200.352 55.5014V57.5H199.715ZM202.941 57.5724C202.734 57.5724 202.546 57.5341 202.379 57.4574C202.211 57.3793 202.078 57.2663 201.98 57.1186C201.884 56.9709 201.835 56.7898 201.835 56.5753C201.835 56.3906 201.871 56.2386 201.942 56.1193C202.013 56 202.109 55.9055 202.23 55.8359C202.35 55.7663 202.485 55.7138 202.634 55.6783C202.784 55.6428 202.936 55.6158 203.09 55.5973C203.286 55.5746 203.445 55.5561 203.568 55.5419C203.69 55.5263 203.779 55.5014 203.834 55.4673C203.889 55.4332 203.917 55.3778 203.917 55.3011V55.2862C203.917 55.1001 203.865 54.956 203.759 54.8537C203.656 54.7514 203.501 54.7003 203.295 54.7003C203.08 54.7003 202.911 54.7479 202.788 54.843C202.666 54.9368 202.581 55.0412 202.534 55.1562L201.936 55.0199C202.007 54.821 202.11 54.6605 202.247 54.5384C202.384 54.4148 202.543 54.3253 202.722 54.2699C202.901 54.2131 203.089 54.1847 203.286 54.1847C203.417 54.1847 203.556 54.2003 203.702 54.2315C203.85 54.2614 203.987 54.3168 204.115 54.3977C204.244 54.4787 204.35 54.5945 204.433 54.745C204.515 54.8942 204.556 55.0881 204.556 55.3267V57.5H203.934V57.0526H203.909C203.867 57.1349 203.806 57.2159 203.723 57.2955C203.641 57.375 203.535 57.4411 203.406 57.4936C203.276 57.5462 203.122 57.5724 202.941 57.5724ZM203.08 57.0611C203.256 57.0611 203.406 57.0263 203.531 56.9567C203.658 56.8871 203.754 56.7962 203.819 56.6839C203.886 56.5703 203.919 56.4489 203.919 56.3196V55.8977C203.896 55.9205 203.852 55.9418 203.787 55.9616C203.723 55.9801 203.65 55.9964 203.568 56.0107C203.485 56.0234 203.405 56.0355 203.327 56.0469C203.249 56.0568 203.183 56.0653 203.131 56.0724C203.007 56.0881 202.894 56.1143 202.792 56.1513C202.691 56.1882 202.61 56.2415 202.549 56.3111C202.49 56.3793 202.46 56.4702 202.46 56.5838C202.46 56.7415 202.518 56.8608 202.634 56.9418C202.751 57.0213 202.899 57.0611 203.08 57.0611ZM206.042 53.1364V57.5H205.405V53.1364H206.042ZM206.899 57.5V54.2273H207.536V57.5H206.899ZM207.221 53.7223C207.11 53.7223 207.015 53.6854 206.935 53.6115C206.857 53.5362 206.818 53.4467 206.818 53.343C206.818 53.2379 206.857 53.1484 206.935 53.0746C207.015 52.9993 207.11 52.9616 207.221 52.9616C207.331 52.9616 207.426 52.9993 207.504 53.0746C207.584 53.1484 207.623 53.2379 207.623 53.343C207.623 53.4467 207.584 53.5362 207.504 53.6115C207.426 53.6854 207.331 53.7223 207.221 53.7223ZM209.346 57.5724C209.138 57.5724 208.951 57.5341 208.783 57.4574C208.615 57.3793 208.483 57.2663 208.385 57.1186C208.288 56.9709 208.24 56.7898 208.24 56.5753C208.24 56.3906 208.275 56.2386 208.346 56.1193C208.417 56 208.513 55.9055 208.634 55.8359C208.755 55.7663 208.89 55.7138 209.039 55.6783C209.188 55.6428 209.34 55.6158 209.495 55.5973C209.691 55.5746 209.85 55.5561 209.972 55.5419C210.094 55.5263 210.183 55.5014 210.238 55.4673C210.294 55.4332 210.321 55.3778 210.321 55.3011V55.2862C210.321 55.1001 210.269 54.956 210.164 54.8537C210.06 54.7514 209.905 54.7003 209.699 54.7003C209.485 54.7003 209.316 54.7479 209.192 54.843C209.07 54.9368 208.985 55.0412 208.939 55.1562L208.34 55.0199C208.411 54.821 208.515 54.6605 208.651 54.5384C208.789 54.4148 208.947 54.3253 209.126 54.2699C209.305 54.2131 209.493 54.1847 209.691 54.1847C209.821 54.1847 209.96 54.2003 210.106 54.2315C210.254 54.2614 210.392 54.3168 210.52 54.3977C210.649 54.4787 210.755 54.5945 210.837 54.745C210.919 54.8942 210.961 55.0881 210.961 55.3267V57.5H210.338V57.0526H210.313C210.272 57.1349 210.21 57.2159 210.127 57.2955C210.045 57.375 209.939 57.4411 209.81 57.4936C209.681 57.5462 209.526 57.5724 209.346 57.5724ZM209.484 57.0611C209.66 57.0611 209.811 57.0263 209.936 56.9567C210.062 56.8871 210.158 56.7962 210.223 56.6839C210.29 56.5703 210.324 56.4489 210.324 56.3196V55.8977C210.301 55.9205 210.257 55.9418 210.191 55.9616C210.127 55.9801 210.054 55.9964 209.972 56.0107C209.89 56.0234 209.809 56.0355 209.731 56.0469C209.653 56.0568 209.588 56.0653 209.535 56.0724C209.412 56.0881 209.299 56.1143 209.196 56.1513C209.096 56.1882 209.015 56.2415 208.953 56.3111C208.894 56.3793 208.864 56.4702 208.864 56.5838C208.864 56.7415 208.922 56.8608 209.039 56.9418C209.155 57.0213 209.304 57.0611 209.484 57.0611ZM216.146 56.2557C215.974 56.2557 215.817 56.2138 215.675 56.13C215.533 56.0447 215.42 55.9311 215.334 55.7891C215.251 55.647 215.209 55.4901 215.209 55.3182C215.209 55.1449 215.251 54.9879 215.334 54.8473C215.42 54.7053 215.533 54.5923 215.675 54.5085C215.817 54.4233 215.974 54.3807 216.146 54.3807C216.319 54.3807 216.476 54.4233 216.617 54.5085C216.759 54.5923 216.872 54.7053 216.956 54.8473C217.041 54.9879 217.084 55.1449 217.084 55.3182C217.084 55.4901 217.041 55.647 216.956 55.7891C216.872 55.9311 216.759 56.0447 216.617 56.13C216.476 56.2138 216.319 56.2557 216.146 56.2557ZM221.388 57.5V53.1364H224.094V53.7031H222.046V55.0327H223.9V55.5973H222.046V57.5H221.388ZM224.811 57.5V54.2273H225.427V54.7472H225.461C225.521 54.571 225.626 54.4325 225.776 54.3317C225.928 54.2294 226.1 54.1783 226.292 54.1783C226.332 54.1783 226.379 54.1797 226.433 54.1825C226.488 54.1854 226.531 54.1889 226.562 54.1932V54.8026C226.537 54.7955 226.491 54.7876 226.426 54.7791C226.361 54.7692 226.295 54.7642 226.23 54.7642C226.08 54.7642 225.945 54.7962 225.827 54.8601C225.711 54.9226 225.619 55.0099 225.55 55.1222C225.482 55.233 225.448 55.3594 225.448 55.5014V57.5H224.811ZM228.037 57.5724C227.83 57.5724 227.642 57.5341 227.474 57.4574C227.307 57.3793 227.174 57.2663 227.076 57.1186C226.979 56.9709 226.931 56.7898 226.931 56.5753C226.931 56.3906 226.967 56.2386 227.038 56.1193C227.109 56 227.205 55.9055 227.325 55.8359C227.446 55.7663 227.581 55.7138 227.73 55.6783C227.879 55.6428 228.031 55.6158 228.186 55.5973C228.382 55.5746 228.541 55.5561 228.663 55.5419C228.786 55.5263 228.874 55.5014 228.93 55.4673C228.985 55.4332 229.013 55.3778 229.013 55.3011V55.2862C229.013 55.1001 228.96 54.956 228.855 54.8537C228.751 54.7514 228.597 54.7003 228.391 54.7003C228.176 54.7003 228.007 54.7479 227.884 54.843C227.761 54.9368 227.677 55.0412 227.63 55.1562L227.031 55.0199C227.102 54.821 227.206 54.6605 227.342 54.5384C227.48 54.4148 227.638 54.3253 227.817 54.2699C227.996 54.2131 228.185 54.1847 228.382 54.1847C228.513 54.1847 228.651 54.2003 228.798 54.2315C228.945 54.2614 229.083 54.3168 229.211 54.3977C229.34 54.4787 229.446 54.5945 229.528 54.745C229.611 54.8942 229.652 55.0881 229.652 55.3267V57.5H229.03V57.0526H229.004C228.963 57.1349 228.901 57.2159 228.819 57.2955C228.737 57.375 228.631 57.4411 228.501 57.4936C228.372 57.5462 228.217 57.5724 228.037 57.5724ZM228.175 57.0611C228.352 57.0611 228.502 57.0263 228.627 56.9567C228.754 56.8871 228.849 56.7962 228.915 56.6839C228.982 56.5703 229.015 56.4489 229.015 56.3196V55.8977C228.992 55.9205 228.948 55.9418 228.883 55.9616C228.819 55.9801 228.746 55.9964 228.663 56.0107C228.581 56.0234 228.501 56.0355 228.423 56.0469C228.344 56.0568 228.279 56.0653 228.227 56.0724C228.103 56.0881 227.99 56.1143 227.888 56.1513C227.787 56.1882 227.706 56.2415 227.645 56.3111C227.585 56.3793 227.555 56.4702 227.555 56.5838C227.555 56.7415 227.614 56.8608 227.73 56.9418C227.847 57.0213 227.995 57.0611 228.175 57.0611ZM231.138 55.5568V57.5H230.501V54.2273H231.112V54.7599H231.153C231.228 54.5866 231.346 54.4474 231.506 54.3423C231.668 54.2372 231.872 54.1847 232.118 54.1847C232.341 54.1847 232.536 54.2315 232.704 54.3253C232.871 54.4176 233.001 54.5554 233.094 54.7386C233.186 54.9219 233.232 55.1484 233.232 55.4183V57.5H232.595V55.495C232.595 55.2578 232.533 55.0724 232.41 54.9389C232.286 54.804 232.116 54.7365 231.9 54.7365C231.753 54.7365 231.621 54.7685 231.506 54.8324C231.393 54.8963 231.302 54.9901 231.236 55.1136C231.17 55.2358 231.138 55.3835 231.138 55.5568ZM235.465 57.5661C235.148 57.5661 234.876 57.4943 234.647 57.3509C234.42 57.206 234.245 57.0064 234.123 56.7521C234.001 56.4979 233.939 56.2067 233.939 55.8786C233.939 55.5462 234.002 55.2528 234.127 54.9986C234.252 54.7429 234.428 54.5433 234.655 54.3999C234.883 54.2564 235.15 54.1847 235.459 54.1847C235.707 54.1847 235.929 54.2308 236.123 54.3232C236.318 54.4141 236.475 54.5419 236.594 54.7067C236.715 54.8714 236.787 55.0639 236.809 55.2841H236.189C236.155 55.1307 236.077 54.9986 235.955 54.8878C235.834 54.777 235.672 54.7216 235.469 54.7216C235.292 54.7216 235.136 54.7685 235.003 54.8622C234.871 54.9545 234.768 55.0866 234.694 55.2585C234.62 55.429 234.583 55.6307 234.583 55.8636C234.583 56.1023 234.619 56.3082 234.692 56.4815C234.764 56.6548 234.866 56.7891 234.998 56.8842C235.132 56.9794 235.289 57.027 235.469 57.027C235.59 57.027 235.699 57.005 235.797 56.9609C235.897 56.9155 235.98 56.8509 236.047 56.767C236.115 56.6832 236.162 56.5824 236.189 56.4645H236.809C236.787 56.6761 236.718 56.8651 236.603 57.0312C236.488 57.1974 236.334 57.3281 236.14 57.4233C235.949 57.5185 235.724 57.5661 235.465 57.5661ZM238.901 57.5661C238.579 57.5661 238.301 57.4972 238.068 57.3594C237.837 57.2202 237.658 57.0249 237.531 56.7734C237.406 56.5206 237.344 56.2244 237.344 55.8849C237.344 55.5497 237.406 55.2543 237.531 54.9986C237.658 54.7429 237.834 54.5433 238.06 54.3999C238.287 54.2564 238.553 54.1847 238.857 54.1847C239.041 54.1847 239.22 54.2152 239.393 54.2763C239.567 54.3374 239.722 54.4332 239.86 54.5639C239.998 54.6946 240.107 54.8643 240.186 55.0732C240.266 55.2805 240.305 55.5327 240.305 55.8295V56.0554H237.704V55.5781H239.681C239.681 55.4105 239.647 55.2621 239.579 55.1328C239.511 55.0021 239.415 54.8991 239.291 54.8239C239.169 54.7486 239.026 54.7109 238.861 54.7109C238.682 54.7109 238.526 54.755 238.392 54.843C238.26 54.9297 238.158 55.0433 238.085 55.1839C238.014 55.3232 237.979 55.4744 237.979 55.6378V56.0107C237.979 56.2294 238.017 56.4155 238.094 56.5689C238.172 56.7223 238.281 56.8395 238.42 56.9205C238.559 57 238.722 57.0398 238.908 57.0398C239.028 57.0398 239.138 57.0227 239.238 56.9886C239.337 56.9531 239.423 56.9006 239.496 56.831C239.568 56.7614 239.624 56.6754 239.662 56.5732L240.265 56.6818C240.217 56.8594 240.13 57.0149 240.005 57.1484C239.881 57.2805 239.726 57.3835 239.538 57.4574C239.352 57.5298 239.14 57.5661 238.901 57.5661ZM245.349 56.2557C245.177 56.2557 245.02 56.2138 244.878 56.13C244.736 56.0447 244.623 55.9311 244.537 55.7891C244.454 55.647 244.412 55.4901 244.412 55.3182C244.412 55.1449 244.454 54.9879 244.537 54.8473C244.623 54.7053 244.736 54.5923 244.878 54.5085C245.02 54.4233 245.177 54.3807 245.349 54.3807C245.523 54.3807 245.68 54.4233 245.82 54.5085C245.962 54.5923 246.075 54.7053 246.159 54.8473C246.244 54.9879 246.287 55.1449 246.287 55.3182C246.287 55.4901 246.244 55.647 246.159 55.7891C246.075 55.9311 245.962 56.0447 245.82 56.13C245.68 56.2138 245.523 56.2557 245.349 56.2557ZM252.971 54.2827C252.948 54.081 252.854 53.9247 252.689 53.8139C252.525 53.7017 252.317 53.6456 252.067 53.6456C251.888 53.6456 251.733 53.674 251.603 53.7308C251.472 53.7862 251.371 53.8629 251.298 53.9609C251.227 54.0575 251.192 54.1676 251.192 54.2912C251.192 54.3949 251.216 54.4844 251.264 54.5597C251.314 54.6349 251.378 54.6982 251.458 54.7493C251.539 54.799 251.626 54.8409 251.718 54.875C251.81 54.9077 251.899 54.9347 251.984 54.956L252.41 55.0668C252.55 55.1009 252.692 55.147 252.839 55.2053C252.985 55.2635 253.121 55.3402 253.246 55.4354C253.371 55.5305 253.471 55.6484 253.548 55.7891C253.626 55.9297 253.665 56.098 253.665 56.294C253.665 56.5412 253.601 56.7607 253.474 56.9524C253.347 57.1442 253.163 57.2955 252.922 57.4062C252.682 57.517 252.391 57.5724 252.05 57.5724C251.724 57.5724 251.441 57.5206 251.202 57.4169C250.964 57.3132 250.777 57.1662 250.642 56.9759C250.507 56.7841 250.432 56.5568 250.418 56.294H251.079C251.091 56.4517 251.143 56.5831 251.232 56.6882C251.323 56.7919 251.439 56.8693 251.579 56.9205C251.721 56.9702 251.877 56.995 252.046 56.995C252.232 56.995 252.398 56.9659 252.542 56.9077C252.689 56.848 252.804 56.7656 252.888 56.6605C252.971 56.554 253.013 56.4297 253.013 56.2876C253.013 56.1584 252.976 56.0526 252.903 55.9702C252.83 55.8878 252.731 55.8196 252.606 55.7656C252.483 55.7116 252.343 55.6641 252.187 55.6229L251.671 55.4822C251.322 55.3871 251.045 55.2472 250.84 55.0625C250.637 54.8778 250.535 54.6335 250.535 54.3295C250.535 54.0781 250.604 53.8587 250.74 53.6712C250.876 53.4837 251.061 53.3381 251.294 53.2344C251.527 53.1293 251.79 53.0767 252.082 53.0767C252.378 53.0767 252.638 53.1286 252.864 53.2322C253.091 53.3359 253.27 53.4787 253.401 53.6605C253.532 53.8409 253.6 54.0483 253.606 54.2827H252.971ZM254.401 58.7273V54.2273H255.023V54.7578H255.076C255.113 54.6896 255.167 54.6108 255.236 54.5213C255.306 54.4318 255.402 54.3537 255.526 54.2869C255.65 54.2188 255.813 54.1847 256.016 54.1847C256.28 54.1847 256.516 54.2514 256.723 54.3849C256.931 54.5185 257.093 54.7109 257.211 54.9624C257.331 55.2138 257.39 55.5163 257.39 55.87C257.39 56.2237 257.331 56.527 257.213 56.7798C257.096 57.0312 256.934 57.2251 256.728 57.3615C256.522 57.4964 256.287 57.5639 256.022 57.5639C255.824 57.5639 255.661 57.5305 255.534 57.4638C255.409 57.397 255.311 57.3189 255.24 57.2294C255.169 57.1399 255.115 57.0604 255.076 56.9908H255.038V58.7273H254.401ZM255.025 55.8636C255.025 56.0937 255.059 56.2955 255.125 56.4688C255.192 56.642 255.289 56.7777 255.415 56.8757C255.542 56.9723 255.696 57.0206 255.88 57.0206C256.07 57.0206 256.229 56.9702 256.357 56.8693C256.485 56.767 256.581 56.6286 256.647 56.4538C256.713 56.2791 256.747 56.0824 256.747 55.8636C256.747 55.6477 256.714 55.4538 256.649 55.282C256.585 55.1101 256.488 54.9744 256.359 54.875C256.231 54.7756 256.071 54.7259 255.88 54.7259C255.695 54.7259 255.539 54.7734 255.411 54.8686C255.284 54.9638 255.189 55.0966 255.123 55.267C255.058 55.4375 255.025 55.6364 255.025 55.8636ZM259.056 57.5724C258.849 57.5724 258.662 57.5341 258.494 57.4574C258.326 57.3793 258.194 57.2663 258.096 57.1186C257.999 56.9709 257.951 56.7898 257.951 56.5753C257.951 56.3906 257.986 56.2386 258.057 56.1193C258.128 56 258.224 55.9055 258.345 55.8359C258.466 55.7663 258.6 55.7138 258.75 55.6783C258.899 55.6428 259.051 55.6158 259.206 55.5973C259.402 55.5746 259.561 55.5561 259.683 55.5419C259.805 55.5263 259.894 55.5014 259.949 55.4673C260.005 55.4332 260.032 55.3778 260.032 55.3011V55.2862C260.032 55.1001 259.98 54.956 259.875 54.8537C259.771 54.7514 259.616 54.7003 259.41 54.7003C259.196 54.7003 259.027 54.7479 258.903 54.843C258.781 54.9368 258.696 55.0412 258.65 55.1562L258.051 55.0199C258.122 54.821 258.225 54.6605 258.362 54.5384C258.5 54.4148 258.658 54.3253 258.837 54.2699C259.016 54.2131 259.204 54.1847 259.402 54.1847C259.532 54.1847 259.671 54.2003 259.817 54.2315C259.965 54.2614 260.103 54.3168 260.23 54.3977C260.36 54.4787 260.466 54.5945 260.548 54.745C260.63 54.8942 260.672 55.0881 260.672 55.3267V57.5H260.049V57.0526H260.024C259.983 57.1349 259.921 57.2159 259.838 57.2955C259.756 57.375 259.65 57.4411 259.521 57.4936C259.392 57.5462 259.237 57.5724 259.056 57.5724ZM259.195 57.0611C259.371 57.0611 259.522 57.0263 259.647 56.9567C259.773 56.8871 259.869 56.7962 259.934 56.6839C260.001 56.5703 260.034 56.4489 260.034 56.3196V55.8977C260.012 55.9205 259.968 55.9418 259.902 55.9616C259.838 55.9801 259.765 55.9964 259.683 56.0107C259.6 56.0234 259.52 56.0355 259.442 56.0469C259.364 56.0568 259.299 56.0653 259.246 56.0724C259.123 56.0881 259.01 56.1143 258.907 56.1513C258.806 56.1882 258.725 56.2415 258.664 56.3111C258.605 56.3793 258.575 56.4702 258.575 56.5838C258.575 56.7415 258.633 56.8608 258.75 56.9418C258.866 57.0213 259.015 57.0611 259.195 57.0611ZM261.52 57.5V54.2273H262.157V57.5H261.52ZM261.842 53.7223C261.731 53.7223 261.636 53.6854 261.556 53.6115C261.478 53.5362 261.439 53.4467 261.439 53.343C261.439 53.2379 261.478 53.1484 261.556 53.0746C261.636 52.9993 261.731 52.9616 261.842 52.9616C261.953 52.9616 262.047 52.9993 262.125 53.0746C262.205 53.1484 262.244 53.2379 262.244 53.343C262.244 53.4467 262.205 53.5362 262.125 53.6115C262.047 53.6854 261.953 53.7223 261.842 53.7223ZM263.651 55.5568V57.5H263.014V54.2273H263.626V54.7599H263.666C263.741 54.5866 263.859 54.4474 264.02 54.3423C264.182 54.2372 264.386 54.1847 264.631 54.1847C264.854 54.1847 265.05 54.2315 265.217 54.3253C265.385 54.4176 265.515 54.5554 265.607 54.7386C265.7 54.9219 265.746 55.1484 265.746 55.4183V57.5H265.109V55.495C265.109 55.2578 265.047 55.0724 264.923 54.9389C264.8 54.804 264.63 54.7365 264.414 54.7365C264.266 54.7365 264.135 54.7685 264.02 54.8324C263.906 54.8963 263.816 54.9901 263.749 55.1136C263.684 55.2358 263.651 55.3835 263.651 55.5568ZM270.937 56.2557C270.765 56.2557 270.608 56.2138 270.466 56.13C270.324 56.0447 270.211 55.9311 270.125 55.7891C270.042 55.647 270 55.4901 270 55.3182C270 55.1449 270.042 54.9879 270.125 54.8473C270.211 54.7053 270.324 54.5923 270.466 54.5085C270.608 54.4233 270.765 54.3807 270.937 54.3807C271.11 54.3807 271.267 54.4233 271.408 54.5085C271.55 54.5923 271.663 54.7053 271.747 54.8473C271.832 54.9879 271.875 55.1449 271.875 55.3182C271.875 55.4901 271.832 55.647 271.747 55.7891C271.663 55.9311 271.55 56.0447 271.408 56.13C271.267 56.2138 271.11 56.2557 270.937 56.2557ZM279.132 54.5149C279.091 54.3857 279.035 54.2699 278.966 54.1676C278.897 54.0639 278.816 53.9759 278.721 53.9034C278.625 53.8295 278.517 53.7734 278.395 53.7351C278.274 53.6967 278.141 53.6776 277.996 53.6776C277.75 53.6776 277.529 53.7408 277.331 53.8672C277.134 53.9936 276.978 54.179 276.863 54.4233C276.749 54.6662 276.692 54.9638 276.692 55.3161C276.692 55.6697 276.75 55.9687 276.865 56.2131C276.98 56.4574 277.137 56.6428 277.338 56.7692C277.538 56.8956 277.766 56.9588 278.022 56.9588C278.259 56.9588 278.466 56.9105 278.642 56.8139C278.819 56.7173 278.956 56.581 279.053 56.4048C279.151 56.2273 279.2 56.0185 279.2 55.7784L279.37 55.8104H278.122V55.267H279.837V55.7635C279.837 56.13 279.759 56.4482 279.603 56.718C279.448 56.9865 279.233 57.1939 278.959 57.3402C278.686 57.4865 278.374 57.5597 278.022 57.5597C277.627 57.5597 277.28 57.4688 276.982 57.2869C276.685 57.1051 276.453 56.8473 276.287 56.5135C276.121 56.1783 276.038 55.7805 276.038 55.3203C276.038 54.9723 276.086 54.6598 276.183 54.3828C276.279 54.1058 276.415 53.8707 276.59 53.6776C276.766 53.483 276.973 53.3345 277.21 53.2322C277.449 53.1286 277.709 53.0767 277.992 53.0767C278.228 53.0767 278.447 53.1115 278.65 53.1811C278.855 53.2507 279.037 53.3494 279.196 53.4773C279.356 53.6051 279.489 53.7571 279.594 53.9332C279.699 54.108 279.77 54.3018 279.807 54.5149H279.132ZM282.032 57.5661C281.71 57.5661 281.432 57.4972 281.199 57.3594C280.968 57.2202 280.789 57.0249 280.662 56.7734C280.537 56.5206 280.475 56.2244 280.475 55.8849C280.475 55.5497 280.537 55.2543 280.662 54.9986C280.789 54.7429 280.965 54.5433 281.191 54.3999C281.418 54.2564 281.683 54.1847 281.987 54.1847C282.172 54.1847 282.351 54.2152 282.524 54.2763C282.698 54.3374 282.853 54.4332 282.991 54.5639C283.129 54.6946 283.237 54.8643 283.317 55.0732C283.396 55.2805 283.436 55.5327 283.436 55.8295V56.0554H280.835V55.5781H282.812C282.812 55.4105 282.778 55.2621 282.71 55.1328C282.642 55.0021 282.546 54.8991 282.422 54.8239C282.3 54.7486 282.156 54.7109 281.992 54.7109C281.813 54.7109 281.656 54.755 281.523 54.843C281.391 54.9297 281.289 55.0433 281.216 55.1839C281.145 55.3232 281.11 55.4744 281.11 55.6378V56.0107C281.11 56.2294 281.148 56.4155 281.225 56.5689C281.303 56.7223 281.411 56.8395 281.551 56.9205C281.69 57 281.852 57.0398 282.039 57.0398C282.159 57.0398 282.269 57.0227 282.369 56.9886C282.468 56.9531 282.554 56.9006 282.627 56.831C282.699 56.7614 282.754 56.6754 282.793 56.5732L283.396 56.6818C283.347 56.8594 283.261 57.0149 283.136 57.1484C283.012 57.2805 282.857 57.3835 282.669 57.4574C282.483 57.5298 282.271 57.5661 282.032 57.5661ZM284.143 57.5V54.2273H284.759V54.7472H284.793C284.853 54.571 284.958 54.4325 285.108 54.3317C285.26 54.2294 285.432 54.1783 285.624 54.1783C285.664 54.1783 285.711 54.1797 285.765 54.1825C285.82 54.1854 285.863 54.1889 285.895 54.1932V54.8026C285.869 54.7955 285.824 54.7876 285.758 54.7791C285.693 54.7692 285.627 54.7642 285.562 54.7642C285.412 54.7642 285.277 54.7962 285.159 54.8601C285.043 54.9226 284.951 55.0099 284.882 55.1222C284.814 55.233 284.78 55.3594 284.78 55.5014V57.5H284.143ZM286.446 57.5V54.2273H287.057V54.7599H287.098C287.166 54.5795 287.278 54.4389 287.432 54.3381C287.587 54.2358 287.773 54.1847 287.988 54.1847C288.207 54.1847 288.39 54.2358 288.538 54.3381C288.687 54.4403 288.797 54.581 288.868 54.7599H288.903C288.981 54.5852 289.105 54.446 289.275 54.3423C289.446 54.2372 289.649 54.1847 289.885 54.1847C290.182 54.1847 290.424 54.2777 290.611 54.4638C290.8 54.6499 290.895 54.9304 290.895 55.3054V57.5H290.258V55.3651C290.258 55.1435 290.197 54.983 290.077 54.8835C289.956 54.7841 289.812 54.7344 289.644 54.7344C289.437 54.7344 289.275 54.7983 289.16 54.9261C289.045 55.0526 288.988 55.2152 288.988 55.4141V57.5H288.353V55.3246C288.353 55.147 288.297 55.0043 288.187 54.8963C288.076 54.7884 287.932 54.7344 287.754 54.7344C287.633 54.7344 287.522 54.7663 287.42 54.8303C287.319 54.8928 287.237 54.9801 287.175 55.0923C287.113 55.2045 287.083 55.3345 287.083 55.4822V57.5H286.446ZM292.701 57.5724C292.494 57.5724 292.306 57.5341 292.138 57.4574C291.971 57.3793 291.838 57.2663 291.74 57.1186C291.643 56.9709 291.595 56.7898 291.595 56.5753C291.595 56.3906 291.631 56.2386 291.702 56.1193C291.773 56 291.869 55.9055 291.989 55.8359C292.11 55.7663 292.245 55.7138 292.394 55.6783C292.543 55.6428 292.695 55.6158 292.85 55.5973C293.046 55.5746 293.205 55.5561 293.327 55.5419C293.45 55.5263 293.538 55.5014 293.594 55.4673C293.649 55.4332 293.677 55.3778 293.677 55.3011V55.2862C293.677 55.1001 293.624 54.956 293.519 54.8537C293.415 54.7514 293.261 54.7003 293.055 54.7003C292.84 54.7003 292.671 54.7479 292.548 54.843C292.425 54.9368 292.341 55.0412 292.294 55.1562L291.695 55.0199C291.766 54.821 291.87 54.6605 292.006 54.5384C292.144 54.4148 292.303 54.3253 292.482 54.2699C292.661 54.2131 292.849 54.1847 293.046 54.1847C293.177 54.1847 293.315 54.2003 293.462 54.2315C293.609 54.2614 293.747 54.3168 293.875 54.3977C294.004 54.4787 294.11 54.5945 294.192 54.745C294.275 54.8942 294.316 55.0881 294.316 55.3267V57.5H293.694V57.0526H293.668C293.627 57.1349 293.565 57.2159 293.483 57.2955C293.401 57.375 293.295 57.4411 293.165 57.4936C293.036 57.5462 292.881 57.5724 292.701 57.5724ZM292.839 57.0611C293.016 57.0611 293.166 57.0263 293.291 56.9567C293.418 56.8871 293.513 56.7962 293.579 56.6839C293.646 56.5703 293.679 56.4489 293.679 56.3196V55.8977C293.656 55.9205 293.612 55.9418 293.547 55.9616C293.483 55.9801 293.41 55.9964 293.327 56.0107C293.245 56.0234 293.165 56.0355 293.087 56.0469C293.009 56.0568 292.943 56.0653 292.891 56.0724C292.767 56.0881 292.654 56.1143 292.552 56.1513C292.451 56.1882 292.37 56.2415 292.309 56.3111C292.249 56.3793 292.219 56.4702 292.219 56.5838C292.219 56.7415 292.278 56.8608 292.394 56.9418C292.511 57.0213 292.659 57.0611 292.839 57.0611ZM295.802 55.5568V57.5H295.165V54.2273H295.776V54.7599H295.817C295.892 54.5866 296.01 54.4474 296.17 54.3423C296.332 54.2372 296.536 54.1847 296.782 54.1847C297.005 54.1847 297.2 54.2315 297.368 54.3253C297.535 54.4176 297.665 54.5554 297.758 54.7386C297.85 54.9219 297.896 55.1484 297.896 55.4183V57.5H297.259V55.495C297.259 55.2578 297.197 55.0724 297.074 54.9389C296.95 54.804 296.78 54.7365 296.564 54.7365C296.417 54.7365 296.285 54.7685 296.17 54.8324C296.057 54.8963 295.966 54.9901 295.9 55.1136C295.834 55.2358 295.802 55.3835 295.802 55.5568ZM299.036 58.7273C298.941 58.7273 298.854 58.7195 298.776 58.7038C298.698 58.6896 298.64 58.674 298.601 58.657L298.755 58.1349C298.871 58.1662 298.975 58.1797 299.066 58.1754C299.157 58.1712 299.237 58.1371 299.307 58.0732C299.378 58.0092 299.44 57.9048 299.494 57.7599L299.573 57.5426L298.376 54.2273H299.057L299.886 56.767H299.92L300.749 54.2273H301.433L300.084 57.9368C300.022 58.1072 299.942 58.2514 299.846 58.3693C299.749 58.4886 299.634 58.5781 299.501 58.6378C299.367 58.6974 299.212 58.7273 299.036 58.7273ZM306.369 56.2557C306.197 56.2557 306.04 56.2138 305.898 56.13C305.756 56.0447 305.642 55.9311 305.557 55.7891C305.473 55.647 305.431 55.4901 305.431 55.3182C305.431 55.1449 305.473 54.9879 305.557 54.8473C305.642 54.7053 305.756 54.5923 305.898 54.5085C306.04 54.4233 306.197 54.3807 306.369 54.3807C306.542 54.3807 306.699 54.4233 306.84 54.5085C306.982 54.5923 307.095 54.7053 307.178 54.8473C307.264 54.9879 307.306 55.1449 307.306 55.3182C307.306 55.4901 307.264 55.647 307.178 55.7891C307.095 55.9311 306.982 56.0447 306.84 56.13C306.699 56.2138 306.542 56.2557 306.369 56.2557ZM314.416 53.1364H315.077V56.0064C315.077 56.3118 315.005 56.5824 314.862 56.8182C314.718 57.0526 314.517 57.2372 314.257 57.3722C313.997 57.5057 313.692 57.5724 313.343 57.5724C312.994 57.5724 312.691 57.5057 312.431 57.3722C312.171 57.2372 311.969 57.0526 311.825 56.8182C311.682 56.5824 311.61 56.3118 311.61 56.0064V53.1364H312.269V55.9531C312.269 56.1506 312.312 56.326 312.399 56.4794C312.487 56.6328 312.611 56.7536 312.771 56.8416C312.932 56.9283 313.122 56.9716 313.343 56.9716C313.564 56.9716 313.755 56.9283 313.916 56.8416C314.078 56.7536 314.201 56.6328 314.286 56.4794C314.373 56.326 314.416 56.1506 314.416 55.9531V53.1364ZM316.034 57.5V53.1364H316.692V55.2202H316.746L318.576 53.1364H319.405L317.645 55.1009L319.411 57.5H318.619L317.208 55.5504L316.692 56.1428V57.5H316.034Z" fill="#C5C5CC"/>
<rect x="369" y="53" width="29" height="4" rx="2" fill="#C5C5CC"/>
<mask id="path-13-inside-1_672_2967" fill="white">
<path d="M53 81H398V198H53V81Z"/>
</mask>
<path d="M53 81V82H398V81V80H53V81ZM398 198V197H53V198V199H398V198Z" fill="#EBEBEF" mask="url(#path-13-inside-1_672_2967)"/>
<rect x="53" y="105" width="23" height="4" rx="2" fill="#C5C5CC"/>
<rect x="53" y="123" width="48" height="3" rx="1.5" fill="#E2E2E6"/>
<rect x="53" y="136" width="38" height="3" rx="1.5" fill="#E2E2E6"/>
<rect x="53" y="149" width="59" height="3" rx="1.5" fill="#E2E2E6"/>
<rect x="53" y="162" width="35" height="3" rx="1.5" fill="#E2E2E6"/>
<rect x="53" y="175" width="50" height="3" rx="1.5" fill="#E2E2E6"/>
<rect x="145.25" y="105" width="33" height="4" rx="2" fill="#C5C5CC"/>
<rect x="145.25" y="123" width="47" height="3" rx="1.5" fill="#E2E2E6"/>
<rect x="145.25" y="136" width="30" height="3" rx="1.5" fill="#E2E2E6"/>
<rect x="145.25" y="149" width="58" height="3" rx="1.5" fill="#E2E2E6"/>
<rect x="145.25" y="162" width="26" height="3" rx="1.5" fill="#E2E2E6"/>
<rect x="145.25" y="175" width="49" height="3" rx="1.5" fill="#E2E2E6"/>
<rect x="237.5" y="105" width="25" height="4" rx="2" fill="#C5C5CC"/>
<rect x="237.5" y="123" width="53" height="3" rx="1.5" fill="#E2E2E6"/>
<rect x="237.5" y="136" width="29" height="3" rx="1.5" fill="#E2E2E6"/>
<rect x="237.5" y="149" width="61" height="3" rx="1.5" fill="#E2E2E6"/>
<rect x="237.5" y="162" width="42" height="3" rx="1.5" fill="#E2E2E6"/>
<rect x="237.5" y="175" width="53" height="3" rx="1.5" fill="#E2E2E6"/>
<rect x="329.75" y="105" width="35" height="4" rx="2" fill="#C5C5CC"/>
<rect x="329.75" y="123" width="56" height="3" rx="1.5" fill="#E2E2E6"/>
<rect x="329.75" y="136" width="39" height="3" rx="1.5" fill="#E2E2E6"/>
<rect x="329.75" y="149" width="28" height="3" rx="1.5" fill="#E2E2E6"/>
<rect x="329.75" y="162" width="35" height="3" rx="1.5" fill="#E2E2E6"/>
<rect x="329.75" y="175" width="62" height="3" rx="1.5" fill="#E2E2E6"/>
<path d="M169.272 222.455C169.272 222.188 169.338 221.944 169.469 221.724C169.6 221.503 169.775 221.328 169.993 221.199C170.214 221.068 170.457 221.003 170.724 221.003C170.956 221.003 171.171 221.053 171.368 221.154C171.565 221.254 171.728 221.391 171.858 221.565C171.987 221.739 172.066 221.934 172.094 222.151H171.447C171.418 221.997 171.333 221.871 171.194 221.773C171.056 221.674 170.9 221.624 170.724 221.624C170.572 221.624 170.432 221.662 170.306 221.736C170.181 221.811 170.08 221.911 170.006 222.037C169.931 222.161 169.894 222.3 169.894 222.455C169.894 222.607 169.931 222.746 170.006 222.872C170.08 222.998 170.181 223.098 170.306 223.173C170.432 223.248 170.572 223.285 170.724 223.285C170.9 223.285 171.05 223.236 171.174 223.138C171.298 223.039 171.376 222.912 171.408 222.758H172.054C172.026 222.975 171.95 223.17 171.828 223.344C171.705 223.518 171.549 223.656 171.358 223.757C171.167 223.857 170.956 223.906 170.724 223.906C170.457 223.906 170.214 223.842 169.993 223.712C169.775 223.581 169.6 223.406 169.469 223.185C169.338 222.965 169.272 222.721 169.272 222.455ZM170.702 225.08C170.34 225.08 170.001 225.012 169.683 224.876C169.366 224.74 169.087 224.552 168.845 224.311C168.605 224.069 168.416 223.79 168.278 223.474C168.142 223.157 168.075 222.817 168.077 222.455C168.078 222.092 168.147 221.752 168.283 221.435C168.421 221.119 168.609 220.84 168.85 220.6C169.09 220.358 169.368 220.169 169.685 220.033C170.002 219.897 170.34 219.83 170.702 219.83C171.065 219.83 171.404 219.897 171.721 220.033C172.039 220.169 172.317 220.358 172.556 220.6C172.796 220.84 172.984 221.119 173.12 221.435C173.256 221.752 173.325 222.092 173.327 222.455C173.328 222.817 173.261 223.157 173.125 223.474C172.989 223.79 172.801 224.069 172.561 224.311C172.321 224.552 172.042 224.74 171.723 224.876C171.405 225.012 171.065 225.08 170.702 225.08ZM170.702 224.418C170.973 224.418 171.229 224.368 171.467 224.267C171.706 224.166 171.915 224.026 172.094 223.847C172.274 223.666 172.415 223.457 172.516 223.22C172.617 222.982 172.667 222.727 172.665 222.457C172.665 222.185 172.614 221.93 172.511 221.691C172.41 221.453 172.269 221.244 172.089 221.065C171.91 220.884 171.702 220.743 171.465 220.642C171.228 220.541 170.973 220.491 170.702 220.491C170.432 220.491 170.178 220.541 169.941 220.642C169.704 220.743 169.495 220.884 169.315 221.065C169.136 221.246 168.995 221.455 168.892 221.694C168.789 221.931 168.738 222.185 168.738 222.457C168.736 222.725 168.786 222.979 168.887 223.218C168.99 223.455 169.131 223.663 169.31 223.844C169.49 224.023 169.699 224.164 169.936 224.267C170.175 224.368 170.43 224.418 170.702 224.418ZM176.248 225V224.443L177.97 222.658C178.154 222.464 178.306 222.295 178.425 222.149C178.546 222.001 178.636 221.861 178.696 221.729C178.756 221.596 178.786 221.455 178.786 221.306C178.786 221.137 178.746 220.991 178.666 220.869C178.587 220.744 178.478 220.649 178.341 220.583C178.203 220.515 178.048 220.481 177.876 220.481C177.693 220.481 177.534 220.518 177.398 220.593C177.263 220.667 177.158 220.772 177.085 220.908C177.012 221.044 176.976 221.203 176.976 221.386H176.243C176.243 221.076 176.314 220.805 176.456 220.573C176.599 220.341 176.794 220.161 177.043 220.033C177.292 219.904 177.574 219.839 177.891 219.839C178.21 219.839 178.492 219.903 178.736 220.031C178.981 220.157 179.172 220.329 179.31 220.548C179.448 220.765 179.516 221.01 179.516 221.284C179.516 221.473 179.481 221.657 179.409 221.838C179.34 222.019 179.218 222.22 179.044 222.442C178.87 222.663 178.628 222.93 178.318 223.245L177.306 224.304V224.341H179.598V225H176.248ZM182.313 225.085C181.92 225.083 181.585 224.979 181.306 224.774C181.028 224.568 180.815 224.269 180.667 223.876C180.52 223.484 180.446 223.011 180.446 222.457C180.446 221.905 180.52 221.434 180.667 221.043C180.816 220.652 181.03 220.353 181.309 220.148C181.589 219.942 181.923 219.839 182.313 219.839C182.702 219.839 183.036 219.943 183.315 220.15C183.593 220.356 183.806 220.654 183.953 221.045C184.103 221.435 184.177 221.905 184.177 222.457C184.177 223.012 184.103 223.486 183.956 223.879C183.808 224.27 183.596 224.569 183.317 224.776C183.039 224.982 182.704 225.085 182.313 225.085ZM182.313 224.421C182.658 224.421 182.927 224.253 183.121 223.916C183.316 223.58 183.414 223.093 183.414 222.457C183.414 222.034 183.369 221.677 183.28 221.386C183.192 221.092 183.065 220.87 182.9 220.719C182.735 220.567 182.54 220.491 182.313 220.491C181.97 220.491 181.701 220.66 181.505 220.998C181.309 221.336 181.211 221.822 181.209 222.457C181.209 222.881 181.253 223.24 181.341 223.533C181.43 223.825 181.557 224.046 181.721 224.197C181.885 224.346 182.083 224.421 182.313 224.421ZM185.059 225V224.443L186.782 222.658C186.966 222.464 187.117 222.295 187.237 222.149C187.358 222.001 187.448 221.861 187.508 221.729C187.567 221.596 187.597 221.455 187.597 221.306C187.597 221.137 187.557 220.991 187.478 220.869C187.398 220.744 187.29 220.649 187.152 220.583C187.015 220.515 186.86 220.481 186.687 220.481C186.505 220.481 186.346 220.518 186.21 220.593C186.074 220.667 185.97 220.772 185.897 220.908C185.824 221.044 185.787 221.203 185.787 221.386H185.054C185.054 221.076 185.125 220.805 185.268 220.573C185.41 220.341 185.606 220.161 185.854 220.033C186.103 219.904 186.386 219.839 186.702 219.839C187.022 219.839 187.304 219.903 187.547 220.031C187.793 220.157 187.984 220.329 188.122 220.548C188.259 220.765 188.328 221.01 188.328 221.284C188.328 221.473 188.292 221.657 188.221 221.838C188.151 222.019 188.03 222.22 187.856 222.442C187.682 222.663 187.44 222.93 187.13 223.245L186.118 224.304V224.341H188.41V225H185.059ZM191.129 225.07C190.902 225.066 190.679 225.025 190.458 224.945C190.239 224.866 190.041 224.733 189.862 224.548C189.683 224.362 189.539 224.113 189.432 223.799C189.325 223.486 189.272 223.095 189.272 222.626C189.272 222.182 189.316 221.788 189.404 221.443C189.494 221.098 189.622 220.807 189.79 220.57C189.957 220.332 190.159 220.15 190.396 220.026C190.633 219.902 190.899 219.839 191.194 219.839C191.497 219.839 191.767 219.899 192.002 220.018C192.237 220.138 192.428 220.303 192.574 220.513C192.721 220.724 192.815 220.963 192.854 221.232H192.096C192.045 221.019 191.943 220.846 191.791 220.712C191.638 220.578 191.439 220.511 191.194 220.511C190.821 220.511 190.53 220.673 190.321 220.998C190.114 221.323 190.01 221.774 190.008 222.353H190.046C190.133 222.208 190.241 222.086 190.369 221.985C190.498 221.882 190.642 221.803 190.801 221.749C190.962 221.692 191.131 221.664 191.308 221.664C191.603 221.664 191.87 221.736 192.109 221.88C192.349 222.023 192.54 222.22 192.683 222.472C192.825 222.724 192.897 223.012 192.897 223.337C192.897 223.662 192.823 223.956 192.676 224.219C192.53 224.483 192.324 224.692 192.059 224.846C191.794 224.998 191.484 225.073 191.129 225.07ZM191.127 224.423C191.322 224.423 191.497 224.375 191.651 224.279C191.805 224.183 191.927 224.054 192.017 223.891C192.106 223.729 192.151 223.547 192.151 223.347C192.151 223.151 192.107 222.973 192.019 222.812C191.933 222.652 191.814 222.524 191.661 222.43C191.511 222.335 191.338 222.288 191.144 222.288C190.997 222.288 190.86 222.316 190.734 222.373C190.61 222.429 190.5 222.507 190.406 222.606C190.312 222.706 190.237 222.82 190.182 222.949C190.129 223.077 190.103 223.212 190.103 223.354C190.103 223.545 190.147 223.721 190.234 223.884C190.324 224.046 190.446 224.177 190.6 224.277C190.756 224.374 190.931 224.423 191.127 224.423ZM197.447 221.182V221.778H195.361V221.182H197.447ZM195.921 220.267H196.664V223.879C196.664 224.023 196.686 224.132 196.729 224.205C196.772 224.276 196.827 224.325 196.895 224.351C196.965 224.376 197.04 224.388 197.121 224.388C197.181 224.388 197.233 224.384 197.278 224.376C197.323 224.368 197.358 224.361 197.382 224.356L197.517 224.97C197.474 224.987 197.412 225.003 197.333 225.02C197.253 225.038 197.154 225.048 197.034 225.05C196.839 225.053 196.657 225.018 196.487 224.945C196.318 224.872 196.182 224.76 196.077 224.607C195.973 224.455 195.921 224.263 195.921 224.033V220.267ZM198.739 226.432C198.628 226.432 198.527 226.423 198.436 226.404C198.345 226.388 198.277 226.37 198.232 226.35L198.411 225.741C198.547 225.777 198.668 225.793 198.774 225.788C198.88 225.783 198.973 225.743 199.055 225.669C199.138 225.594 199.21 225.472 199.273 225.303L199.365 225.05L197.968 221.182H198.764L199.731 224.145H199.771L200.738 221.182H201.536L199.962 225.51C199.889 225.708 199.796 225.877 199.684 226.014C199.571 226.153 199.437 226.258 199.281 226.327C199.125 226.397 198.944 226.432 198.739 226.432ZM202.234 226.432V221.182H202.96V221.801H203.022C203.065 221.721 203.127 221.629 203.208 221.525C203.29 221.42 203.402 221.329 203.547 221.251C203.691 221.172 203.881 221.132 204.118 221.132C204.426 221.132 204.702 221.21 204.944 221.366C205.185 221.522 205.375 221.746 205.513 222.039C205.652 222.333 205.722 222.686 205.722 223.098C205.722 223.511 205.653 223.865 205.515 224.16C205.378 224.453 205.189 224.679 204.949 224.838C204.708 224.996 204.434 225.075 204.126 225.075C203.894 225.075 203.704 225.036 203.556 224.958C203.411 224.88 203.296 224.789 203.213 224.684C203.131 224.58 203.067 224.487 203.022 224.406H202.977V226.432H202.234ZM202.962 223.091C202.962 223.359 203.001 223.595 203.079 223.797C203.157 223.999 203.27 224.157 203.417 224.272C203.565 224.384 203.745 224.441 203.959 224.441C204.181 224.441 204.367 224.382 204.516 224.264C204.665 224.145 204.778 223.983 204.854 223.779C204.932 223.576 204.971 223.346 204.971 223.091C204.971 222.839 204.933 222.613 204.857 222.412C204.782 222.212 204.669 222.054 204.518 221.938C204.369 221.821 204.183 221.763 203.959 221.763C203.744 221.763 203.561 221.819 203.412 221.93C203.265 222.041 203.153 222.196 203.077 222.395C203 222.594 202.962 222.826 202.962 223.091ZM208.2 225.077C207.824 225.077 207.5 224.997 207.228 224.836C206.958 224.674 206.749 224.446 206.602 224.152C206.456 223.857 206.383 223.512 206.383 223.116C206.383 222.725 206.456 222.38 206.602 222.082C206.749 221.783 206.955 221.551 207.218 221.383C207.483 221.216 207.793 221.132 208.148 221.132C208.363 221.132 208.572 221.168 208.774 221.239C208.976 221.31 209.158 221.422 209.319 221.575C209.479 221.727 209.606 221.925 209.699 222.169C209.792 222.411 209.838 222.705 209.838 223.051V223.315H206.803V222.758H209.11C209.11 222.562 209.07 222.389 208.99 222.238C208.911 222.086 208.799 221.966 208.655 221.878C208.512 221.79 208.345 221.746 208.153 221.746C207.944 221.746 207.762 221.797 207.606 221.9C207.452 222.001 207.332 222.134 207.248 222.298C207.165 222.46 207.124 222.637 207.124 222.827V223.262C207.124 223.518 207.168 223.735 207.258 223.914C207.349 224.093 207.476 224.229 207.638 224.324C207.801 224.417 207.99 224.463 208.207 224.463C208.348 224.463 208.477 224.443 208.593 224.403C208.709 224.362 208.809 224.301 208.893 224.219C208.978 224.138 209.043 224.038 209.087 223.919L209.791 224.045C209.734 224.253 209.633 224.434 209.488 224.59C209.343 224.744 209.162 224.864 208.943 224.95C208.726 225.035 208.478 225.077 208.2 225.077ZM213.081 223.417V221.182H213.827V225H213.096V224.339H213.057C212.969 224.543 212.828 224.712 212.634 224.848C212.442 224.983 212.202 225.05 211.916 225.05C211.67 225.05 211.453 224.996 211.264 224.888C211.077 224.779 210.93 224.617 210.822 224.403C210.716 224.19 210.663 223.925 210.663 223.61V221.182H211.406V223.521C211.406 223.781 211.478 223.988 211.622 224.142C211.766 224.297 211.954 224.374 212.184 224.374C212.323 224.374 212.462 224.339 212.599 224.269C212.738 224.2 212.854 224.094 212.945 223.953C213.037 223.813 213.083 223.634 213.081 223.417ZM214.826 225V221.182H215.569V225H214.826ZM215.201 220.593C215.072 220.593 214.961 220.55 214.868 220.463C214.777 220.376 214.731 220.271 214.731 220.15C214.731 220.028 214.777 219.923 214.868 219.837C214.961 219.749 215.072 219.705 215.201 219.705C215.33 219.705 215.441 219.749 215.532 219.837C215.625 219.923 215.671 220.028 215.671 220.15C215.671 220.271 215.625 220.376 215.532 220.463C215.441 220.55 215.33 220.593 215.201 220.593ZM217.059 225.047C216.923 225.047 216.806 224.999 216.708 224.903C216.61 224.805 216.562 224.688 216.562 224.55C216.562 224.414 216.61 224.298 216.708 224.202C216.806 224.104 216.923 224.055 217.059 224.055C217.195 224.055 217.311 224.104 217.409 224.202C217.507 224.298 217.556 224.414 217.556 224.55C217.556 224.641 217.533 224.725 217.486 224.801C217.441 224.876 217.382 224.935 217.307 224.98C217.233 225.025 217.15 225.047 217.059 225.047ZM220.812 225H219.996L221.828 219.909H222.716L224.548 225H223.732L222.293 220.834H222.253L220.812 225ZM220.948 223.006H223.593V223.653H220.948V223.006ZM225.967 219.909V225H225.223V219.909H225.967ZM227.71 219.909V225H226.966V219.909H227.71ZM230.562 225V221.182H231.281V221.788H231.32C231.39 221.583 231.513 221.421 231.688 221.304C231.866 221.184 232.066 221.125 232.29 221.125C232.336 221.125 232.391 221.126 232.454 221.13C232.518 221.133 232.569 221.137 232.605 221.142V221.853C232.576 221.845 232.523 221.836 232.446 221.826C232.37 221.814 232.294 221.808 232.218 221.808C232.042 221.808 231.885 221.846 231.748 221.92C231.612 221.993 231.504 222.095 231.425 222.226C231.345 222.355 231.305 222.503 231.305 222.668V225H230.562ZM233.249 225V221.182H233.992V225H233.249ZM233.624 220.593C233.495 220.593 233.384 220.55 233.291 220.463C233.2 220.376 233.154 220.271 233.154 220.15C233.154 220.028 233.2 219.923 233.291 219.837C233.384 219.749 233.495 219.705 233.624 219.705C233.753 219.705 233.863 219.749 233.955 219.837C234.047 219.923 234.094 220.028 234.094 220.15C234.094 220.271 234.047 220.376 233.955 220.463C233.863 220.55 233.753 220.593 233.624 220.593ZM236.593 226.511C236.289 226.511 236.028 226.472 235.81 226.392C235.593 226.313 235.415 226.207 235.278 226.076C235.14 225.945 235.037 225.802 234.969 225.646L235.608 225.383C235.653 225.456 235.713 225.533 235.787 225.614C235.864 225.697 235.966 225.767 236.096 225.825C236.226 225.883 236.395 225.912 236.6 225.912C236.882 225.912 237.115 225.844 237.299 225.706C237.483 225.57 237.575 225.353 237.575 225.055V224.304H237.527C237.483 224.385 237.418 224.475 237.333 224.575C237.251 224.674 237.136 224.761 236.99 224.833C236.845 224.906 236.655 224.943 236.421 224.943C236.12 224.943 235.848 224.872 235.606 224.732C235.366 224.589 235.175 224.379 235.034 224.103C234.895 223.824 234.825 223.482 234.825 223.076C234.825 222.67 234.894 222.322 235.032 222.032C235.171 221.742 235.361 221.52 235.603 221.366C235.845 221.21 236.12 221.132 236.426 221.132C236.663 221.132 236.855 221.172 237 221.251C237.146 221.329 237.26 221.42 237.341 221.525C237.424 221.629 237.488 221.721 237.532 221.801H237.587V221.182H238.315V225.085C238.315 225.413 238.239 225.682 238.087 225.892C237.934 226.103 237.728 226.259 237.468 226.36C237.209 226.461 236.917 226.511 236.593 226.511ZM236.585 224.326C236.799 224.326 236.98 224.277 237.127 224.177C237.276 224.076 237.389 223.932 237.465 223.745C237.543 223.556 237.582 223.33 237.582 223.066C237.582 222.809 237.544 222.583 237.468 222.387C237.391 222.192 237.28 222.039 237.132 221.93C236.985 221.819 236.802 221.763 236.585 221.763C236.362 221.763 236.175 221.821 236.026 221.938C235.877 222.052 235.764 222.208 235.688 222.405C235.613 222.602 235.576 222.822 235.576 223.066C235.576 223.316 235.614 223.536 235.69 223.725C235.767 223.914 235.879 224.061 236.028 224.167C236.179 224.273 236.365 224.326 236.585 224.326ZM240.055 222.733V225H239.312V219.909H240.045V221.803H240.093C240.182 221.598 240.319 221.435 240.503 221.314C240.687 221.193 240.927 221.132 241.224 221.132C241.486 221.132 241.714 221.186 241.91 221.294C242.107 221.401 242.259 221.562 242.367 221.776C242.477 221.988 242.531 222.253 242.531 222.571V225H241.788V222.661C241.788 222.381 241.716 222.164 241.572 222.01C241.428 221.854 241.227 221.776 240.97 221.776C240.795 221.776 240.637 221.813 240.498 221.888C240.36 221.962 240.252 222.072 240.172 222.216C240.094 222.358 240.055 222.531 240.055 222.733ZM245.305 221.182V221.778H243.22V221.182H245.305ZM243.779 220.267H244.522V223.879C244.522 224.023 244.544 224.132 244.587 224.205C244.63 224.276 244.686 224.325 244.754 224.351C244.823 224.376 244.899 224.388 244.98 224.388C245.039 224.388 245.092 224.384 245.136 224.376C245.181 224.368 245.216 224.361 245.241 224.356L245.375 224.97C245.332 224.987 245.271 225.003 245.191 225.02C245.112 225.038 245.012 225.048 244.893 225.05C244.697 225.053 244.515 225.018 244.346 224.945C244.177 224.872 244.04 224.76 243.936 224.607C243.831 224.455 243.779 224.263 243.779 224.033V220.267ZM248.927 222.114L248.254 222.233C248.225 222.147 248.181 222.065 248.119 221.987C248.06 221.909 247.978 221.846 247.876 221.796C247.773 221.746 247.645 221.721 247.49 221.721C247.28 221.721 247.104 221.768 246.963 221.863C246.823 221.956 246.752 222.076 246.752 222.223C246.752 222.351 246.799 222.454 246.894 222.532C246.988 222.609 247.141 222.673 247.351 222.723L247.958 222.862C248.309 222.943 248.571 223.069 248.743 223.238C248.916 223.407 249.002 223.626 249.002 223.896C249.002 224.125 248.935 224.329 248.803 224.508C248.672 224.685 248.489 224.824 248.254 224.925C248.02 225.027 247.749 225.077 247.441 225.077C247.013 225.077 246.664 224.986 246.394 224.804C246.124 224.62 245.958 224.359 245.897 224.021L246.615 223.911C246.66 224.098 246.752 224.24 246.891 224.336C247.031 224.431 247.212 224.478 247.436 224.478C247.679 224.478 247.874 224.427 248.02 224.326C248.166 224.224 248.239 224.098 248.239 223.951C248.239 223.832 248.194 223.731 248.104 223.65C248.017 223.569 247.882 223.508 247.699 223.466L247.053 223.325C246.697 223.243 246.433 223.114 246.262 222.937C246.093 222.759 246.009 222.535 246.009 222.263C246.009 222.038 246.072 221.841 246.198 221.672C246.324 221.502 246.498 221.371 246.72 221.276C246.942 221.18 247.196 221.132 247.483 221.132C247.896 221.132 248.22 221.222 248.457 221.401C248.694 221.578 248.851 221.816 248.927 222.114ZM251.672 225V221.182H252.39V221.788H252.43C252.499 221.583 252.622 221.421 252.798 221.304C252.975 221.184 253.175 221.125 253.399 221.125C253.446 221.125 253.5 221.126 253.563 221.13C253.628 221.133 253.678 221.137 253.715 221.142V221.853C253.685 221.845 253.632 221.836 253.556 221.826C253.48 221.814 253.403 221.808 253.327 221.808C253.151 221.808 252.995 221.846 252.857 221.92C252.721 221.993 252.614 222.095 252.534 222.226C252.455 222.355 252.415 222.503 252.415 222.668V225H251.672ZM255.867 225.077C255.491 225.077 255.167 224.997 254.895 224.836C254.625 224.674 254.416 224.446 254.269 224.152C254.123 223.857 254.05 223.512 254.05 223.116C254.05 222.725 254.123 222.38 254.269 222.082C254.416 221.783 254.622 221.551 254.885 221.383C255.15 221.216 255.46 221.132 255.815 221.132C256.03 221.132 256.239 221.168 256.441 221.239C256.643 221.31 256.825 221.422 256.986 221.575C257.146 221.727 257.273 221.925 257.366 222.169C257.459 222.411 257.505 222.705 257.505 223.051V223.315H254.47V222.758H256.777C256.777 222.562 256.737 222.389 256.657 222.238C256.578 222.086 256.466 221.966 256.322 221.878C256.179 221.79 256.012 221.746 255.82 221.746C255.611 221.746 255.429 221.797 255.273 221.9C255.119 222.001 254.999 222.134 254.915 222.298C254.832 222.46 254.791 222.637 254.791 222.827V223.262C254.791 223.518 254.835 223.735 254.925 223.914C255.016 224.093 255.143 224.229 255.305 224.324C255.468 224.417 255.657 224.463 255.874 224.463C256.015 224.463 256.144 224.443 256.26 224.403C256.376 224.362 256.476 224.301 256.56 224.219C256.645 224.138 256.71 224.038 256.754 223.919L257.458 224.045C257.401 224.253 257.3 224.434 257.155 224.59C257.01 224.744 256.829 224.864 256.61 224.95C256.393 225.035 256.145 225.077 255.867 225.077ZM261.191 222.114L260.517 222.233C260.489 222.147 260.444 222.065 260.383 221.987C260.323 221.909 260.242 221.846 260.139 221.796C260.037 221.746 259.908 221.721 259.754 221.721C259.544 221.721 259.368 221.768 259.227 221.863C259.086 221.956 259.016 222.076 259.016 222.223C259.016 222.351 259.063 222.454 259.157 222.532C259.252 222.609 259.404 222.673 259.615 222.723L260.221 222.862C260.573 222.943 260.835 223.069 261.007 223.238C261.179 223.407 261.265 223.626 261.265 223.896C261.265 224.125 261.199 224.329 261.067 224.508C260.936 224.685 260.753 224.824 260.517 224.925C260.284 225.027 260.013 225.077 259.704 225.077C259.277 225.077 258.928 224.986 258.658 224.804C258.388 224.62 258.222 224.359 258.161 224.021L258.879 223.911C258.924 224.098 259.016 224.24 259.155 224.336C259.294 224.431 259.476 224.478 259.699 224.478C259.943 224.478 260.138 224.427 260.284 224.326C260.429 224.224 260.502 224.098 260.502 223.951C260.502 223.832 260.458 223.731 260.368 223.65C260.28 223.569 260.145 223.508 259.963 223.466L259.317 223.325C258.96 223.243 258.697 223.114 258.526 222.937C258.357 222.759 258.273 222.535 258.273 222.263C258.273 222.038 258.336 221.841 258.461 221.672C258.587 221.502 258.761 221.371 258.983 221.276C259.206 221.18 259.46 221.132 259.747 221.132C260.159 221.132 260.484 221.222 260.721 221.401C260.958 221.578 261.115 221.816 261.191 222.114ZM263.728 225.077C263.352 225.077 263.028 224.997 262.756 224.836C262.486 224.674 262.277 224.446 262.13 224.152C261.984 223.857 261.911 223.512 261.911 223.116C261.911 222.725 261.984 222.38 262.13 222.082C262.277 221.783 262.483 221.551 262.746 221.383C263.012 221.216 263.321 221.132 263.676 221.132C263.891 221.132 264.1 221.168 264.302 221.239C264.505 221.31 264.686 221.422 264.847 221.575C265.008 221.727 265.134 221.925 265.227 222.169C265.32 222.411 265.366 222.705 265.366 223.051V223.315H262.331V222.758H264.638C264.638 222.562 264.598 222.389 264.519 222.238C264.439 222.086 264.327 221.966 264.183 221.878C264.041 221.79 263.873 221.746 263.681 221.746C263.472 221.746 263.29 221.797 263.134 221.9C262.98 222.001 262.861 222.134 262.776 222.298C262.693 222.46 262.652 222.637 262.652 222.827V223.262C262.652 223.518 262.697 223.735 262.786 223.914C262.877 224.093 263.004 224.229 263.166 224.324C263.329 224.417 263.519 224.463 263.736 224.463C263.877 224.463 264.005 224.443 264.121 224.403C264.237 224.362 264.337 224.301 264.422 224.219C264.506 224.138 264.571 224.038 264.616 223.919L265.319 224.045C265.263 224.253 265.162 224.434 265.016 224.59C264.872 224.744 264.69 224.864 264.472 224.95C264.254 225.035 264.007 225.077 263.728 225.077ZM266.191 225V221.182H266.909V221.788H266.949C267.019 221.583 267.141 221.421 267.317 221.304C267.494 221.184 267.695 221.125 267.919 221.125C267.965 221.125 268.02 221.126 268.083 221.13C268.147 221.133 268.198 221.137 268.234 221.142V221.853C268.205 221.845 268.152 221.836 268.075 221.826C267.999 221.814 267.923 221.808 267.847 221.808C267.671 221.808 267.514 221.846 267.377 221.92C267.241 221.993 267.133 222.095 267.054 222.226C266.974 222.355 266.934 222.503 266.934 222.668V225H266.191ZM272.26 221.182L270.876 225H270.08L268.693 221.182H269.491L270.458 224.12H270.498L271.462 221.182H272.26ZM274.474 225.077C274.098 225.077 273.774 224.997 273.502 224.836C273.232 224.674 273.023 224.446 272.876 224.152C272.73 223.857 272.657 223.512 272.657 223.116C272.657 222.725 272.73 222.38 272.876 222.082C273.023 221.783 273.229 221.551 273.492 221.383C273.758 221.216 274.068 221.132 274.422 221.132C274.638 221.132 274.846 221.168 275.049 221.239C275.251 221.31 275.432 221.422 275.593 221.575C275.754 221.727 275.88 221.925 275.973 222.169C276.066 222.411 276.112 222.705 276.112 223.051V223.315H273.077V222.758H275.384C275.384 222.562 275.344 222.389 275.265 222.238C275.185 222.086 275.073 221.966 274.929 221.878C274.787 221.79 274.619 221.746 274.427 221.746C274.218 221.746 274.036 221.797 273.88 221.9C273.726 222.001 273.607 222.134 273.522 222.298C273.439 222.46 273.398 222.637 273.398 222.827V223.262C273.398 223.518 273.443 223.735 273.532 223.914C273.623 224.093 273.75 224.229 273.913 224.324C274.075 224.417 274.265 224.463 274.482 224.463C274.623 224.463 274.751 224.443 274.867 224.403C274.983 224.362 275.083 224.301 275.168 224.219C275.252 224.138 275.317 224.038 275.362 223.919L276.065 224.045C276.009 224.253 275.908 224.434 275.762 224.59C275.618 224.744 275.436 224.864 275.218 224.95C275.001 225.035 274.753 225.077 274.474 225.077ZM278.366 225.075C278.058 225.075 277.783 224.996 277.541 224.838C277.301 224.679 277.112 224.453 276.974 224.16C276.839 223.865 276.771 223.511 276.771 223.098C276.771 222.686 276.839 222.333 276.977 222.039C277.116 221.746 277.307 221.522 277.549 221.366C277.791 221.21 278.065 221.132 278.371 221.132C278.608 221.132 278.799 221.172 278.943 221.251C279.089 221.329 279.202 221.42 279.281 221.525C279.362 221.629 279.425 221.721 279.47 221.801H279.515V219.909H280.258V225H279.532V224.406H279.47C279.425 224.487 279.361 224.58 279.276 224.684C279.193 224.789 279.079 224.88 278.933 224.958C278.787 225.036 278.598 225.075 278.366 225.075ZM278.531 224.441C278.744 224.441 278.925 224.384 279.072 224.272C279.222 224.157 279.334 223.999 279.411 223.797C279.488 223.595 279.527 223.359 279.527 223.091C279.527 222.826 279.489 222.594 279.413 222.395C279.337 222.196 279.225 222.041 279.077 221.93C278.93 221.819 278.748 221.763 278.531 221.763C278.307 221.763 278.12 221.821 277.971 221.938C277.822 222.054 277.709 222.212 277.633 222.412C277.559 222.613 277.521 222.839 277.521 223.091C277.521 223.346 277.559 223.576 277.636 223.779C277.712 223.983 277.825 224.145 277.974 224.264C278.125 224.382 278.31 224.441 278.531 224.441ZM281.809 225.047C281.673 225.047 281.556 224.999 281.458 224.903C281.36 224.805 281.312 224.688 281.312 224.55C281.312 224.414 281.36 224.298 281.458 224.202C281.556 224.104 281.673 224.055 281.809 224.055C281.945 224.055 282.061 224.104 282.159 224.202C282.257 224.298 282.306 224.414 282.306 224.55C282.306 224.641 282.283 224.725 282.236 224.801C282.191 224.876 282.132 224.935 282.057 224.98C281.983 225.025 281.9 225.047 281.809 225.047Z" fill="#C5C5CC"/>
</g>
<defs>
<clipPath id="clip0_672_2967">
<rect width="451.33" height="281" fill="white"/>
</clipPath>
</defs>
</svg>
