<svg width="452" height="281" viewBox="0 0 452 281" fill="none" xmlns="http://www.w3.org/2000/svg">
<g clip-path="url(#clip0_580_2062)">
<path d="M451.33 0H0V281H451.33V0Z" fill="#F4F4F6"/>
<path d="M33.8499 0V281" stroke="#EAEAEA" stroke-width="0.8"/>
<path d="M417.48 0V281" stroke="#EAEAEA" stroke-width="0.8"/>
<path d="M0 31.6133H451.33" stroke="#EAEAEA" stroke-width="0.8"/>
<path d="M0 249.387H451.33" stroke="#EAEAEA" stroke-width="0.8"/>
<rect x="33.5" y="29.5" width="384" height="222" rx="11.5" fill="white"/>
<rect x="33.5" y="29.5" width="384" height="222" rx="11.5" stroke="#E2E0E0"/>
<rect x="147.5" y="92.5" width="156" height="96" rx="7.5" fill="#FBFBFB"/>
<rect x="147.5" y="92.5" width="156" height="96" rx="7.5" stroke="#EDEDED"/>
<path d="M159.545 110H157.574V104.182H159.585C160.163 104.182 160.659 104.298 161.074 104.531C161.491 104.762 161.811 105.095 162.034 105.528C162.258 105.962 162.369 106.481 162.369 107.085C162.369 107.691 162.257 108.212 162.031 108.648C161.808 109.083 161.485 109.418 161.062 109.651C160.642 109.884 160.136 110 159.545 110ZM158.628 109.088H159.494C159.9 109.088 160.238 109.014 160.509 108.866C160.779 108.717 160.983 108.494 161.119 108.199C161.256 107.902 161.324 107.53 161.324 107.085C161.324 106.64 161.256 106.271 161.119 105.977C160.983 105.682 160.781 105.461 160.514 105.315C160.249 105.168 159.92 105.094 159.526 105.094H158.628V109.088ZM165.257 110.085C164.82 110.085 164.442 109.994 164.124 109.812C163.807 109.629 163.564 109.369 163.393 109.034C163.223 108.697 163.138 108.3 163.138 107.844C163.138 107.395 163.223 107.001 163.393 106.662C163.566 106.321 163.806 106.056 164.115 105.866C164.424 105.675 164.786 105.58 165.203 105.58C165.472 105.58 165.726 105.623 165.964 105.71C166.205 105.795 166.417 105.928 166.601 106.108C166.786 106.288 166.932 106.517 167.038 106.795C167.144 107.072 167.197 107.402 167.197 107.784V108.099H163.621V107.406H166.212C166.21 107.209 166.167 107.034 166.084 106.881C166 106.725 165.884 106.603 165.734 106.514C165.587 106.425 165.414 106.381 165.217 106.381C165.007 106.381 164.822 106.432 164.663 106.534C164.504 106.634 164.38 106.767 164.291 106.932C164.204 107.095 164.16 107.274 164.158 107.469V108.074C164.158 108.328 164.204 108.545 164.297 108.727C164.39 108.907 164.519 109.045 164.686 109.142C164.853 109.237 165.048 109.284 165.271 109.284C165.421 109.284 165.556 109.263 165.678 109.222C165.799 109.178 165.904 109.115 165.993 109.031C166.082 108.948 166.149 108.845 166.195 108.722L167.155 108.83C167.094 109.083 166.979 109.305 166.808 109.494C166.64 109.682 166.424 109.828 166.161 109.932C165.897 110.034 165.596 110.085 165.257 110.085ZM169.096 104.182V110H168.067V104.182H169.096ZM172.085 110.085C171.648 110.085 171.27 109.994 170.952 109.812C170.635 109.629 170.392 109.369 170.222 109.034C170.051 108.697 169.966 108.3 169.966 107.844C169.966 107.395 170.051 107.001 170.222 106.662C170.394 106.321 170.634 106.056 170.943 105.866C171.252 105.675 171.615 105.58 172.031 105.58C172.3 105.58 172.554 105.623 172.793 105.71C173.033 105.795 173.245 105.928 173.429 106.108C173.615 106.288 173.76 106.517 173.866 106.795C173.973 107.072 174.026 107.402 174.026 107.784V108.099H170.449V107.406H173.04C173.038 107.209 172.995 107.034 172.912 106.881C172.829 106.725 172.712 106.603 172.562 106.514C172.415 106.425 172.242 106.381 172.045 106.381C171.835 106.381 171.651 106.432 171.491 106.534C171.332 106.634 171.208 106.767 171.119 106.932C171.032 107.095 170.988 107.274 170.986 107.469V108.074C170.986 108.328 171.032 108.545 171.125 108.727C171.218 108.907 171.348 109.045 171.514 109.142C171.681 109.237 171.876 109.284 172.099 109.284C172.249 109.284 172.384 109.263 172.506 109.222C172.627 109.178 172.732 109.115 172.821 109.031C172.91 108.948 172.977 108.845 173.023 108.722L173.983 108.83C173.922 109.083 173.807 109.305 173.636 109.494C173.468 109.682 173.252 109.828 172.989 109.932C172.725 110.034 172.424 110.085 172.085 110.085ZM177.075 105.636V106.432H174.566V105.636H177.075ZM175.185 104.591H176.214V108.688C176.214 108.826 176.235 108.932 176.276 109.006C176.32 109.078 176.377 109.127 176.447 109.153C176.517 109.18 176.594 109.193 176.68 109.193C176.744 109.193 176.803 109.188 176.856 109.179C176.911 109.17 176.952 109.161 176.981 109.153L177.154 109.957C177.099 109.976 177.021 109.997 176.918 110.02C176.818 110.043 176.695 110.056 176.549 110.06C176.291 110.067 176.059 110.028 175.853 109.943C175.647 109.856 175.483 109.722 175.362 109.54C175.242 109.358 175.183 109.131 175.185 108.858V104.591ZM179.82 110.085C179.382 110.085 179.004 109.994 178.686 109.812C178.37 109.629 178.126 109.369 177.956 109.034C177.786 108.697 177.7 108.3 177.7 107.844C177.7 107.395 177.786 107.001 177.956 106.662C178.128 106.321 178.369 106.056 178.678 105.866C178.986 105.675 179.349 105.58 179.766 105.58C180.035 105.58 180.288 105.623 180.527 105.71C180.768 105.795 180.98 105.928 181.163 106.108C181.349 106.288 181.495 106.517 181.601 106.795C181.707 107.072 181.76 107.402 181.76 107.784V108.099H178.183V107.406H180.774C180.772 107.209 180.73 107.034 180.646 106.881C180.563 106.725 180.446 106.603 180.297 106.514C180.149 106.425 179.977 106.381 179.78 106.381C179.57 106.381 179.385 106.432 179.226 106.534C179.067 106.634 178.943 106.767 178.854 106.932C178.767 107.095 178.722 107.274 178.72 107.469V108.074C178.72 108.328 178.767 108.545 178.859 108.727C178.952 108.907 179.082 109.045 179.249 109.142C179.415 109.237 179.61 109.284 179.834 109.284C179.983 109.284 180.119 109.263 180.24 109.222C180.361 109.178 180.466 109.115 180.555 109.031C180.644 108.948 180.712 108.845 180.757 108.722L181.717 108.83C181.657 109.083 181.541 109.305 181.371 109.494C181.202 109.682 180.986 109.828 180.723 109.932C180.46 110.034 180.159 110.085 179.82 110.085ZM184.614 110V105.636H185.643V110H184.614ZM185.131 105.017C184.969 105.017 184.828 104.963 184.711 104.855C184.594 104.745 184.535 104.614 184.535 104.46C184.535 104.305 184.594 104.173 184.711 104.065C184.828 103.955 184.969 103.901 185.131 103.901C185.296 103.901 185.436 103.955 185.552 104.065C185.669 104.173 185.728 104.305 185.728 104.46C185.728 104.614 185.669 104.745 185.552 104.855C185.436 104.963 185.296 105.017 185.131 105.017ZM188.879 105.636V106.432H186.371V105.636H188.879ZM186.99 104.591H188.018V108.688C188.018 108.826 188.039 108.932 188.081 109.006C188.125 109.078 188.181 109.127 188.251 109.153C188.321 109.18 188.399 109.193 188.484 109.193C188.549 109.193 188.607 109.188 188.661 109.179C188.715 109.17 188.757 109.161 188.786 109.153L188.959 109.957C188.904 109.976 188.825 109.997 188.723 110.02C188.623 110.043 188.5 110.056 188.354 110.06C188.096 110.067 187.864 110.028 187.658 109.943C187.451 109.856 187.287 109.722 187.166 109.54C187.047 109.358 186.988 109.131 186.99 108.858V104.591ZM191.624 110.085C191.187 110.085 190.809 109.994 190.491 109.812C190.174 109.629 189.931 109.369 189.761 109.034C189.59 108.697 189.505 108.3 189.505 107.844C189.505 107.395 189.59 107.001 189.761 106.662C189.933 106.321 190.174 106.056 190.482 105.866C190.791 105.675 191.154 105.58 191.57 105.58C191.839 105.58 192.093 105.623 192.332 105.71C192.572 105.795 192.784 105.928 192.968 106.108C193.154 106.288 193.299 106.517 193.406 106.795C193.512 107.072 193.565 107.402 193.565 107.784V108.099H189.988V107.406H192.579C192.577 107.209 192.534 107.034 192.451 106.881C192.368 106.725 192.251 106.603 192.102 106.514C191.954 106.425 191.781 106.381 191.585 106.381C191.374 106.381 191.19 106.432 191.031 106.534C190.871 106.634 190.747 106.767 190.658 106.932C190.571 107.095 190.527 107.274 190.525 107.469V108.074C190.525 108.328 190.571 108.545 190.664 108.727C190.757 108.907 190.887 109.045 191.053 109.142C191.22 109.237 191.415 109.284 191.638 109.284C191.788 109.284 191.924 109.263 192.045 109.222C192.166 109.178 192.271 109.115 192.36 109.031C192.449 108.948 192.516 108.845 192.562 108.722L193.522 108.83C193.461 109.083 193.346 109.305 193.175 109.494C193.007 109.682 192.791 109.828 192.528 109.932C192.264 110.034 191.963 110.085 191.624 110.085ZM194.435 110V105.636H195.418V106.378H195.469C195.56 106.128 195.71 105.933 195.92 105.793C196.131 105.651 196.382 105.58 196.673 105.58C196.969 105.58 197.218 105.652 197.42 105.795C197.625 105.937 197.769 106.132 197.852 106.378H197.898C197.994 106.135 198.157 105.942 198.386 105.798C198.617 105.652 198.891 105.58 199.207 105.58C199.609 105.58 199.937 105.706 200.19 105.96C200.444 106.214 200.571 106.584 200.571 107.071V110H199.54V107.23C199.54 106.959 199.468 106.761 199.324 106.636C199.18 106.509 199.004 106.446 198.795 106.446C198.547 106.446 198.353 106.524 198.213 106.679C198.075 106.832 198.006 107.032 198.006 107.278V110H196.997V107.188C196.997 106.962 196.929 106.782 196.793 106.648C196.658 106.513 196.482 106.446 196.264 106.446C196.116 106.446 195.982 106.484 195.861 106.56C195.74 106.634 195.643 106.739 195.571 106.875C195.499 107.009 195.463 107.167 195.463 107.347V110H194.435ZM202.597 108.29V108.216C202.599 107.873 202.631 107.6 202.694 107.398C202.758 107.195 202.849 107.032 202.967 106.909C203.084 106.784 203.227 106.67 203.396 106.565C203.511 106.493 203.614 106.415 203.705 106.33C203.798 106.242 203.871 106.146 203.924 106.04C203.977 105.932 204.004 105.812 204.004 105.679C204.004 105.529 203.969 105.4 203.898 105.29C203.828 105.18 203.734 105.095 203.614 105.034C203.497 104.973 203.365 104.943 203.219 104.943C203.085 104.943 202.957 104.973 202.836 105.031C202.717 105.088 202.617 105.175 202.538 105.293C202.46 105.408 202.416 105.555 202.407 105.733H201.396C201.405 105.373 201.492 105.072 201.657 104.83C201.824 104.587 202.043 104.405 202.316 104.284C202.591 104.163 202.894 104.102 203.225 104.102C203.587 104.102 203.905 104.166 204.18 104.293C204.456 104.42 204.671 104.6 204.825 104.835C204.98 105.068 205.058 105.345 205.058 105.665C205.058 105.881 205.022 106.074 204.952 106.244C204.884 106.415 204.787 106.566 204.66 106.699C204.533 106.831 204.382 106.95 204.208 107.054C204.055 107.149 203.929 107.247 203.83 107.349C203.734 107.452 203.662 107.572 203.614 107.71C203.569 107.847 203.545 108.015 203.543 108.216V108.29H202.597ZM203.092 110.062C202.921 110.062 202.774 110.002 202.651 109.881C202.528 109.759 202.467 109.612 202.467 109.438C202.467 109.267 202.528 109.121 202.651 109C202.774 108.879 202.921 108.818 203.092 108.818C203.26 108.818 203.406 108.879 203.529 109C203.654 109.121 203.717 109.267 203.717 109.438C203.717 109.553 203.687 109.658 203.629 109.753C203.572 109.848 203.496 109.923 203.401 109.98C203.308 110.035 203.205 110.062 203.092 110.062Z" fill="#525252"/>
<path fill-rule="evenodd" clip-rule="evenodd" d="M294.269 101.205C294.432 101.368 294.433 101.631 294.27 101.795L292.088 103.988L294.295 106.207C294.458 106.37 294.457 106.634 294.294 106.796C294.131 106.958 293.867 106.958 293.705 106.795L291.5 104.579L289.295 106.795C289.133 106.958 288.869 106.958 288.706 106.796C288.543 106.634 288.542 106.37 288.705 106.207L290.912 103.988L288.73 101.795C288.567 101.631 288.568 101.368 288.731 101.205C288.894 101.043 289.158 101.044 289.32 101.207L291.5 103.397L293.68 101.207C293.842 101.044 294.106 101.043 294.269 101.205Z" fill="#CCCCCC"/>
<rect x="157.5" y="122.5" width="136" height="32" rx="5.5" fill="#F5F5F5"/>
<rect x="157.5" y="122.5" width="136" height="32" rx="5.5" stroke="#E2E0E0"/>
<path fill-rule="evenodd" clip-rule="evenodd" d="M168 129.667C166.159 129.667 164.667 131.16 164.667 133.001C164.667 134.842 166.159 136.334 168 136.334C169.841 136.334 171.333 134.842 171.333 133.001C171.333 131.16 169.841 129.667 168 129.667ZM163.833 133.001C163.833 130.699 165.699 128.834 168 128.834C170.301 128.834 172.167 130.699 172.167 133.001C172.167 135.302 170.301 137.167 168 137.167C165.699 137.167 163.833 135.302 163.833 133.001ZM168 130.917C168.23 130.917 168.417 131.104 168.417 131.334V133.417C168.417 133.647 168.23 133.834 168 133.834C167.77 133.834 167.583 133.647 167.583 133.417V131.334C167.583 131.104 167.77 130.917 168 130.917ZM167.583 134.667C167.583 134.437 167.77 134.251 168 134.251H168.004C168.234 134.251 168.421 134.437 168.421 134.667C168.421 134.897 168.234 135.084 168.004 135.084H168C167.77 135.084 167.583 134.897 167.583 134.667Z" fill="#C5C5CC"/>
<path d="M180.349 134L179.117 129.636H179.967L180.754 132.843H180.794L181.634 129.636H182.407L183.249 132.845H183.287L184.073 129.636H184.923L183.692 134H182.912L182.038 130.938H182.004L181.129 134H180.349ZM186.045 134.066C185.838 134.066 185.651 134.029 185.485 133.955C185.32 133.88 185.189 133.769 185.093 133.623C184.998 133.477 184.95 133.296 184.95 133.082C184.95 132.897 184.984 132.744 185.052 132.624C185.12 132.503 185.213 132.406 185.331 132.334C185.449 132.261 185.582 132.207 185.73 132.17C185.879 132.131 186.033 132.104 186.192 132.087C186.384 132.067 186.539 132.049 186.659 132.033C186.778 132.016 186.865 131.991 186.919 131.957C186.974 131.921 187.002 131.866 187.002 131.793V131.78C187.002 131.619 186.954 131.495 186.859 131.407C186.764 131.319 186.627 131.275 186.448 131.275C186.259 131.275 186.109 131.316 185.998 131.398C185.889 131.481 185.815 131.578 185.777 131.69L185.056 131.588C185.113 131.389 185.207 131.223 185.338 131.089C185.468 130.955 185.628 130.854 185.817 130.787C186.006 130.719 186.215 130.685 186.444 130.685C186.601 130.685 186.758 130.703 186.914 130.74C187.071 130.777 187.213 130.838 187.343 130.923C187.472 131.007 187.576 131.121 187.654 131.266C187.733 131.411 187.773 131.592 187.773 131.81V134H187.032V133.55H187.006C186.959 133.641 186.893 133.727 186.808 133.806C186.724 133.884 186.618 133.947 186.49 133.996C186.364 134.043 186.216 134.066 186.045 134.066ZM186.245 133.499C186.4 133.499 186.534 133.469 186.648 133.408C186.762 133.345 186.849 133.263 186.91 133.161C186.973 133.058 187.004 132.947 187.004 132.826V132.44C186.98 132.46 186.939 132.479 186.88 132.496C186.824 132.513 186.76 132.528 186.689 132.54C186.618 132.553 186.547 132.565 186.478 132.575C186.408 132.585 186.348 132.593 186.297 132.6C186.181 132.616 186.078 132.641 185.988 132.677C185.897 132.712 185.825 132.762 185.772 132.826C185.72 132.888 185.694 132.969 185.694 133.069C185.694 133.211 185.745 133.318 185.849 133.391C185.953 133.463 186.085 133.499 186.245 133.499ZM188.549 134V130.727H189.297V131.273H189.331C189.39 131.084 189.493 130.938 189.637 130.836C189.784 130.732 189.951 130.68 190.138 130.68C190.181 130.68 190.228 130.683 190.281 130.687C190.335 130.69 190.38 130.695 190.415 130.702V131.411C190.382 131.4 190.331 131.39 190.26 131.381C190.19 131.371 190.123 131.366 190.057 131.366C189.917 131.366 189.79 131.397 189.678 131.458C189.567 131.518 189.48 131.601 189.416 131.707C189.352 131.814 189.32 131.937 189.32 132.076V134H188.549ZM191.699 132.082V134H190.928V130.727H191.665V131.283H191.703C191.778 131.1 191.898 130.955 192.063 130.847C192.229 130.739 192.435 130.685 192.679 130.685C192.905 130.685 193.102 130.733 193.269 130.83C193.438 130.926 193.569 131.066 193.661 131.249C193.755 131.433 193.801 131.655 193.8 131.916V134H193.028V132.036C193.028 131.817 192.972 131.646 192.858 131.522C192.746 131.398 192.59 131.337 192.391 131.337C192.256 131.337 192.136 131.366 192.031 131.426C191.928 131.484 191.846 131.569 191.786 131.68C191.728 131.79 191.699 131.925 191.699 132.082ZM194.584 134V130.727H195.355V134H194.584ZM194.972 130.263C194.849 130.263 194.744 130.222 194.656 130.141C194.568 130.059 194.524 129.96 194.524 129.845C194.524 129.729 194.568 129.63 194.656 129.549C194.744 129.467 194.849 129.425 194.972 129.425C195.095 129.425 195.2 129.467 195.287 129.549C195.375 129.63 195.419 129.729 195.419 129.845C195.419 129.96 195.375 130.059 195.287 130.141C195.2 130.222 195.095 130.263 194.972 130.263ZM196.92 132.082V134H196.148V130.727H196.885V131.283H196.924C196.999 131.1 197.119 130.955 197.284 130.847C197.45 130.739 197.655 130.685 197.9 130.685C198.126 130.685 198.322 130.733 198.49 130.83C198.659 130.926 198.79 131.066 198.882 131.249C198.976 131.433 199.022 131.655 199.02 131.916V134H198.249V132.036C198.249 131.817 198.192 131.646 198.079 131.522C197.966 131.398 197.811 131.337 197.612 131.337C197.477 131.337 197.357 131.366 197.252 131.426C197.148 131.484 197.067 131.569 197.007 131.68C196.949 131.79 196.92 131.925 196.92 132.082ZM201.228 135.295C200.951 135.295 200.713 135.258 200.514 135.183C200.315 135.109 200.155 135.009 200.035 134.884C199.914 134.759 199.83 134.621 199.783 134.469L200.478 134.3C200.509 134.364 200.555 134.428 200.614 134.49C200.674 134.554 200.754 134.607 200.855 134.648C200.957 134.69 201.086 134.712 201.241 134.712C201.459 134.712 201.64 134.658 201.784 134.552C201.927 134.447 201.999 134.273 201.999 134.032V133.412H201.961C201.921 133.491 201.863 133.573 201.786 133.657C201.711 133.741 201.611 133.811 201.486 133.868C201.362 133.925 201.206 133.953 201.019 133.953C200.768 133.953 200.54 133.894 200.335 133.776C200.132 133.657 199.97 133.479 199.849 133.244C199.73 133.006 199.67 132.71 199.67 132.353C199.67 131.994 199.73 131.69 199.849 131.443C199.97 131.195 200.133 131.006 200.337 130.879C200.542 130.749 200.77 130.685 201.021 130.685C201.213 130.685 201.371 130.717 201.494 130.783C201.619 130.847 201.719 130.924 201.792 131.015C201.866 131.104 201.922 131.189 201.961 131.268H202.003V130.727H202.764V134.053C202.764 134.333 202.697 134.565 202.564 134.748C202.43 134.931 202.248 135.068 202.016 135.159C201.785 135.25 201.522 135.295 201.228 135.295ZM201.234 133.348C201.398 133.348 201.537 133.308 201.652 133.229C201.767 133.149 201.854 133.035 201.914 132.886C201.974 132.737 202.003 132.558 202.003 132.349C202.003 132.143 201.974 131.962 201.914 131.808C201.856 131.653 201.769 131.533 201.654 131.447C201.54 131.361 201.4 131.317 201.234 131.317C201.062 131.317 200.919 131.362 200.804 131.452C200.689 131.541 200.602 131.664 200.544 131.82C200.486 131.975 200.456 132.151 200.456 132.349C200.456 132.549 200.486 132.724 200.544 132.875C200.604 133.024 200.691 133.141 200.806 133.224C200.922 133.307 201.065 133.348 201.234 133.348Z" fill="#525252"/>
<rect x="179" y="139" width="81" height="3" rx="1.5" fill="#E7E7E7"/>
<rect x="179" y="146" width="58" height="3" rx="1.5" fill="#E7E7E7"/>
<rect x="157" y="165" width="35" height="14" rx="4" fill="#303030"/>
<path d="M166.5 172H182.5" stroke="white" stroke-width="2" stroke-linecap="round"/>
<rect x="202.5" y="165.5" width="32" height="13" rx="3.5" stroke="#CCCCCC"/>
<path d="M210.5 172H226.5" stroke="#CCCCCC" stroke-width="2" stroke-linecap="round"/>
</g>
<defs>
<clipPath id="clip0_580_2062">
<rect width="451.33" height="281" fill="white"/>
</clipPath>
</defs>
</svg>
