<svg width="452" height="281" viewBox="0 0 452 281" fill="none" xmlns="http://www.w3.org/2000/svg">
<g clip-path="url(#clip0_510_6150)">
<path d="M451.33 0H0V281H451.33V0Z" fill="#F4F4F6"/>
<path d="M33.8499 0V281" stroke="#EAEAEA" stroke-width="0.8"/>
<path d="M417.48 0V281" stroke="#EAEAEA" stroke-width="0.8"/>
<path d="M0 31.6133H451.33" stroke="#EAEAEA" stroke-width="0.8"/>
<path d="M0 249.387H451.33" stroke="#EAEAEA" stroke-width="0.8"/>
<rect x="33.5" y="29.5" width="384" height="222" rx="11.5" fill="white"/>
<rect x="33.5" y="29.5" width="384" height="222" rx="11.5" stroke="#E2E0E0"/>
<rect x="81.5" y="71.5" width="288" height="138" rx="7.5" fill="#FBFBFB"/>
<rect x="81.5" y="71.5" width="288" height="138" rx="7.5" stroke="#EDEDED"/>
<mask id="path-8-inside-1_510_6150" fill="white">
<path d="M91 81H360V117H91V81Z"/>
</mask>
<path d="M360 117V116H91V117V118H360V117Z" fill="#EDEDED" mask="url(#path-8-inside-1_510_6150)"/>
<rect x="91" y="81" width="26" height="4" rx="2" fill="#EAEAEA"/>
<path d="M93.6222 97.0795C93.1979 97.0795 92.8201 97.0066 92.4886 96.8608C92.1591 96.7131 91.8987 96.5104 91.7074 96.2528C91.518 95.9934 91.4205 95.6941 91.4148 95.3551H92.6534C92.661 95.4972 92.7074 95.6222 92.7926 95.7301C92.8797 95.8362 92.9953 95.9186 93.1392 95.9773C93.2831 96.036 93.4451 96.0653 93.625 96.0653C93.8125 96.0653 93.9782 96.0322 94.1222 95.9659C94.2661 95.8996 94.3788 95.8078 94.4602 95.6903C94.5417 95.5729 94.5824 95.4375 94.5824 95.2841C94.5824 95.1288 94.5388 94.9915 94.4517 94.8722C94.3665 94.7509 94.2434 94.6562 94.0824 94.5881C93.9233 94.5199 93.7339 94.4858 93.5142 94.4858H92.9716V93.5824H93.5142C93.6998 93.5824 93.8636 93.5502 94.0057 93.4858C94.1496 93.4214 94.2614 93.3324 94.3409 93.2188C94.4205 93.1032 94.4602 92.9688 94.4602 92.8153C94.4602 92.6695 94.4252 92.5417 94.3551 92.4318C94.2869 92.3201 94.1903 92.233 94.0653 92.1705C93.9422 92.108 93.7983 92.0767 93.6335 92.0767C93.4669 92.0767 93.3144 92.107 93.1761 92.1676C93.0379 92.2263 92.9271 92.3106 92.8438 92.4205C92.7604 92.5303 92.7159 92.6591 92.7102 92.8068H91.5312C91.5369 92.4716 91.6326 92.1761 91.8182 91.9205C92.0038 91.6648 92.2538 91.465 92.5682 91.321C92.8845 91.1752 93.2415 91.1023 93.6392 91.1023C94.0407 91.1023 94.392 91.1752 94.6932 91.321C94.9943 91.4669 95.2282 91.6638 95.3949 91.9119C95.5634 92.1581 95.6468 92.4347 95.6449 92.7415C95.6468 93.0672 95.5455 93.339 95.3409 93.5568C95.1383 93.7746 94.8741 93.9129 94.5483 93.9716V94.017C94.9763 94.072 95.3021 94.2206 95.5256 94.4631C95.7509 94.7036 95.8627 95.0047 95.8608 95.3665C95.8627 95.6979 95.767 95.9924 95.5739 96.25C95.3826 96.5076 95.1184 96.7102 94.7812 96.858C94.4441 97.0057 94.0578 97.0795 93.6222 97.0795ZM96.657 95.9773V95.0085L99.0859 91.1818H99.9212V92.5227H99.4268L97.8956 94.946V94.9915H101.347V95.9773H96.657ZM99.4496 97V95.6818L99.4723 95.2528V91.1818H100.626V97H99.4496ZM104.292 97.0795C103.89 97.0795 103.532 97.0057 103.218 96.858C102.906 96.7102 102.657 96.5066 102.474 96.2472C102.29 95.9877 102.194 95.6903 102.187 95.3551H103.38C103.393 95.5805 103.488 95.7633 103.664 95.9034C103.84 96.0436 104.049 96.1136 104.292 96.1136C104.485 96.1136 104.656 96.071 104.803 95.9858C104.953 95.8987 105.069 95.7784 105.153 95.625C105.238 95.4697 105.281 95.2917 105.281 95.0909C105.281 94.8864 105.237 94.7064 105.15 94.5511C105.065 94.3958 104.946 94.2746 104.795 94.1875C104.643 94.1004 104.47 94.0559 104.275 94.054C104.104 94.054 103.939 94.089 103.778 94.1591C103.619 94.2292 103.495 94.3248 103.406 94.446L102.312 94.25L102.587 91.1818H106.144V92.1875H103.602L103.451 93.6449H103.485C103.587 93.5009 103.742 93.3816 103.948 93.2869C104.155 93.1922 104.386 93.1449 104.641 93.1449C104.992 93.1449 105.304 93.2273 105.579 93.392C105.853 93.5568 106.07 93.7831 106.229 94.071C106.388 94.357 106.467 94.6866 106.465 95.0597C106.467 95.4517 106.376 95.8002 106.192 96.1051C106.011 96.4081 105.756 96.6468 105.428 96.821C105.103 96.9934 104.724 97.0795 104.292 97.0795ZM108.431 95.7443L108.434 94.2926H108.61L110.008 92.6364H111.397L109.519 94.8295H109.232L108.431 95.7443ZM107.335 97V91.1818H108.545V97H107.335ZM110.062 97L108.778 95.0994L109.585 94.2443L111.479 97H110.062Z" fill="#525252"/>
<rect x="91" y="103" width="42" height="4" rx="2" fill="#EAEAEA"/>
<rect x="158.25" y="81" width="26" height="4" rx="2" fill="#EAEAEA"/>
<path d="M160.892 97.0795C160.455 97.0795 160.065 97.0085 159.724 96.8665C159.385 96.7225 159.119 96.5265 158.926 96.2784C158.733 96.0303 158.636 95.7491 158.636 95.4347C158.636 95.1922 158.691 94.9697 158.801 94.767C158.913 94.5625 159.064 94.393 159.256 94.2585C159.447 94.1222 159.661 94.035 159.898 93.9972V93.9574C159.587 93.8949 159.335 93.7443 159.142 93.5057C158.949 93.2652 158.852 92.9858 158.852 92.6676C158.852 92.3665 158.94 92.0985 159.116 91.8636C159.293 91.6269 159.534 91.4413 159.841 91.3068C160.15 91.1705 160.5 91.1023 160.892 91.1023C161.284 91.1023 161.634 91.1705 161.94 91.3068C162.249 91.4432 162.491 91.6297 162.668 91.8665C162.844 92.1013 162.933 92.3684 162.935 92.6676C162.933 92.9877 162.834 93.267 162.639 93.5057C162.444 93.7443 162.194 93.8949 161.889 93.9574V93.9972C162.122 94.035 162.333 94.1222 162.523 94.2585C162.714 94.393 162.866 94.5625 162.977 94.767C163.091 94.9697 163.149 95.1922 163.151 95.4347C163.149 95.7491 163.051 96.0303 162.858 96.2784C162.665 96.5265 162.398 96.7225 162.057 96.8665C161.718 97.0085 161.33 97.0795 160.892 97.0795ZM160.892 96.1761C161.087 96.1761 161.258 96.1411 161.403 96.071C161.549 95.9991 161.663 95.9006 161.744 95.7756C161.828 95.6487 161.869 95.5028 161.869 95.3381C161.869 95.1695 161.827 95.0208 161.741 94.892C161.656 94.7614 161.541 94.6591 161.395 94.5852C161.249 94.5095 161.081 94.4716 160.892 94.4716C160.705 94.4716 160.537 94.5095 160.389 94.5852C160.241 94.6591 160.125 94.7614 160.04 94.892C159.956 95.0208 159.915 95.1695 159.915 95.3381C159.915 95.5028 159.955 95.6487 160.037 95.7756C160.118 95.9006 160.233 95.9991 160.381 96.071C160.528 96.1411 160.699 96.1761 160.892 96.1761ZM160.892 93.5767C161.055 93.5767 161.2 93.5436 161.327 93.4773C161.454 93.411 161.553 93.3191 161.625 93.2017C161.697 93.0843 161.733 92.9489 161.733 92.7955C161.733 92.6439 161.697 92.5114 161.625 92.3977C161.553 92.2822 161.455 92.1922 161.33 92.1278C161.205 92.0616 161.059 92.0284 160.892 92.0284C160.727 92.0284 160.581 92.0616 160.455 92.1278C160.328 92.1922 160.228 92.2822 160.156 92.3977C160.086 92.5114 160.051 92.6439 160.051 92.7955C160.051 92.9489 160.087 93.0843 160.159 93.2017C160.231 93.3191 160.33 93.411 160.457 93.4773C160.584 93.5436 160.729 93.5767 160.892 93.5767ZM164.241 97L166.653 92.2273V92.1875H163.843V91.1818H167.925V92.2017L165.511 97H164.241ZM170.795 91.1023C171.095 91.1023 171.383 91.1525 171.659 91.2528C171.938 91.3532 172.186 91.5133 172.403 91.733C172.623 91.9527 172.796 92.2443 172.923 92.608C173.052 92.9697 173.117 93.4138 173.119 93.9403C173.119 94.4347 173.063 94.8759 172.952 95.2642C172.842 95.6506 172.684 95.9792 172.477 96.25C172.271 96.5208 172.022 96.7273 171.73 96.8693C171.438 97.0095 171.113 97.0795 170.753 97.0795C170.365 97.0795 170.022 97.0047 169.724 96.8551C169.427 96.7036 169.188 96.4981 169.006 96.2386C168.826 95.9773 168.717 95.6837 168.679 95.358H169.892C169.939 95.5701 170.039 95.7348 170.19 95.8523C170.342 95.9678 170.529 96.0256 170.753 96.0256C171.132 96.0256 171.42 95.8608 171.616 95.5312C171.813 95.1998 171.913 94.7462 171.915 94.1705H171.875C171.788 94.3409 171.67 94.4877 171.523 94.6108C171.375 94.732 171.205 94.8258 171.014 94.892C170.825 94.9583 170.623 94.9915 170.409 94.9915C170.066 94.9915 169.76 94.911 169.491 94.75C169.223 94.589 169.01 94.3674 168.855 94.0852C168.7 93.803 168.622 93.4811 168.622 93.1193C168.62 92.7292 168.71 92.3816 168.892 92.0767C169.074 91.7718 169.328 91.5331 169.653 91.3608C169.981 91.1866 170.362 91.1004 170.795 91.1023ZM170.804 92.0682C170.613 92.0682 170.442 92.1136 170.293 92.2045C170.145 92.2955 170.027 92.4176 169.94 92.571C169.855 92.7244 169.813 92.8958 169.815 93.0852C169.815 93.2765 169.857 93.4489 169.94 93.6023C170.026 93.7538 170.141 93.875 170.287 93.9659C170.435 94.0549 170.603 94.0994 170.793 94.0994C170.935 94.0994 171.066 94.0729 171.188 94.0199C171.309 93.9669 171.414 93.8939 171.503 93.8011C171.594 93.7064 171.665 93.5975 171.716 93.4744C171.767 93.3513 171.793 93.2206 171.793 93.0824C171.791 92.8987 171.747 92.7301 171.662 92.5767C171.577 92.4233 171.459 92.3002 171.31 92.2074C171.16 92.1146 170.991 92.0682 170.804 92.0682ZM174.456 97.0739C174.268 97.0739 174.107 97.0076 173.973 96.875C173.84 96.7405 173.774 96.5795 173.774 96.392C173.774 96.2064 173.84 96.0473 173.973 95.9148C174.107 95.7822 174.268 95.7159 174.456 95.7159C174.638 95.7159 174.797 95.7822 174.933 95.9148C175.07 96.0473 175.138 96.2064 175.138 96.392C175.138 96.517 175.106 96.6316 175.041 96.7358C174.979 96.8381 174.896 96.9205 174.794 96.983C174.692 97.0436 174.579 97.0739 174.456 97.0739ZM178.056 97.0795C177.619 97.0795 177.229 97.0085 176.888 96.8665C176.549 96.7225 176.283 96.5265 176.09 96.2784C175.897 96.0303 175.8 95.7491 175.8 95.4347C175.8 95.1922 175.855 94.9697 175.965 94.767C176.077 94.5625 176.228 94.393 176.42 94.2585C176.611 94.1222 176.825 94.035 177.062 93.9972V93.9574C176.751 93.8949 176.499 93.7443 176.306 93.5057C176.113 93.2652 176.016 92.9858 176.016 92.6676C176.016 92.3665 176.104 92.0985 176.281 91.8636C176.457 91.6269 176.698 91.4413 177.005 91.3068C177.314 91.1705 177.664 91.1023 178.056 91.1023C178.448 91.1023 178.798 91.1705 179.104 91.3068C179.413 91.4432 179.656 91.6297 179.832 91.8665C180.008 92.1013 180.097 92.3684 180.099 92.6676C180.097 92.9877 179.998 93.267 179.803 93.5057C179.608 93.7443 179.358 93.8949 179.053 93.9574V93.9972C179.286 94.035 179.497 94.1222 179.687 94.2585C179.878 94.393 180.03 94.5625 180.141 94.767C180.255 94.9697 180.313 95.1922 180.315 95.4347C180.313 95.7491 180.215 96.0303 180.022 96.2784C179.829 96.5265 179.562 96.7225 179.221 96.8665C178.882 97.0085 178.494 97.0795 178.056 97.0795ZM178.056 96.1761C178.251 96.1761 178.422 96.1411 178.567 96.071C178.713 95.9991 178.827 95.9006 178.908 95.7756C178.992 95.6487 179.033 95.5028 179.033 95.3381C179.033 95.1695 178.991 95.0208 178.906 94.892C178.82 94.7614 178.705 94.6591 178.559 94.5852C178.413 94.5095 178.246 94.4716 178.056 94.4716C177.869 94.4716 177.701 94.5095 177.553 94.5852C177.406 94.6591 177.289 94.7614 177.204 94.892C177.121 95.0208 177.079 95.1695 177.079 95.3381C177.079 95.5028 177.12 95.6487 177.201 95.7756C177.282 95.9006 177.397 95.9991 177.545 96.071C177.692 96.1411 177.863 96.1761 178.056 96.1761ZM178.056 93.5767C178.219 93.5767 178.364 93.5436 178.491 93.4773C178.618 93.411 178.717 93.3191 178.789 93.2017C178.861 93.0843 178.897 92.9489 178.897 92.7955C178.897 92.6439 178.861 92.5114 178.789 92.3977C178.717 92.2822 178.619 92.1922 178.494 92.1278C178.369 92.0616 178.223 92.0284 178.056 92.0284C177.891 92.0284 177.746 92.0616 177.619 92.1278C177.492 92.1922 177.392 92.2822 177.32 92.3977C177.25 92.5114 177.215 92.6439 177.215 92.7955C177.215 92.9489 177.251 93.0843 177.323 93.2017C177.395 93.3191 177.495 93.411 177.621 93.4773C177.748 93.5436 177.893 93.5767 178.056 93.5767Z" fill="#525252"/>
<rect x="158.25" y="103" width="47" height="4" rx="2" fill="#EAEAEA"/>
<rect x="225.5" y="81" width="26" height="4" rx="2" fill="#EAEAEA"/>
<path d="M226.202 97L228.614 92.2273V92.1875H225.804V91.1818H229.886V92.2017L227.472 97H226.202ZM232.837 97.0795C232.538 97.0777 232.249 97.0275 231.971 96.929C231.694 96.8305 231.446 96.6705 231.227 96.4489C231.007 96.2273 230.833 95.9337 230.704 95.5682C230.577 95.2027 230.513 94.7538 230.513 94.2216C230.515 93.733 230.571 93.2964 230.681 92.9119C230.793 92.5256 230.952 92.1979 231.158 91.929C231.367 91.66 231.616 91.4555 231.906 91.3153C232.195 91.1733 232.52 91.1023 232.88 91.1023C233.268 91.1023 233.611 91.178 233.908 91.3295C234.206 91.4792 234.444 91.6828 234.624 91.9403C234.806 92.1979 234.916 92.4867 234.954 92.8068H233.741C233.693 92.6042 233.594 92.4451 233.442 92.3295C233.291 92.214 233.103 92.1562 232.88 92.1562C232.501 92.1562 232.213 92.321 232.016 92.6506C231.821 92.9801 231.722 93.428 231.718 93.9943H231.758C231.845 93.822 231.962 93.6752 232.11 93.554C232.26 93.4309 232.429 93.3371 232.619 93.2727C232.81 93.2064 233.012 93.1733 233.224 93.1733C233.568 93.1733 233.875 93.2547 234.144 93.4176C234.413 93.5786 234.625 93.8002 234.781 94.0824C234.936 94.3646 235.013 94.6875 235.013 95.0511C235.013 95.4451 234.922 95.7955 234.738 96.1023C234.556 96.4091 234.301 96.6496 233.974 96.8239C233.648 96.9962 233.269 97.0814 232.837 97.0795ZM232.832 96.1136C233.021 96.1136 233.191 96.0682 233.34 95.9773C233.49 95.8864 233.607 95.7633 233.692 95.608C233.778 95.4527 233.82 95.2784 233.82 95.0852C233.82 94.892 233.778 94.7187 233.692 94.5653C233.609 94.4119 233.494 94.2898 233.346 94.1989C233.198 94.108 233.03 94.0625 232.84 94.0625C232.698 94.0625 232.567 94.089 232.445 94.142C232.326 94.1951 232.221 94.2689 232.13 94.3636C232.041 94.4583 231.971 94.5682 231.92 94.6932C231.869 94.8163 231.843 94.9479 231.843 95.0881C231.843 95.2756 231.886 95.447 231.971 95.6023C232.058 95.7576 232.175 95.8816 232.323 95.9744C232.473 96.0672 232.642 96.1136 232.832 96.1136ZM239.07 95.9091V95.6023C239.07 95.3693 239.12 95.1553 239.218 94.9602C239.318 94.7633 239.463 94.6061 239.653 94.4886C239.844 94.3693 240.077 94.3097 240.352 94.3097C240.63 94.3097 240.864 94.3684 241.053 94.4858C241.245 94.6032 241.388 94.7604 241.485 94.9574C241.584 95.1525 241.633 95.3674 241.633 95.6023V95.9091C241.633 96.142 241.584 96.357 241.485 96.554C241.387 96.7491 241.242 96.9053 241.05 97.0227C240.859 97.142 240.626 97.2017 240.352 97.2017C240.073 97.2017 239.839 97.142 239.65 97.0227C239.46 96.9053 239.317 96.7491 239.218 96.554C239.12 96.357 239.07 96.142 239.07 95.9091ZM239.897 95.6023V95.9091C239.897 96.0436 239.929 96.1705 239.994 96.2898C240.06 96.4091 240.179 96.4688 240.352 96.4688C240.524 96.4688 240.641 96.41 240.704 96.2926C240.768 96.1752 240.8 96.0473 240.8 95.9091V95.6023C240.8 95.464 240.77 95.3352 240.71 95.2159C240.649 95.0966 240.53 95.0369 240.352 95.0369C240.181 95.0369 240.063 95.0966 239.996 95.2159C239.93 95.3352 239.897 95.464 239.897 95.6023ZM236.085 92.5795V92.2727C236.085 92.0379 236.135 91.8229 236.235 91.6278C236.335 91.4309 236.48 91.2737 236.67 91.1562C236.861 91.0388 237.092 90.9801 237.363 90.9801C237.643 90.9801 237.878 91.0388 238.067 91.1562C238.257 91.2737 238.401 91.4309 238.499 91.6278C238.598 91.8229 238.647 92.0379 238.647 92.2727V92.5795C238.647 92.8144 238.597 93.0294 238.496 93.2244C238.398 93.4195 238.253 93.5758 238.062 93.6932C237.872 93.8087 237.639 93.8665 237.363 93.8665C237.086 93.8665 236.853 93.8078 236.661 93.6903C236.472 93.571 236.328 93.4148 236.229 93.2216C236.133 93.0265 236.085 92.8125 236.085 92.5795ZM236.917 92.2727V92.5795C236.917 92.7178 236.949 92.8456 237.013 92.9631C237.08 93.0805 237.196 93.1392 237.363 93.1392C237.537 93.1392 237.656 93.0805 237.718 92.9631C237.782 92.8456 237.815 92.7178 237.815 92.5795V92.2727C237.815 92.1345 237.784 92.0057 237.724 91.8864C237.663 91.767 237.543 91.7074 237.363 91.7074C237.194 91.7074 237.078 91.768 237.013 91.8892C236.949 92.0104 236.917 92.1383 236.917 92.2727ZM236.46 97L240.46 91.1818H241.204L237.204 97H236.46Z" fill="#525252"/>
<rect x="225.5" y="103" width="40" height="4" rx="2" fill="#EAEAEA"/>
<rect x="292.75" y="81" width="26" height="4" rx="2" fill="#EAEAEA"/>
<path d="M295.176 97.7273V90.4545H295.642V97.7273H295.176ZM296.412 92.8551C296.389 92.6259 296.292 92.4479 296.119 92.321C295.947 92.1941 295.713 92.1307 295.418 92.1307C295.217 92.1307 295.047 92.1591 294.909 92.2159C294.771 92.2708 294.665 92.3475 294.591 92.446C294.519 92.5445 294.483 92.6562 294.483 92.7812C294.479 92.8854 294.501 92.9763 294.548 93.054C294.598 93.1316 294.665 93.1989 294.75 93.2557C294.835 93.3106 294.934 93.3589 295.045 93.4006C295.157 93.4403 295.277 93.4744 295.403 93.5028L295.926 93.6278C296.18 93.6847 296.413 93.7604 296.625 93.8551C296.837 93.9498 297.021 94.0663 297.176 94.2045C297.331 94.3428 297.452 94.5057 297.537 94.6932C297.624 94.8807 297.669 95.0956 297.67 95.3381C297.669 95.6941 297.578 96.0028 297.398 96.2642C297.22 96.5237 296.962 96.7254 296.625 96.8693C296.29 97.0114 295.885 97.0824 295.412 97.0824C294.942 97.0824 294.533 97.0104 294.185 96.8665C293.838 96.7225 293.567 96.5095 293.372 96.2273C293.179 95.9432 293.078 95.5919 293.068 95.1733H294.259C294.272 95.3684 294.328 95.5312 294.426 95.6619C294.527 95.7907 294.66 95.8883 294.827 95.9545C294.995 96.0189 295.186 96.0511 295.398 96.0511C295.606 96.0511 295.787 96.0208 295.94 95.9602C296.096 95.8996 296.216 95.8153 296.301 95.7074C296.386 95.5994 296.429 95.4754 296.429 95.3352C296.429 95.2045 296.39 95.0947 296.312 95.0057C296.237 94.9167 296.125 94.8409 295.977 94.7784C295.831 94.7159 295.652 94.6591 295.44 94.608L294.807 94.4489C294.316 94.3295 293.929 94.143 293.645 93.8892C293.361 93.6354 293.22 93.2936 293.222 92.8636C293.22 92.5114 293.313 92.2036 293.503 91.9403C293.694 91.6771 293.956 91.4716 294.29 91.3239C294.623 91.1761 295.002 91.1023 295.426 91.1023C295.858 91.1023 296.235 91.1761 296.557 91.3239C296.881 91.4716 297.133 91.6771 297.312 91.9403C297.492 92.2036 297.585 92.5085 297.591 92.8551H296.412ZM300.995 91.1818V97H299.765V92.3494H299.731L298.398 93.1847V92.0938L299.839 91.1818H300.995ZM303.392 96.2045L303.361 96.517C303.336 96.767 303.289 97.0161 303.219 97.2642C303.151 97.5142 303.079 97.7405 303.003 97.9432C302.929 98.1458 302.869 98.3049 302.824 98.4205H302.04C302.068 98.3087 302.107 98.1525 302.156 97.9517C302.205 97.7528 302.252 97.5294 302.295 97.2812C302.339 97.0331 302.366 96.7803 302.378 96.5227L302.392 96.2045H303.392ZM306.483 91.1023C306.782 91.1023 307.07 91.1525 307.347 91.2528C307.625 91.3532 307.873 91.5133 308.091 91.733C308.311 91.9527 308.484 92.2443 308.611 92.608C308.74 92.9697 308.805 93.4138 308.807 93.9403C308.807 94.4347 308.751 94.8759 308.639 95.2642C308.529 95.6506 308.371 95.9792 308.165 96.25C307.958 96.5208 307.709 96.7273 307.418 96.8693C307.126 97.0095 306.8 97.0795 306.44 97.0795C306.052 97.0795 305.709 97.0047 305.412 96.8551C305.115 96.7036 304.875 96.4981 304.693 96.2386C304.513 95.9773 304.404 95.6837 304.366 95.358H305.58C305.627 95.5701 305.726 95.7348 305.878 95.8523C306.029 95.9678 306.217 96.0256 306.44 96.0256C306.819 96.0256 307.107 95.8608 307.304 95.5312C307.501 95.1998 307.6 94.7462 307.602 94.1705H307.562C307.475 94.3409 307.358 94.4877 307.21 94.6108C307.063 94.732 306.893 94.8258 306.702 94.892C306.512 94.9583 306.311 94.9915 306.097 94.9915C305.754 94.9915 305.448 94.911 305.179 94.75C304.91 94.589 304.698 94.3674 304.543 94.0852C304.387 93.803 304.31 93.4811 304.31 93.1193C304.308 92.7292 304.398 92.3816 304.58 92.0767C304.761 91.7718 305.015 91.5331 305.341 91.3608C305.669 91.1866 306.049 91.1004 306.483 91.1023ZM306.491 92.0682C306.3 92.0682 306.13 92.1136 305.98 92.2045C305.832 92.2955 305.715 92.4176 305.628 92.571C305.543 92.7244 305.501 92.8958 305.503 93.0852C305.503 93.2765 305.545 93.4489 305.628 93.6023C305.713 93.7538 305.829 93.875 305.974 93.9659C306.122 94.0549 306.291 94.0994 306.48 94.0994C306.622 94.0994 306.754 94.0729 306.875 94.0199C306.996 93.9669 307.101 93.8939 307.19 93.8011C307.281 93.7064 307.352 93.5975 307.403 93.4744C307.455 93.3513 307.48 93.2206 307.48 93.0824C307.478 92.8987 307.435 92.7301 307.349 92.5767C307.264 92.4233 307.147 92.3002 306.997 92.2074C306.848 92.1146 306.679 92.0682 306.491 92.0682ZM309.733 97L312.145 92.2273V92.1875H309.335V91.1818H313.418V92.2017L311.003 97H309.733ZM316.314 97.0795C315.876 97.0795 315.487 97.0085 315.146 96.8665C314.807 96.7225 314.541 96.5265 314.348 96.2784C314.155 96.0303 314.058 95.7491 314.058 95.4347C314.058 95.1922 314.113 94.9697 314.223 94.767C314.335 94.5625 314.486 94.393 314.678 94.2585C314.869 94.1222 315.083 94.035 315.32 93.9972V93.9574C315.009 93.8949 314.757 93.7443 314.564 93.5057C314.371 93.2652 314.274 92.9858 314.274 92.6676C314.274 92.3665 314.362 92.0985 314.538 91.8636C314.714 91.6269 314.956 91.4413 315.263 91.3068C315.571 91.1705 315.922 91.1023 316.314 91.1023C316.706 91.1023 317.055 91.1705 317.362 91.3068C317.671 91.4432 317.913 91.6297 318.089 91.8665C318.266 92.1013 318.355 92.3684 318.357 92.6676C318.355 92.9877 318.256 93.267 318.061 93.5057C317.866 93.7443 317.616 93.8949 317.311 93.9574V93.9972C317.544 94.035 317.755 94.1222 317.945 94.2585C318.136 94.393 318.287 94.5625 318.399 94.767C318.513 94.9697 318.571 95.1922 318.572 95.4347C318.571 95.7491 318.473 96.0303 318.28 96.2784C318.087 96.5265 317.82 96.7225 317.479 96.8665C317.14 97.0085 316.751 97.0795 316.314 97.0795ZM316.314 96.1761C316.509 96.1761 316.679 96.1411 316.825 96.071C316.971 95.9991 317.085 95.9006 317.166 95.7756C317.25 95.6487 317.291 95.5028 317.291 95.3381C317.291 95.1695 317.249 95.0208 317.163 94.892C317.078 94.7614 316.963 94.6591 316.817 94.5852C316.671 94.5095 316.503 94.4716 316.314 94.4716C316.126 94.4716 315.959 94.5095 315.811 94.5852C315.663 94.6591 315.547 94.7614 315.462 94.892C315.378 95.0208 315.337 95.1695 315.337 95.3381C315.337 95.5028 315.377 95.6487 315.459 95.7756C315.54 95.9006 315.655 95.9991 315.803 96.071C315.95 96.1411 316.121 96.1761 316.314 96.1761ZM316.314 93.5767C316.477 93.5767 316.622 93.5436 316.749 93.4773C316.875 93.411 316.975 93.3191 317.047 93.2017C317.119 93.0843 317.155 92.9489 317.155 92.7955C317.155 92.6439 317.119 92.5114 317.047 92.3977C316.975 92.2822 316.876 92.1922 316.751 92.1278C316.626 92.0616 316.481 92.0284 316.314 92.0284C316.149 92.0284 316.003 92.0616 315.876 92.1278C315.75 92.1922 315.65 92.2822 315.578 92.3977C315.508 92.5114 315.473 92.6439 315.473 92.7955C315.473 92.9489 315.509 93.0843 315.581 93.2017C315.653 93.3191 315.752 93.411 315.879 93.4773C316.006 93.5436 316.151 93.5767 316.314 93.5767ZM320.595 96.2045L320.564 96.517C320.539 96.767 320.492 97.0161 320.422 97.2642C320.354 97.5142 320.282 97.7405 320.206 97.9432C320.132 98.1458 320.072 98.3049 320.027 98.4205H319.243C319.271 98.3087 319.31 98.1525 319.359 97.9517C319.409 97.7528 319.455 97.5294 319.499 97.2812C319.542 97.0331 319.57 96.7803 319.581 96.5227L319.595 96.2045H320.595ZM323.737 97.1278C323.249 97.1259 322.828 97.0057 322.476 96.767C322.125 96.5284 321.856 96.1828 321.666 95.7301C321.479 95.2775 321.386 94.733 321.388 94.0966C321.388 93.4621 321.482 92.9214 321.669 92.4744C321.858 92.0275 322.128 91.6875 322.479 91.4545C322.831 91.2197 323.25 91.1023 323.737 91.1023C324.224 91.1023 324.643 91.2197 324.993 91.4545C325.345 91.6894 325.616 92.0303 325.805 92.4773C325.995 92.9223 326.089 93.4621 326.087 94.0966C326.087 94.7348 325.992 95.2803 325.803 95.733C325.615 96.1856 325.346 96.5312 324.996 96.7699C324.645 97.0085 324.226 97.1278 323.737 97.1278ZM323.737 96.108C324.071 96.108 324.337 95.9403 324.536 95.6051C324.734 95.2699 324.833 94.767 324.831 94.0966C324.831 93.6553 324.786 93.2879 324.695 92.9943C324.606 92.7008 324.479 92.4801 324.314 92.3324C324.151 92.1847 323.959 92.1108 323.737 92.1108C323.406 92.1108 323.141 92.2765 322.942 92.608C322.743 92.9394 322.643 93.4356 322.641 94.0966C322.641 94.5436 322.685 94.9167 322.774 95.2159C322.865 95.5133 322.993 95.7367 323.158 95.8864C323.322 96.0341 323.516 96.108 323.737 96.108ZM329.245 97.1278C328.756 97.1259 328.336 97.0057 327.984 96.767C327.633 96.5284 327.363 96.1828 327.174 95.7301C326.987 95.2775 326.894 94.733 326.896 94.0966C326.896 93.4621 326.989 92.9214 327.177 92.4744C327.366 92.0275 327.636 91.6875 327.987 91.4545C328.339 91.2197 328.758 91.1023 329.245 91.1023C329.732 91.1023 330.15 91.2197 330.501 91.4545C330.853 91.6894 331.124 92.0303 331.313 92.4773C331.503 92.9223 331.596 93.4621 331.594 94.0966C331.594 94.7348 331.5 95.2803 331.31 95.733C331.123 96.1856 330.854 96.5312 330.504 96.7699C330.153 97.0085 329.734 97.1278 329.245 97.1278ZM329.245 96.108C329.578 96.108 329.844 95.9403 330.043 95.6051C330.242 95.2699 330.341 94.767 330.339 94.0966C330.339 93.6553 330.293 93.2879 330.202 92.9943C330.113 92.7008 329.987 92.4801 329.822 92.3324C329.659 92.1847 329.467 92.1108 329.245 92.1108C328.914 92.1108 328.648 92.2765 328.45 92.608C328.251 92.9394 328.15 93.4356 328.148 94.0966C328.148 94.5436 328.193 94.9167 328.282 95.2159C328.373 95.5133 328.501 95.7367 328.665 95.8864C328.83 96.0341 329.023 96.108 329.245 96.108ZM334.753 97.1278C334.264 97.1259 333.844 97.0057 333.491 96.767C333.141 96.5284 332.871 96.1828 332.682 95.7301C332.494 95.2775 332.402 94.733 332.403 94.0966C332.403 93.4621 332.497 92.9214 332.685 92.4744C332.874 92.0275 333.144 91.6875 333.494 91.4545C333.847 91.2197 334.266 91.1023 334.753 91.1023C335.24 91.1023 335.658 91.2197 336.009 91.4545C336.361 91.6894 336.632 92.0303 336.821 92.4773C337.01 92.9223 337.104 93.4621 337.102 94.0966C337.102 94.7348 337.008 95.2803 336.818 95.733C336.631 96.1856 336.362 96.5312 336.011 96.7699C335.661 97.0085 335.241 97.1278 334.753 97.1278ZM334.753 96.108C335.086 96.108 335.352 95.9403 335.551 95.6051C335.75 95.2699 335.848 94.767 335.847 94.0966C335.847 93.6553 335.801 93.2879 335.71 92.9943C335.621 92.7008 335.494 92.4801 335.33 92.3324C335.167 92.1847 334.974 92.1108 334.753 92.1108C334.421 92.1108 334.156 92.2765 333.957 92.608C333.759 92.9394 333.658 93.4356 333.656 94.0966C333.656 94.5436 333.701 94.9167 333.79 95.2159C333.881 95.5133 334.009 95.7367 334.173 95.8864C334.338 96.0341 334.531 96.108 334.753 96.108Z" fill="#525252"/>
<rect x="292.75" y="103" width="40" height="4" rx="2" fill="#EAEAEA"/>
<g opacity="0.3">
<path fill-rule="evenodd" clip-rule="evenodd" d="M91 128.788C91 128.788 95.0418 142.445 99.3214 142.445C103.363 142.445 103.363 136.651 107.643 136.651C111.685 136.651 111.685 146.17 115.964 146.17C120.006 146.17 120.006 127.547 124.286 127.547C128.328 127.547 128.328 156.102 132.607 156.102C136.649 156.102 136.649 144.514 140.929 144.514C144.97 144.514 149.25 154.447 149.25 154.447V168H91V128.788Z" fill="#CCCCCC"/>
<path fill-rule="evenodd" clip-rule="evenodd" d="M91 128.788C91 128.788 95.0418 142.445 99.3214 142.445C103.363 142.445 103.363 136.651 107.643 136.651C111.685 136.651 111.685 146.17 115.964 146.17C120.006 146.17 120.006 127.547 124.286 127.547C128.328 127.547 128.328 156.102 132.607 156.102C136.649 156.102 136.649 144.514 140.929 144.514C144.97 144.514 149.25 154.447 149.25 154.447V168H91V128.788Z" fill="url(#paint0_linear_510_6150)"/>
</g>
<path fill-rule="evenodd" clip-rule="evenodd" d="M124.284 127C126.216 127 127.063 130.328 128.571 140.555L128.874 142.615C130.262 151.926 131.182 155.426 132.606 155.426C134 155.426 134.788 154.194 136.124 150.541L136.336 149.955C137.942 145.504 138.934 143.891 140.927 143.891C141.159 143.891 141.394 143.92 141.631 143.978C143.336 144.393 145.11 146.225 146.887 149.014C147.587 150.112 148.24 151.287 148.829 152.462C148.983 152.771 149.093 153.063 149.221 153.334V153.696V154.064V155.142L148.737 154.201C148.583 153.869 148.405 153.498 148.205 153.098C147.633 151.956 146.998 150.813 146.32 149.749C144.648 147.126 142.996 145.419 141.502 145.056C141.307 145.008 141.115 144.984 140.927 144.984C139.435 144.984 138.591 146.218 137.265 149.782L136.677 151.392C135.276 155.157 134.354 156.52 132.606 156.52C130.534 156.52 129.618 152.978 128.054 142.374L127.684 139.866C126.396 131.303 125.544 128.093 124.284 128.093C122.795 128.093 121.909 130.326 120.491 136.578L120.131 138.171C118.691 144.461 117.8 146.632 115.963 146.632C114.114 146.632 113.119 145.452 111.674 142.278L111.025 140.82C109.779 138.082 109.006 137.157 107.641 137.157C106.045 137.157 105.205 137.786 103.84 139.638L103.57 140.01C102.025 142.151 101.088 142.925 99.32 142.925C97.2714 142.925 95.2318 140.274 93.2329 135.878C92.5482 134.372 91.9173 132.761 91.3541 131.151L91.1284 130.495C91.0927 130.389 91.0578 130.285 91.0239 130.183V129.216L91.0353 127.583L91.3514 128.569L91.5293 129.14L91.7168 129.715C91.8163 130.015 91.9241 130.332 92.0399 130.663C92.5911 132.239 93.2084 133.815 93.8759 135.283C95.7406 139.384 97.6239 141.831 99.32 141.831C100.777 141.831 101.554 141.239 102.862 139.464L103.124 139.102C104.728 136.878 105.731 136.064 107.641 136.064C109.41 136.064 110.342 137.253 111.805 140.531L112.038 141.058C113.51 144.411 114.355 145.539 115.963 145.539C117.28 145.539 118.098 143.518 119.403 137.827L119.852 135.844C121.35 129.306 122.309 127 124.284 127Z" fill="#CCCCCC"/>
<line x1="155.75" y1="127" x2="155.75" y2="168" stroke="#EDEDED"/>
<g opacity="0.3">
<path fill-rule="evenodd" clip-rule="evenodd" d="M218.951 130.45C218.951 130.45 217.749 135.048 211.438 140.795C207.434 140.795 206.93 128.917 203.023 127.768C199.019 127.768 198.847 159.187 194.608 159.187C190.604 159.187 190.733 138.879 186.494 138.879C182.49 138.879 182.018 149.225 177.779 149.225C173.571 146.543 174.204 143.094 169.965 143.094C165.961 143.094 161.25 158.244 161.25 158.244V168H218.951V130.45Z" fill="#CCCCCC"/>
<path fill-rule="evenodd" clip-rule="evenodd" d="M218.951 130.45C218.951 130.45 217.749 135.048 211.438 140.795C207.434 140.795 206.93 128.917 203.023 127.768C199.019 127.768 198.847 159.187 194.608 159.187C190.604 159.187 190.733 138.879 186.494 138.879C182.49 138.879 182.018 149.225 177.779 149.225C173.571 146.543 174.204 143.094 169.965 143.094C165.961 143.094 161.25 158.244 161.25 158.244V168H218.951V130.45Z" fill="url(#paint1_linear_510_6150)"/>
</g>
<path fill-rule="evenodd" clip-rule="evenodd" d="M194.799 159.555C196.712 159.555 197.551 155.885 199.045 144.607L199.345 142.335C200.72 132.067 201.631 128.207 203.042 128.207C204.423 128.207 205.203 129.566 206.527 133.594L206.737 134.24C208.327 139.148 209.31 140.928 211.284 140.928C211.514 140.928 211.747 140.895 211.982 140.832C213.671 140.374 215.428 138.354 217.188 135.278C217.882 134.067 218.528 132.771 219.111 131.475C219.264 131.135 219.373 130.813 219.5 130.514V130.115V129.71V128.52L219.021 129.558C218.868 129.924 218.692 130.333 218.494 130.774C217.927 132.034 217.298 133.294 216.626 134.467C214.97 137.361 213.334 139.242 211.854 139.643C211.661 139.695 211.471 139.722 211.284 139.722C209.806 139.722 208.97 138.362 207.657 134.432L207.074 132.655C205.687 128.503 204.773 127.001 203.042 127.001C200.989 127.001 200.082 130.906 198.533 142.601L198.167 145.367C196.89 154.81 196.047 158.349 194.799 158.349C193.323 158.349 192.446 155.887 191.041 148.992L190.684 147.236C189.258 140.299 188.376 137.905 186.556 137.905C184.724 137.905 183.738 139.206 182.307 142.707L181.664 144.314C180.43 147.334 179.665 148.354 178.313 148.354C176.732 148.354 175.899 147.66 174.547 145.618L174.279 145.208C172.749 142.846 171.821 141.993 170.07 141.993C168.04 141.993 166.02 144.917 164.04 149.765C163.362 151.425 162.737 153.201 162.179 154.977L161.955 155.701C161.92 155.817 161.885 155.932 161.852 156.045V157.111L161.863 158.912L162.176 157.824L162.352 157.195L162.538 156.56C162.637 156.23 162.743 155.88 162.858 155.515C163.404 153.777 164.016 152.04 164.677 150.421C166.524 145.898 168.39 143.199 170.07 143.199C171.513 143.199 172.283 143.852 173.578 145.81L173.838 146.209C175.427 148.661 176.42 149.56 178.313 149.56C180.064 149.56 180.988 148.248 182.437 144.633L182.667 144.052C184.126 140.354 184.962 139.11 186.556 139.11C187.86 139.11 188.67 141.34 189.964 147.615L190.408 149.801C191.892 157.012 192.841 159.555 194.799 159.555Z" fill="#CCCCCC"/>
<line x1="226" y1="127" x2="226" y2="168" stroke="#EDEDED"/>
<g opacity="0.3">
<path fill-rule="evenodd" clip-rule="evenodd" d="M231.5 128.788C231.5 128.788 235.542 142.445 239.821 142.445C243.863 142.445 243.863 136.651 248.143 136.651C252.185 136.651 252.185 146.17 256.464 146.17C260.506 146.17 260.506 127.547 264.786 127.547C268.828 127.547 268.828 156.102 273.107 156.102C277.149 156.102 277.149 144.514 281.429 144.514C285.47 144.514 289.75 154.447 289.75 154.447V168H231.5V128.788Z" fill="#CCCCCC"/>
<path fill-rule="evenodd" clip-rule="evenodd" d="M231.5 128.788C231.5 128.788 235.542 142.445 239.821 142.445C243.863 142.445 243.863 136.651 248.143 136.651C252.185 136.651 252.185 146.17 256.464 146.17C260.506 146.17 260.506 127.547 264.786 127.547C268.828 127.547 268.828 156.102 273.107 156.102C277.149 156.102 277.149 144.514 281.429 144.514C285.47 144.514 289.75 154.447 289.75 154.447V168H231.5V128.788Z" fill="url(#paint2_linear_510_6150)"/>
</g>
<path fill-rule="evenodd" clip-rule="evenodd" d="M264.784 127C266.716 127 267.563 130.328 269.071 140.555L269.374 142.615C270.762 151.926 271.682 155.426 273.106 155.426C274.5 155.426 275.288 154.194 276.624 150.541L276.836 149.955C278.442 145.504 279.434 143.891 281.427 143.891C281.659 143.891 281.894 143.92 282.131 143.978C283.836 144.393 285.61 146.225 287.387 149.014C288.087 150.112 288.74 151.287 289.329 152.462C289.483 152.771 289.593 153.063 289.721 153.334V153.696V154.064V155.142L289.237 154.201C289.083 153.869 288.905 153.498 288.705 153.098C288.133 151.956 287.498 150.813 286.82 149.749C285.148 147.126 283.496 145.419 282.002 145.056C281.807 145.008 281.615 144.984 281.427 144.984C279.935 144.984 279.091 146.218 277.765 149.782L277.177 151.392C275.776 155.157 274.854 156.52 273.106 156.52C271.034 156.52 270.118 152.978 268.554 142.374L268.184 139.866C266.896 131.303 266.044 128.093 264.784 128.093C263.295 128.093 262.409 130.326 260.991 136.578L260.631 138.171C259.191 144.461 258.3 146.632 256.463 146.632C254.614 146.632 253.619 145.452 252.174 142.278L251.525 140.82C250.279 138.082 249.506 137.157 248.141 137.157C246.545 137.157 245.705 137.786 244.34 139.638L244.07 140.01C242.525 142.151 241.588 142.925 239.82 142.925C237.771 142.925 235.732 140.274 233.733 135.878C233.048 134.372 232.417 132.761 231.854 131.151L231.628 130.495C231.593 130.389 231.558 130.285 231.524 130.183V129.216L231.535 127.583L231.851 128.569L232.029 129.14L232.217 129.715C232.316 130.015 232.424 130.332 232.54 130.663C233.091 132.239 233.708 133.815 234.376 135.283C236.241 139.384 238.124 141.831 239.82 141.831C241.277 141.831 242.054 141.239 243.362 139.464L243.624 139.102C245.228 136.879 246.231 136.064 248.141 136.064C249.91 136.064 250.842 137.253 252.305 140.531L252.538 141.058C254.01 144.411 254.855 145.539 256.463 145.539C257.78 145.539 258.598 143.518 259.903 137.827L260.352 135.844C261.85 129.306 262.809 127 264.784 127Z" fill="#CCCCCC"/>
<line x1="296.25" y1="127" x2="296.25" y2="168" stroke="#EDEDED"/>
<path fill-rule="evenodd" clip-rule="evenodd" d="M307.792 134.167C307.792 133.798 308.09 133.5 308.458 133.5H313.125C313.493 133.5 313.792 133.798 313.792 134.167V137.167C313.792 137.535 313.493 137.833 313.125 137.833H311.125V138.833H311.792C311.976 138.833 312.125 138.983 312.125 139.167C312.125 139.351 311.976 139.5 311.792 139.5H309.792C309.608 139.5 309.458 139.351 309.458 139.167C309.458 138.983 309.608 138.833 309.792 138.833H310.458V137.833H308.458C308.09 137.833 307.792 137.535 307.792 137.167V134.167ZM308.458 136.5V137.167H313.125V136.5H308.458ZM313.125 135.833H308.458V134.167L313.125 134.167V135.833Z" fill="#CCCCCC"/>
<rect x="303.292" y="144.5" width="15" height="2" rx="1" fill="#EAEAEA"/>
<path fill-rule="evenodd" clip-rule="evenodd" d="M328.875 133.833V139.166H332.875V133.833H328.875ZM328.208 133.833C328.208 133.508 328.448 133.166 328.833 133.166H332.917C333.302 133.166 333.542 133.508 333.542 133.833V139.166C333.542 139.491 333.302 139.833 332.917 139.833H328.833C328.448 139.833 328.208 139.491 328.208 139.166V133.833ZM330.208 138.499C330.208 138.315 330.357 138.166 330.542 138.166H331.208C331.392 138.166 331.542 138.315 331.542 138.499C331.542 138.683 331.392 138.833 331.208 138.833H330.542C330.357 138.833 330.208 138.683 330.208 138.499Z" fill="#CCCCCC"/>
<rect x="325.875" y="144.5" width="10" height="2" rx="1" fill="#EAEAEA"/>
<path fill-rule="evenodd" clip-rule="evenodd" d="M348.625 133.833C348.625 133.464 348.924 133.166 349.292 133.166H352.625C352.993 133.166 353.292 133.464 353.292 133.833V139.166C353.292 139.534 352.993 139.833 352.625 139.833H349.292C348.924 139.833 348.625 139.534 348.625 139.166V133.833ZM349.292 134.833V137.166H352.625V134.833H349.292ZM352.625 134.166H349.292V133.833L352.625 133.833V134.166ZM352.625 137.833H349.292V139.166H352.625V137.833ZM350.625 138.499C350.625 138.315 350.774 138.166 350.959 138.166H350.962C351.146 138.166 351.295 138.315 351.295 138.499C351.295 138.683 351.146 138.833 350.962 138.833H350.959C350.774 138.833 350.625 138.683 350.625 138.499Z" fill="#CCCCCC"/>
<rect x="344.458" y="144.5" width="13" height="2" rx="1" fill="#EAEAEA"/>
<path d="M301.75 155.5H321.167L321.167 163.5H301.75L301.75 155.5Z" fill="#EAEAEA"/>
<path d="M321.167 155.5H340.583L340.583 163.5H321.167L321.167 155.5Z" fill="#CCCCCC"/>
<path d="M340.583 155.5H360L360 163.5H340.583L340.583 155.5Z" fill="#B1B1B1"/>
<mask id="path-41-inside-2_510_6150" fill="white">
<path d="M91 178H360V200H91V178Z"/>
</mask>
<path d="M91 178V179H360V178V177H91V178Z" fill="#EDEDED" mask="url(#path-41-inside-2_510_6150)"/>
<rect x="91.5" y="188.5" width="32" height="11" rx="3.5" stroke="#CCCCCC"/>
<path d="M99.5 194H115.5" stroke="#CCCCCC" stroke-width="2" stroke-linecap="round"/>
<rect x="321" y="192.5" width="39" height="3" rx="1.5" fill="#EAEAEA"/>
</g>
<defs>
<linearGradient id="paint0_linear_510_6150" x1="120.125" y1="127.547" x2="120.125" y2="168" gradientUnits="userSpaceOnUse">
<stop stop-color="#FBFBFB" stop-opacity="0"/>
<stop offset="1" stop-color="#FBFBFB"/>
</linearGradient>
<linearGradient id="paint1_linear_510_6150" x1="190.077" y1="138.496" x2="190.077" y2="167.617" gradientUnits="userSpaceOnUse">
<stop stop-color="#FBFBFB" stop-opacity="0"/>
<stop offset="1" stop-color="#FBFBFB"/>
</linearGradient>
<linearGradient id="paint2_linear_510_6150" x1="260.625" y1="127.547" x2="260.625" y2="168" gradientUnits="userSpaceOnUse">
<stop stop-color="#FBFBFB" stop-opacity="0"/>
<stop offset="1" stop-color="#FBFBFB"/>
</linearGradient>
<clipPath id="clip0_510_6150">
<rect width="451.33" height="281" fill="white"/>
</clipPath>
</defs>
</svg>
